M48
; DRILL file {KiCad (5.1.4)-1} date 16/01/2020 18:32:54
; FORMAT={-:-/ absolute / inch / decimal}
; #@! TF.CreationDate,2020-01-16T18:32:54+01:00
; #@! TF.GenerationSoftware,Kicad,Pcbnew,(5.1.4)-1
; #@! TF.FileFunction,Plated,1,2,PTH
FMAT,2
INCH
T1C0.0157
T2C0.0315
T3C0.0394
%
G90
G05
T1
X4.45Y-1.67
X4.71Y-1.69
T2
X4.63Y-2.05
X4.63Y-2.55
T3
X6.16Y-2.43
X6.16Y-2.53
X6.0Y-2.43
X6.0Y-2.53
X5.84Y-1.31
X5.94Y-1.31
X6.04Y-1.31
X5.84Y-1.51
X5.94Y-1.51
X6.04Y-1.51
X4.78Y-1.57
X4.78Y-1.67
X4.78Y-1.77
X4.78Y-1.87
X4.78Y-1.97
X4.78Y-2.07
X4.78Y-2.17
X4.78Y-2.27
X5.68Y-1.57
X5.68Y-1.67
X5.68Y-1.77
X5.68Y-1.87
X5.68Y-1.97
X5.68Y-2.07
X5.68Y-2.17
X5.68Y-2.27
X4.63Y-1.31
X4.63Y-1.41
X4.63Y-1.51
X4.63Y-1.61
X5.84Y-2.43
X5.84Y-2.53
X5.83Y-1.76
X5.83Y-1.86
X5.83Y-1.96
X5.83Y-2.06
T0
M30
