G04 #@! TF.GenerationSoftware,KiCad,Pcbnew,(5.1.4)-1*
G04 #@! TF.CreationDate,2020-01-16T18:32:52+01:00*
G04 #@! TF.ProjectId,lumos-cache,6c756d6f-732d-4636-9163-68652e6b6963,rev?*
G04 #@! TF.SameCoordinates,Original*
G04 #@! TF.FileFunction,Legend,Top*
G04 #@! TF.FilePolarity,Positive*
%FSLAX46Y46*%
G04 Gerber Fmt 4.6, Leading zero omitted, Abs format (unit mm)*
G04 Created by KiCad (PCBNEW (5.1.4)-1) date 2020-01-16 18:32:52*
%MOMM*%
%LPD*%
G04 APERTURE LIST*
%ADD10C,0.150000*%
%ADD11C,0.120000*%
G04 APERTURE END LIST*
D10*
X113284095Y-40394000D02*
X113188857Y-40346380D01*
X113046000Y-40346380D01*
X112903142Y-40394000D01*
X112807904Y-40489238D01*
X112760285Y-40584476D01*
X112712666Y-40774952D01*
X112712666Y-40917809D01*
X112760285Y-41108285D01*
X112807904Y-41203523D01*
X112903142Y-41298761D01*
X113046000Y-41346380D01*
X113141238Y-41346380D01*
X113284095Y-41298761D01*
X113331714Y-41251142D01*
X113331714Y-40917809D01*
X113141238Y-40917809D01*
X113760285Y-41346380D02*
X113760285Y-40346380D01*
X114331714Y-41346380D01*
X114331714Y-40346380D01*
X114807904Y-41346380D02*
X114807904Y-40346380D01*
X115046000Y-40346380D01*
X115188857Y-40394000D01*
X115284095Y-40489238D01*
X115331714Y-40584476D01*
X115379333Y-40774952D01*
X115379333Y-40917809D01*
X115331714Y-41108285D01*
X115284095Y-41203523D01*
X115188857Y-41298761D01*
X115046000Y-41346380D01*
X114807904Y-41346380D01*
X112712666Y-32980380D02*
X113046000Y-33980380D01*
X113379333Y-32980380D01*
X114284095Y-33885142D02*
X114236476Y-33932761D01*
X114093619Y-33980380D01*
X113998380Y-33980380D01*
X113855523Y-33932761D01*
X113760285Y-33837523D01*
X113712666Y-33742285D01*
X113665047Y-33551809D01*
X113665047Y-33408952D01*
X113712666Y-33218476D01*
X113760285Y-33123238D01*
X113855523Y-33028000D01*
X113998380Y-32980380D01*
X114093619Y-32980380D01*
X114236476Y-33028000D01*
X114284095Y-33075619D01*
X115284095Y-33885142D02*
X115236476Y-33932761D01*
X115093619Y-33980380D01*
X114998380Y-33980380D01*
X114855523Y-33932761D01*
X114760285Y-33837523D01*
X114712666Y-33742285D01*
X114665047Y-33551809D01*
X114665047Y-33408952D01*
X114712666Y-33218476D01*
X114760285Y-33123238D01*
X114855523Y-33028000D01*
X114998380Y-32980380D01*
X115093619Y-32980380D01*
X115236476Y-33028000D01*
X115284095Y-33075619D01*
X112831714Y-38758761D02*
X112974571Y-38806380D01*
X113212666Y-38806380D01*
X113307904Y-38758761D01*
X113355523Y-38711142D01*
X113403142Y-38615904D01*
X113403142Y-38520666D01*
X113355523Y-38425428D01*
X113307904Y-38377809D01*
X113212666Y-38330190D01*
X113022190Y-38282571D01*
X112926952Y-38234952D01*
X112879333Y-38187333D01*
X112831714Y-38092095D01*
X112831714Y-37996857D01*
X112879333Y-37901619D01*
X112926952Y-37854000D01*
X113022190Y-37806380D01*
X113260285Y-37806380D01*
X113403142Y-37854000D01*
X113831714Y-38806380D02*
X113831714Y-37806380D01*
X114069809Y-37806380D01*
X114212666Y-37854000D01*
X114307904Y-37949238D01*
X114355523Y-38044476D01*
X114403142Y-38234952D01*
X114403142Y-38377809D01*
X114355523Y-38568285D01*
X114307904Y-38663523D01*
X114212666Y-38758761D01*
X114069809Y-38806380D01*
X113831714Y-38806380D01*
X114784095Y-38520666D02*
X115260285Y-38520666D01*
X114688857Y-38806380D02*
X115022190Y-37806380D01*
X115355523Y-38806380D01*
X112855523Y-35964761D02*
X112998380Y-36012380D01*
X113236476Y-36012380D01*
X113331714Y-35964761D01*
X113379333Y-35917142D01*
X113426952Y-35821904D01*
X113426952Y-35726666D01*
X113379333Y-35631428D01*
X113331714Y-35583809D01*
X113236476Y-35536190D01*
X113046000Y-35488571D01*
X112950761Y-35440952D01*
X112903142Y-35393333D01*
X112855523Y-35298095D01*
X112855523Y-35202857D01*
X112903142Y-35107619D01*
X112950761Y-35060000D01*
X113046000Y-35012380D01*
X113284095Y-35012380D01*
X113426952Y-35060000D01*
X114426952Y-35917142D02*
X114379333Y-35964761D01*
X114236476Y-36012380D01*
X114141238Y-36012380D01*
X113998380Y-35964761D01*
X113903142Y-35869523D01*
X113855523Y-35774285D01*
X113807904Y-35583809D01*
X113807904Y-35440952D01*
X113855523Y-35250476D01*
X113903142Y-35155238D01*
X113998380Y-35060000D01*
X114141238Y-35012380D01*
X114236476Y-35012380D01*
X114379333Y-35060000D01*
X114426952Y-35107619D01*
X115331714Y-36012380D02*
X114855523Y-36012380D01*
X114855523Y-35012380D01*
X160567714Y-67214571D02*
X161234380Y-66976476D01*
X160567714Y-66738380D01*
X161234380Y-65833619D02*
X161234380Y-66405047D01*
X161234380Y-66119333D02*
X160234380Y-66119333D01*
X160377238Y-66214571D01*
X160472476Y-66309809D01*
X160520095Y-66405047D01*
X161139142Y-65405047D02*
X161186761Y-65357428D01*
X161234380Y-65405047D01*
X161186761Y-65452666D01*
X161139142Y-65405047D01*
X161234380Y-65405047D01*
X160234380Y-64738380D02*
X160234380Y-64643142D01*
X160282000Y-64547904D01*
X160329619Y-64500285D01*
X160424857Y-64452666D01*
X160615333Y-64405047D01*
X160853428Y-64405047D01*
X161043904Y-64452666D01*
X161139142Y-64500285D01*
X161186761Y-64547904D01*
X161234380Y-64643142D01*
X161234380Y-64738380D01*
X161186761Y-64833619D01*
X161139142Y-64881238D01*
X161043904Y-64928857D01*
X160853428Y-64976476D01*
X160615333Y-64976476D01*
X160424857Y-64928857D01*
X160329619Y-64881238D01*
X160282000Y-64833619D01*
X160234380Y-64738380D01*
X112856000Y-66587714D02*
X112856000Y-67254380D01*
X112427428Y-66587714D02*
X112427428Y-67111523D01*
X112475047Y-67206761D01*
X112570285Y-67254380D01*
X112713142Y-67254380D01*
X112808380Y-67206761D01*
X112856000Y-67159142D01*
X113284571Y-67206761D02*
X113379809Y-67254380D01*
X113570285Y-67254380D01*
X113665523Y-67206761D01*
X113713142Y-67111523D01*
X113713142Y-67063904D01*
X113665523Y-66968666D01*
X113570285Y-66921047D01*
X113427428Y-66921047D01*
X113332190Y-66873428D01*
X113284571Y-66778190D01*
X113284571Y-66730571D01*
X113332190Y-66635333D01*
X113427428Y-66587714D01*
X113570285Y-66587714D01*
X113665523Y-66635333D01*
X114141714Y-67254380D02*
X114141714Y-66587714D01*
X114141714Y-66254380D02*
X114094095Y-66302000D01*
X114141714Y-66349619D01*
X114189333Y-66302000D01*
X114141714Y-66254380D01*
X114141714Y-66349619D01*
X114617904Y-66587714D02*
X114617904Y-67254380D01*
X114617904Y-66682952D02*
X114665523Y-66635333D01*
X114760761Y-66587714D01*
X114903619Y-66587714D01*
X114998857Y-66635333D01*
X115046476Y-66730571D01*
X115046476Y-67254380D01*
X115522666Y-67254380D02*
X115522666Y-66587714D01*
X115522666Y-66254380D02*
X115475047Y-66302000D01*
X115522666Y-66349619D01*
X115570285Y-66302000D01*
X115522666Y-66254380D01*
X115522666Y-66349619D01*
X115998857Y-67159142D02*
X116046476Y-67206761D01*
X115998857Y-67254380D01*
X115951238Y-67206761D01*
X115998857Y-67159142D01*
X115998857Y-67254380D01*
X116856000Y-67206761D02*
X116760761Y-67254380D01*
X116570285Y-67254380D01*
X116475047Y-67206761D01*
X116427428Y-67111523D01*
X116427428Y-66730571D01*
X116475047Y-66635333D01*
X116570285Y-66587714D01*
X116760761Y-66587714D01*
X116856000Y-66635333D01*
X116903619Y-66730571D01*
X116903619Y-66825809D01*
X116427428Y-66921047D01*
X117760761Y-66587714D02*
X117760761Y-67254380D01*
X117332190Y-66587714D02*
X117332190Y-67111523D01*
X117379809Y-67206761D01*
X117475047Y-67254380D01*
X117617904Y-67254380D01*
X117713142Y-67206761D01*
X117760761Y-67159142D01*
X118951238Y-66206761D02*
X118094095Y-67492476D01*
X119427428Y-67254380D02*
X119332190Y-67206761D01*
X119284571Y-67111523D01*
X119284571Y-66254380D01*
X120236952Y-66587714D02*
X120236952Y-67254380D01*
X119808380Y-66587714D02*
X119808380Y-67111523D01*
X119856000Y-67206761D01*
X119951238Y-67254380D01*
X120094095Y-67254380D01*
X120189333Y-67206761D01*
X120236952Y-67159142D01*
X120713142Y-67254380D02*
X120713142Y-66587714D01*
X120713142Y-66682952D02*
X120760761Y-66635333D01*
X120856000Y-66587714D01*
X120998857Y-66587714D01*
X121094095Y-66635333D01*
X121141714Y-66730571D01*
X121141714Y-67254380D01*
X121141714Y-66730571D02*
X121189333Y-66635333D01*
X121284571Y-66587714D01*
X121427428Y-66587714D01*
X121522666Y-66635333D01*
X121570285Y-66730571D01*
X121570285Y-67254380D01*
X122189333Y-67254380D02*
X122094095Y-67206761D01*
X122046476Y-67159142D01*
X121998857Y-67063904D01*
X121998857Y-66778190D01*
X122046476Y-66682952D01*
X122094095Y-66635333D01*
X122189333Y-66587714D01*
X122332190Y-66587714D01*
X122427428Y-66635333D01*
X122475047Y-66682952D01*
X122522666Y-66778190D01*
X122522666Y-67063904D01*
X122475047Y-67159142D01*
X122427428Y-67206761D01*
X122332190Y-67254380D01*
X122189333Y-67254380D01*
X122903619Y-67206761D02*
X122998857Y-67254380D01*
X123189333Y-67254380D01*
X123284571Y-67206761D01*
X123332190Y-67111523D01*
X123332190Y-67063904D01*
X123284571Y-66968666D01*
X123189333Y-66921047D01*
X123046476Y-66921047D01*
X122951238Y-66873428D01*
X122903619Y-66778190D01*
X122903619Y-66730571D01*
X122951238Y-66635333D01*
X123046476Y-66587714D01*
X123189333Y-66587714D01*
X123284571Y-66635333D01*
D11*
X152806476Y-35160000D02*
X152730285Y-35121904D01*
X152616000Y-35121904D01*
X152501714Y-35160000D01*
X152425523Y-35236190D01*
X152387428Y-35312380D01*
X152349333Y-35464761D01*
X152349333Y-35579047D01*
X152387428Y-35731428D01*
X152425523Y-35807619D01*
X152501714Y-35883809D01*
X152616000Y-35921904D01*
X152692190Y-35921904D01*
X152806476Y-35883809D01*
X152844571Y-35845714D01*
X152844571Y-35579047D01*
X152692190Y-35579047D01*
X153187428Y-35921904D02*
X153187428Y-35121904D01*
X153644571Y-35921904D01*
X153644571Y-35121904D01*
X154025523Y-35921904D02*
X154025523Y-35121904D01*
X154216000Y-35121904D01*
X154330285Y-35160000D01*
X154406476Y-35236190D01*
X154444571Y-35312380D01*
X154482666Y-35464761D01*
X154482666Y-35579047D01*
X154444571Y-35731428D01*
X154406476Y-35807619D01*
X154330285Y-35883809D01*
X154216000Y-35921904D01*
X154025523Y-35921904D01*
D10*
X155725904Y-58110380D02*
X155725904Y-57110380D01*
X155964000Y-57110380D01*
X156106857Y-57158000D01*
X156202095Y-57253238D01*
X156249714Y-57348476D01*
X156297333Y-57538952D01*
X156297333Y-57681809D01*
X156249714Y-57872285D01*
X156202095Y-57967523D01*
X156106857Y-58062761D01*
X155964000Y-58110380D01*
X155725904Y-58110380D01*
X156630666Y-57110380D02*
X157249714Y-57110380D01*
X156916380Y-57491333D01*
X157059238Y-57491333D01*
X157154476Y-57538952D01*
X157202095Y-57586571D01*
X157249714Y-57681809D01*
X157249714Y-57919904D01*
X157202095Y-58015142D01*
X157154476Y-58062761D01*
X157059238Y-58110380D01*
X156773523Y-58110380D01*
X156678285Y-58062761D01*
X156630666Y-58015142D01*
X151407904Y-58110380D02*
X151407904Y-57110380D01*
X151646000Y-57110380D01*
X151788857Y-57158000D01*
X151884095Y-57253238D01*
X151931714Y-57348476D01*
X151979333Y-57538952D01*
X151979333Y-57681809D01*
X151931714Y-57872285D01*
X151884095Y-57967523D01*
X151788857Y-58062761D01*
X151646000Y-58110380D01*
X151407904Y-58110380D01*
X152836476Y-57443714D02*
X152836476Y-58110380D01*
X152598380Y-57062761D02*
X152360285Y-57777047D01*
X152979333Y-57777047D01*
X147597904Y-58110380D02*
X147597904Y-57110380D01*
X147836000Y-57110380D01*
X147978857Y-57158000D01*
X148074095Y-57253238D01*
X148121714Y-57348476D01*
X148169333Y-57538952D01*
X148169333Y-57681809D01*
X148121714Y-57872285D01*
X148074095Y-57967523D01*
X147978857Y-58062761D01*
X147836000Y-58110380D01*
X147597904Y-58110380D01*
X149074095Y-57110380D02*
X148597904Y-57110380D01*
X148550285Y-57586571D01*
X148597904Y-57538952D01*
X148693142Y-57491333D01*
X148931238Y-57491333D01*
X149026476Y-57538952D01*
X149074095Y-57586571D01*
X149121714Y-57681809D01*
X149121714Y-57919904D01*
X149074095Y-58015142D01*
X149026476Y-58062761D01*
X148931238Y-58110380D01*
X148693142Y-58110380D01*
X148597904Y-58062761D01*
X148550285Y-58015142D01*
D11*
X150304571Y-40519333D02*
X150685523Y-40519333D01*
X150228380Y-40747904D02*
X150495047Y-39947904D01*
X150761714Y-40747904D01*
X151180761Y-39947904D02*
X151256952Y-39947904D01*
X151333142Y-39986000D01*
X151371238Y-40024095D01*
X151409333Y-40100285D01*
X151447428Y-40252666D01*
X151447428Y-40443142D01*
X151409333Y-40595523D01*
X151371238Y-40671714D01*
X151333142Y-40709809D01*
X151256952Y-40747904D01*
X151180761Y-40747904D01*
X151104571Y-40709809D01*
X151066476Y-40671714D01*
X151028380Y-40595523D01*
X150990285Y-40443142D01*
X150990285Y-40252666D01*
X151028380Y-40100285D01*
X151066476Y-40024095D01*
X151104571Y-39986000D01*
X151180761Y-39947904D01*
X152806476Y-39986000D02*
X152730285Y-39947904D01*
X152616000Y-39947904D01*
X152501714Y-39986000D01*
X152425523Y-40062190D01*
X152387428Y-40138380D01*
X152349333Y-40290761D01*
X152349333Y-40405047D01*
X152387428Y-40557428D01*
X152425523Y-40633619D01*
X152501714Y-40709809D01*
X152616000Y-40747904D01*
X152692190Y-40747904D01*
X152806476Y-40709809D01*
X152844571Y-40671714D01*
X152844571Y-40405047D01*
X152692190Y-40405047D01*
X153187428Y-40747904D02*
X153187428Y-39947904D01*
X153644571Y-40747904D01*
X153644571Y-39947904D01*
X154025523Y-40747904D02*
X154025523Y-39947904D01*
X154216000Y-39947904D01*
X154330285Y-39986000D01*
X154406476Y-40062190D01*
X154444571Y-40138380D01*
X154482666Y-40290761D01*
X154482666Y-40405047D01*
X154444571Y-40557428D01*
X154406476Y-40633619D01*
X154330285Y-40709809D01*
X154216000Y-40747904D01*
X154025523Y-40747904D01*
X147269333Y-39947904D02*
X147536000Y-40747904D01*
X147802666Y-39947904D01*
X148526476Y-40671714D02*
X148488380Y-40709809D01*
X148374095Y-40747904D01*
X148297904Y-40747904D01*
X148183619Y-40709809D01*
X148107428Y-40633619D01*
X148069333Y-40557428D01*
X148031238Y-40405047D01*
X148031238Y-40290761D01*
X148069333Y-40138380D01*
X148107428Y-40062190D01*
X148183619Y-39986000D01*
X148297904Y-39947904D01*
X148374095Y-39947904D01*
X148488380Y-39986000D01*
X148526476Y-40024095D01*
X149326476Y-40671714D02*
X149288380Y-40709809D01*
X149174095Y-40747904D01*
X149097904Y-40747904D01*
X148983619Y-40709809D01*
X148907428Y-40633619D01*
X148869333Y-40557428D01*
X148831238Y-40405047D01*
X148831238Y-40290761D01*
X148869333Y-40138380D01*
X148907428Y-40062190D01*
X148983619Y-39986000D01*
X149097904Y-39947904D01*
X149174095Y-39947904D01*
X149288380Y-39986000D01*
X149326476Y-40024095D01*
X149809333Y-35121904D02*
X150076000Y-35921904D01*
X150342666Y-35121904D01*
X151066476Y-35845714D02*
X151028380Y-35883809D01*
X150914095Y-35921904D01*
X150837904Y-35921904D01*
X150723619Y-35883809D01*
X150647428Y-35807619D01*
X150609333Y-35731428D01*
X150571238Y-35579047D01*
X150571238Y-35464761D01*
X150609333Y-35312380D01*
X150647428Y-35236190D01*
X150723619Y-35160000D01*
X150837904Y-35121904D01*
X150914095Y-35121904D01*
X151028380Y-35160000D01*
X151066476Y-35198095D01*
X151866476Y-35845714D02*
X151828380Y-35883809D01*
X151714095Y-35921904D01*
X151637904Y-35921904D01*
X151523619Y-35883809D01*
X151447428Y-35807619D01*
X151409333Y-35731428D01*
X151371238Y-35579047D01*
X151371238Y-35464761D01*
X151409333Y-35312380D01*
X151447428Y-35236190D01*
X151523619Y-35160000D01*
X151637904Y-35121904D01*
X151714095Y-35121904D01*
X151828380Y-35160000D01*
X151866476Y-35198095D01*
X147745523Y-35921904D02*
X147745523Y-35121904D01*
X147936000Y-35121904D01*
X148050285Y-35160000D01*
X148126476Y-35236190D01*
X148164571Y-35312380D01*
X148202666Y-35464761D01*
X148202666Y-35579047D01*
X148164571Y-35731428D01*
X148126476Y-35807619D01*
X148050285Y-35883809D01*
X147936000Y-35921904D01*
X147745523Y-35921904D01*
X148469333Y-35121904D02*
X149002666Y-35121904D01*
X148659809Y-35921904D01*
D10*
X130056095Y-32218380D02*
X130056095Y-33027904D01*
X130103714Y-33123142D01*
X130151333Y-33170761D01*
X130246571Y-33218380D01*
X130437047Y-33218380D01*
X130532285Y-33170761D01*
X130579904Y-33123142D01*
X130627523Y-33027904D01*
X130627523Y-32218380D01*
X131056095Y-33170761D02*
X131198952Y-33218380D01*
X131437047Y-33218380D01*
X131532285Y-33170761D01*
X131579904Y-33123142D01*
X131627523Y-33027904D01*
X131627523Y-32932666D01*
X131579904Y-32837428D01*
X131532285Y-32789809D01*
X131437047Y-32742190D01*
X131246571Y-32694571D01*
X131151333Y-32646952D01*
X131103714Y-32599333D01*
X131056095Y-32504095D01*
X131056095Y-32408857D01*
X131103714Y-32313619D01*
X131151333Y-32266000D01*
X131246571Y-32218380D01*
X131484666Y-32218380D01*
X131627523Y-32266000D01*
X132389428Y-32694571D02*
X132532285Y-32742190D01*
X132579904Y-32789809D01*
X132627523Y-32885047D01*
X132627523Y-33027904D01*
X132579904Y-33123142D01*
X132532285Y-33170761D01*
X132437047Y-33218380D01*
X132056095Y-33218380D01*
X132056095Y-32218380D01*
X132389428Y-32218380D01*
X132484666Y-32266000D01*
X132532285Y-32313619D01*
X132579904Y-32408857D01*
X132579904Y-32504095D01*
X132532285Y-32599333D01*
X132484666Y-32646952D01*
X132389428Y-32694571D01*
X132056095Y-32694571D01*
X150312666Y-52030380D02*
X150646000Y-53030380D01*
X150979333Y-52030380D01*
X151646000Y-52506571D02*
X151788857Y-52554190D01*
X151836476Y-52601809D01*
X151884095Y-52697047D01*
X151884095Y-52839904D01*
X151836476Y-52935142D01*
X151788857Y-52982761D01*
X151693619Y-53030380D01*
X151312666Y-53030380D01*
X151312666Y-52030380D01*
X151646000Y-52030380D01*
X151741238Y-52078000D01*
X151788857Y-52125619D01*
X151836476Y-52220857D01*
X151836476Y-52316095D01*
X151788857Y-52411333D01*
X151741238Y-52458952D01*
X151646000Y-52506571D01*
X151312666Y-52506571D01*
X152312666Y-52030380D02*
X152312666Y-52839904D01*
X152360285Y-52935142D01*
X152407904Y-52982761D01*
X152503142Y-53030380D01*
X152693619Y-53030380D01*
X152788857Y-52982761D01*
X152836476Y-52935142D01*
X152884095Y-52839904D01*
X152884095Y-52030380D01*
X153312666Y-52982761D02*
X153455523Y-53030380D01*
X153693619Y-53030380D01*
X153788857Y-52982761D01*
X153836476Y-52935142D01*
X153884095Y-52839904D01*
X153884095Y-52744666D01*
X153836476Y-52649428D01*
X153788857Y-52601809D01*
X153693619Y-52554190D01*
X153503142Y-52506571D01*
X153407904Y-52458952D01*
X153360285Y-52411333D01*
X153312666Y-52316095D01*
X153312666Y-52220857D01*
X153360285Y-52125619D01*
X153407904Y-52078000D01*
X153503142Y-52030380D01*
X153741238Y-52030380D01*
X153884095Y-52078000D01*
X150876095Y-43950000D02*
X150780857Y-43902380D01*
X150638000Y-43902380D01*
X150495142Y-43950000D01*
X150399904Y-44045238D01*
X150352285Y-44140476D01*
X150304666Y-44330952D01*
X150304666Y-44473809D01*
X150352285Y-44664285D01*
X150399904Y-44759523D01*
X150495142Y-44854761D01*
X150638000Y-44902380D01*
X150733238Y-44902380D01*
X150876095Y-44854761D01*
X150923714Y-44807142D01*
X150923714Y-44473809D01*
X150733238Y-44473809D01*
X151352285Y-44902380D02*
X151352285Y-43902380D01*
X151923714Y-44902380D01*
X151923714Y-43902380D01*
X152399904Y-44902380D02*
X152399904Y-43902380D01*
X152638000Y-43902380D01*
X152780857Y-43950000D01*
X152876095Y-44045238D01*
X152923714Y-44140476D01*
X152971333Y-44330952D01*
X152971333Y-44473809D01*
X152923714Y-44664285D01*
X152876095Y-44759523D01*
X152780857Y-44854761D01*
X152638000Y-44902380D01*
X152399904Y-44902380D01*
X159980380Y-49267904D02*
X160789904Y-49267904D01*
X160885142Y-49220285D01*
X160932761Y-49172666D01*
X160980380Y-49077428D01*
X160980380Y-48886952D01*
X160932761Y-48791714D01*
X160885142Y-48744095D01*
X160789904Y-48696476D01*
X159980380Y-48696476D01*
X160932761Y-48267904D02*
X160980380Y-48125047D01*
X160980380Y-47886952D01*
X160932761Y-47791714D01*
X160885142Y-47744095D01*
X160789904Y-47696476D01*
X160694666Y-47696476D01*
X160599428Y-47744095D01*
X160551809Y-47791714D01*
X160504190Y-47886952D01*
X160456571Y-48077428D01*
X160408952Y-48172666D01*
X160361333Y-48220285D01*
X160266095Y-48267904D01*
X160170857Y-48267904D01*
X160075619Y-48220285D01*
X160028000Y-48172666D01*
X159980380Y-48077428D01*
X159980380Y-47839333D01*
X160028000Y-47696476D01*
X160456571Y-46934571D02*
X160504190Y-46791714D01*
X160551809Y-46744095D01*
X160647047Y-46696476D01*
X160789904Y-46696476D01*
X160885142Y-46744095D01*
X160932761Y-46791714D01*
X160980380Y-46886952D01*
X160980380Y-47267904D01*
X159980380Y-47267904D01*
X159980380Y-46934571D01*
X160028000Y-46839333D01*
X160075619Y-46791714D01*
X160170857Y-46744095D01*
X160266095Y-46744095D01*
X160361333Y-46791714D01*
X160408952Y-46839333D01*
X160456571Y-46934571D01*
X160456571Y-47267904D01*
D11*
X146752000Y-43374000D02*
X148082000Y-43374000D01*
X146752000Y-44704000D02*
X146752000Y-43374000D01*
X146752000Y-45974000D02*
X149412000Y-45974000D01*
X149412000Y-45974000D02*
X149412000Y-53654000D01*
X146752000Y-45974000D02*
X146752000Y-53654000D01*
X146752000Y-53654000D02*
X149412000Y-53654000D01*
X146050000Y-41148000D02*
X146050000Y-55372000D01*
X146050000Y-55372000D02*
X161290000Y-55372000D01*
X161290000Y-55372000D02*
X161290000Y-41148000D01*
X161290000Y-41148000D02*
X146050000Y-41148000D01*
X117602000Y-63730000D02*
X117602000Y-63040000D01*
X117602000Y-53110000D02*
X117602000Y-53800000D01*
X119322000Y-63040000D02*
X119322000Y-53800000D01*
X115882000Y-63040000D02*
X119322000Y-63040000D01*
X115882000Y-53800000D02*
X115882000Y-63040000D01*
X119322000Y-53800000D02*
X115882000Y-53800000D01*
X122042000Y-65998000D02*
G75*
G02X119912000Y-63868000I0J2130000D01*
G01*
X145772000Y-63868000D02*
G75*
G02X143642000Y-65998000I-2130000J0D01*
G01*
X143232000Y-38438000D02*
X143232000Y-31538000D01*
X145772000Y-38438000D02*
X143232000Y-38438000D01*
D10*
G36*
X146812000Y-58293000D02*
G01*
X146812000Y-57023000D01*
X146177000Y-57658000D01*
X146812000Y-58293000D01*
G37*
X146812000Y-58293000D02*
X146812000Y-57023000D01*
X146177000Y-57658000D01*
X146812000Y-58293000D01*
D11*
X122032000Y-65998000D02*
X143642000Y-65998000D01*
X119912000Y-31538000D02*
X119912000Y-63868000D01*
X145772000Y-38438000D02*
X145772000Y-63868000D01*
X143232000Y-31538000D02*
X119912000Y-31538000D01*
X149666000Y-65592000D02*
X148336000Y-65592000D01*
X149666000Y-64262000D02*
X149666000Y-65592000D01*
X149666000Y-62992000D02*
X147006000Y-62992000D01*
X147006000Y-62992000D02*
X147006000Y-60392000D01*
X149666000Y-62992000D02*
X149666000Y-60392000D01*
X149666000Y-60392000D02*
X147006000Y-60392000D01*
X153730000Y-65592000D02*
X152400000Y-65592000D01*
X153730000Y-64262000D02*
X153730000Y-65592000D01*
X153730000Y-62992000D02*
X151070000Y-62992000D01*
X151070000Y-62992000D02*
X151070000Y-60392000D01*
X153730000Y-62992000D02*
X153730000Y-60392000D01*
X153730000Y-60392000D02*
X151070000Y-60392000D01*
X157794000Y-65592000D02*
X156464000Y-65592000D01*
X157794000Y-64262000D02*
X157794000Y-65592000D01*
X157794000Y-62992000D02*
X155134000Y-62992000D01*
X155134000Y-62992000D02*
X155134000Y-60392000D01*
X157794000Y-62992000D02*
X157794000Y-60392000D01*
X157794000Y-60392000D02*
X155134000Y-60392000D01*
X154746000Y-31944000D02*
X154746000Y-33274000D01*
X153416000Y-31944000D02*
X154746000Y-31944000D01*
X152146000Y-31944000D02*
X152146000Y-34604000D01*
X152146000Y-34604000D02*
X147006000Y-34604000D01*
X152146000Y-31944000D02*
X147006000Y-31944000D01*
X147006000Y-31944000D02*
X147006000Y-34604000D01*
X118932000Y-42224000D02*
X117602000Y-42224000D01*
X118932000Y-40894000D02*
X118932000Y-42224000D01*
X118932000Y-39624000D02*
X116272000Y-39624000D01*
X116272000Y-39624000D02*
X116272000Y-31944000D01*
X118932000Y-39624000D02*
X118932000Y-31944000D01*
X118932000Y-31944000D02*
X116272000Y-31944000D01*
X154746000Y-37024000D02*
X154746000Y-38354000D01*
X153416000Y-37024000D02*
X154746000Y-37024000D01*
X152146000Y-37024000D02*
X152146000Y-39684000D01*
X152146000Y-39684000D02*
X147006000Y-39684000D01*
X152146000Y-37024000D02*
X147006000Y-37024000D01*
X147006000Y-37024000D02*
X147006000Y-39684000D01*
D10*
X111506000Y-50800000D02*
X111506000Y-43180000D01*
X114554000Y-43180000D02*
X114554000Y-50800000D01*
X114554000Y-43180000D02*
X111506000Y-43180000D01*
X114554000Y-50800000D02*
X111506000Y-50800000D01*
X120774380Y-58586666D02*
X120298190Y-58920000D01*
X120774380Y-59158095D02*
X119774380Y-59158095D01*
X119774380Y-58777142D01*
X119822000Y-58681904D01*
X119869619Y-58634285D01*
X119964857Y-58586666D01*
X120107714Y-58586666D01*
X120202952Y-58634285D01*
X120250571Y-58681904D01*
X120298190Y-58777142D01*
X120298190Y-59158095D01*
X120774380Y-57634285D02*
X120774380Y-58205714D01*
X120774380Y-57920000D02*
X119774380Y-57920000D01*
X119917238Y-58015238D01*
X120012476Y-58110476D01*
X120060095Y-58205714D01*
X114593714Y-61253333D02*
X115260380Y-61253333D01*
X114212761Y-61491428D02*
X114927047Y-61729523D01*
X114927047Y-61110476D01*
X114260380Y-60824761D02*
X114260380Y-60158095D01*
X115260380Y-60586666D01*
X114260380Y-59586666D02*
X114260380Y-59491428D01*
X114308000Y-59396190D01*
X114355619Y-59348571D01*
X114450857Y-59300952D01*
X114641333Y-59253333D01*
X114879428Y-59253333D01*
X115069904Y-59300952D01*
X115165142Y-59348571D01*
X115212761Y-59396190D01*
X115260380Y-59491428D01*
X115260380Y-59586666D01*
X115212761Y-59681904D01*
X115165142Y-59729523D01*
X115069904Y-59777142D01*
X114879428Y-59824761D01*
X114641333Y-59824761D01*
X114450857Y-59777142D01*
X114355619Y-59729523D01*
X114308000Y-59681904D01*
X114260380Y-59586666D01*
X115260380Y-58824761D02*
X114260380Y-58824761D01*
X115260380Y-58253333D02*
X114688952Y-58681904D01*
X114260380Y-58253333D02*
X114831809Y-58824761D01*
X115260380Y-57681904D02*
X115212761Y-57777142D01*
X115165142Y-57824761D01*
X115069904Y-57872380D01*
X114784190Y-57872380D01*
X114688952Y-57824761D01*
X114641333Y-57777142D01*
X114593714Y-57681904D01*
X114593714Y-57539047D01*
X114641333Y-57443809D01*
X114688952Y-57396190D01*
X114784190Y-57348571D01*
X115069904Y-57348571D01*
X115165142Y-57396190D01*
X115212761Y-57443809D01*
X115260380Y-57539047D01*
X115260380Y-57681904D01*
X115260380Y-56920000D02*
X114260380Y-56920000D01*
X115260380Y-56491428D02*
X114736571Y-56491428D01*
X114641333Y-56539047D01*
X114593714Y-56634285D01*
X114593714Y-56777142D01*
X114641333Y-56872380D01*
X114688952Y-56920000D01*
X115260380Y-56015238D02*
X114593714Y-56015238D01*
X114688952Y-56015238D02*
X114641333Y-55967619D01*
X114593714Y-55872380D01*
X114593714Y-55729523D01*
X114641333Y-55634285D01*
X114736571Y-55586666D01*
X115260380Y-55586666D01*
X114736571Y-55586666D02*
X114641333Y-55539047D01*
X114593714Y-55443809D01*
X114593714Y-55300952D01*
X114641333Y-55205714D01*
X114736571Y-55158095D01*
X115260380Y-55158095D01*
X126714952Y-45680380D02*
X126953047Y-46680380D01*
X127143523Y-45966095D01*
X127334000Y-46680380D01*
X127572095Y-45680380D01*
X128334000Y-46632761D02*
X128238761Y-46680380D01*
X128048285Y-46680380D01*
X127953047Y-46632761D01*
X127905428Y-46537523D01*
X127905428Y-46156571D01*
X127953047Y-46061333D01*
X128048285Y-46013714D01*
X128238761Y-46013714D01*
X128334000Y-46061333D01*
X128381619Y-46156571D01*
X128381619Y-46251809D01*
X127905428Y-46347047D01*
X128810190Y-46680380D02*
X128810190Y-45680380D01*
X129143523Y-46394666D01*
X129476857Y-45680380D01*
X129476857Y-46680380D01*
X130095904Y-46680380D02*
X130000666Y-46632761D01*
X129953047Y-46585142D01*
X129905428Y-46489904D01*
X129905428Y-46204190D01*
X129953047Y-46108952D01*
X130000666Y-46061333D01*
X130095904Y-46013714D01*
X130238761Y-46013714D01*
X130334000Y-46061333D01*
X130381619Y-46108952D01*
X130429238Y-46204190D01*
X130429238Y-46489904D01*
X130381619Y-46585142D01*
X130334000Y-46632761D01*
X130238761Y-46680380D01*
X130095904Y-46680380D01*
X130810190Y-46632761D02*
X130905428Y-46680380D01*
X131095904Y-46680380D01*
X131191142Y-46632761D01*
X131238761Y-46537523D01*
X131238761Y-46489904D01*
X131191142Y-46394666D01*
X131095904Y-46347047D01*
X130953047Y-46347047D01*
X130857809Y-46299428D01*
X130810190Y-46204190D01*
X130810190Y-46156571D01*
X130857809Y-46061333D01*
X130953047Y-46013714D01*
X131095904Y-46013714D01*
X131191142Y-46061333D01*
X131429238Y-46775619D02*
X132191142Y-46775619D01*
X132429238Y-46680380D02*
X132429238Y-45680380D01*
X132667333Y-45680380D01*
X132810190Y-45728000D01*
X132905428Y-45823238D01*
X132953047Y-45918476D01*
X133000666Y-46108952D01*
X133000666Y-46251809D01*
X132953047Y-46442285D01*
X132905428Y-46537523D01*
X132810190Y-46632761D01*
X132667333Y-46680380D01*
X132429238Y-46680380D01*
X133953047Y-46680380D02*
X133381619Y-46680380D01*
X133667333Y-46680380D02*
X133667333Y-45680380D01*
X133572095Y-45823238D01*
X133476857Y-45918476D01*
X133381619Y-45966095D01*
X134143523Y-46775619D02*
X134905428Y-46775619D01*
X135143523Y-46680380D02*
X135143523Y-46013714D01*
X135143523Y-46108952D02*
X135191142Y-46061333D01*
X135286380Y-46013714D01*
X135429238Y-46013714D01*
X135524476Y-46061333D01*
X135572095Y-46156571D01*
X135572095Y-46680380D01*
X135572095Y-46156571D02*
X135619714Y-46061333D01*
X135714952Y-46013714D01*
X135857809Y-46013714D01*
X135953047Y-46061333D01*
X136000666Y-46156571D01*
X136000666Y-46680380D01*
X136476857Y-46680380D02*
X136476857Y-46013714D01*
X136476857Y-45680380D02*
X136429238Y-45728000D01*
X136476857Y-45775619D01*
X136524476Y-45728000D01*
X136476857Y-45680380D01*
X136476857Y-45775619D01*
X136953047Y-46013714D02*
X136953047Y-46680380D01*
X136953047Y-46108952D02*
X137000666Y-46061333D01*
X137095904Y-46013714D01*
X137238761Y-46013714D01*
X137334000Y-46061333D01*
X137381619Y-46156571D01*
X137381619Y-46680380D01*
X137857809Y-46680380D02*
X137857809Y-46013714D01*
X137857809Y-45680380D02*
X137810190Y-45728000D01*
X137857809Y-45775619D01*
X137905428Y-45728000D01*
X137857809Y-45680380D01*
X137857809Y-45775619D01*
X147026476Y-59110571D02*
X147169333Y-59158190D01*
X147216952Y-59205809D01*
X147264571Y-59301047D01*
X147264571Y-59443904D01*
X147216952Y-59539142D01*
X147169333Y-59586761D01*
X147074095Y-59634380D01*
X146693142Y-59634380D01*
X146693142Y-58634380D01*
X147026476Y-58634380D01*
X147121714Y-58682000D01*
X147169333Y-58729619D01*
X147216952Y-58824857D01*
X147216952Y-58920095D01*
X147169333Y-59015333D01*
X147121714Y-59062952D01*
X147026476Y-59110571D01*
X146693142Y-59110571D01*
X147550285Y-58634380D02*
X148121714Y-58634380D01*
X147836000Y-59634380D02*
X147836000Y-58634380D01*
X148455047Y-59634380D02*
X148455047Y-58634380D01*
X149026476Y-59634380D01*
X149026476Y-58634380D01*
X149407428Y-58634380D02*
X150026476Y-58634380D01*
X149693142Y-59015333D01*
X149836000Y-59015333D01*
X149931238Y-59062952D01*
X149978857Y-59110571D01*
X150026476Y-59205809D01*
X150026476Y-59443904D01*
X149978857Y-59539142D01*
X149931238Y-59586761D01*
X149836000Y-59634380D01*
X149550285Y-59634380D01*
X149455047Y-59586761D01*
X149407428Y-59539142D01*
X151090476Y-59110571D02*
X151233333Y-59158190D01*
X151280952Y-59205809D01*
X151328571Y-59301047D01*
X151328571Y-59443904D01*
X151280952Y-59539142D01*
X151233333Y-59586761D01*
X151138095Y-59634380D01*
X150757142Y-59634380D01*
X150757142Y-58634380D01*
X151090476Y-58634380D01*
X151185714Y-58682000D01*
X151233333Y-58729619D01*
X151280952Y-58824857D01*
X151280952Y-58920095D01*
X151233333Y-59015333D01*
X151185714Y-59062952D01*
X151090476Y-59110571D01*
X150757142Y-59110571D01*
X151614285Y-58634380D02*
X152185714Y-58634380D01*
X151900000Y-59634380D02*
X151900000Y-58634380D01*
X152519047Y-59634380D02*
X152519047Y-58634380D01*
X153090476Y-59634380D01*
X153090476Y-58634380D01*
X153519047Y-58729619D02*
X153566666Y-58682000D01*
X153661904Y-58634380D01*
X153900000Y-58634380D01*
X153995238Y-58682000D01*
X154042857Y-58729619D01*
X154090476Y-58824857D01*
X154090476Y-58920095D01*
X154042857Y-59062952D01*
X153471428Y-59634380D01*
X154090476Y-59634380D01*
X155154476Y-59110571D02*
X155297333Y-59158190D01*
X155344952Y-59205809D01*
X155392571Y-59301047D01*
X155392571Y-59443904D01*
X155344952Y-59539142D01*
X155297333Y-59586761D01*
X155202095Y-59634380D01*
X154821142Y-59634380D01*
X154821142Y-58634380D01*
X155154476Y-58634380D01*
X155249714Y-58682000D01*
X155297333Y-58729619D01*
X155344952Y-58824857D01*
X155344952Y-58920095D01*
X155297333Y-59015333D01*
X155249714Y-59062952D01*
X155154476Y-59110571D01*
X154821142Y-59110571D01*
X155678285Y-58634380D02*
X156249714Y-58634380D01*
X155964000Y-59634380D02*
X155964000Y-58634380D01*
X156583047Y-59634380D02*
X156583047Y-58634380D01*
X157154476Y-59634380D01*
X157154476Y-58634380D01*
X158154476Y-59634380D02*
X157583047Y-59634380D01*
X157868761Y-59634380D02*
X157868761Y-58634380D01*
X157773523Y-58777238D01*
X157678285Y-58872476D01*
X157583047Y-58920095D01*
X156662380Y-34028000D02*
X155662380Y-34028000D01*
X156662380Y-32980380D02*
X156186190Y-33313714D01*
X156662380Y-33551809D02*
X155662380Y-33551809D01*
X155662380Y-33170857D01*
X155710000Y-33075619D01*
X155757619Y-33028000D01*
X155852857Y-32980380D01*
X155995714Y-32980380D01*
X156090952Y-33028000D01*
X156138571Y-33075619D01*
X156186190Y-33170857D01*
X156186190Y-33551809D01*
X113069809Y-32456380D02*
X113069809Y-31456380D01*
X113498380Y-31551619D02*
X113546000Y-31504000D01*
X113641238Y-31456380D01*
X113879333Y-31456380D01*
X113974571Y-31504000D01*
X114022190Y-31551619D01*
X114069809Y-31646857D01*
X114069809Y-31742095D01*
X114022190Y-31884952D01*
X113450761Y-32456380D01*
X114069809Y-32456380D01*
X115069809Y-32361142D02*
X115022190Y-32408761D01*
X114879333Y-32456380D01*
X114784095Y-32456380D01*
X114641238Y-32408761D01*
X114546000Y-32313523D01*
X114498380Y-32218285D01*
X114450761Y-32027809D01*
X114450761Y-31884952D01*
X114498380Y-31694476D01*
X114546000Y-31599238D01*
X114641238Y-31504000D01*
X114784095Y-31456380D01*
X114879333Y-31456380D01*
X115022190Y-31504000D01*
X115069809Y-31551619D01*
X156376666Y-39068285D02*
X156376666Y-38592095D01*
X156662380Y-39163523D02*
X155662380Y-38830190D01*
X156662380Y-38496857D01*
X155662380Y-37973047D02*
X155662380Y-37877809D01*
X155710000Y-37782571D01*
X155757619Y-37734952D01*
X155852857Y-37687333D01*
X156043333Y-37639714D01*
X156281428Y-37639714D01*
X156471904Y-37687333D01*
X156567142Y-37734952D01*
X156614761Y-37782571D01*
X156662380Y-37877809D01*
X156662380Y-37973047D01*
X156614761Y-38068285D01*
X156567142Y-38115904D01*
X156471904Y-38163523D01*
X156281428Y-38211142D01*
X156043333Y-38211142D01*
X155852857Y-38163523D01*
X155757619Y-38115904D01*
X155710000Y-38068285D01*
X155662380Y-37973047D01*
X112164952Y-52268380D02*
X111688761Y-52268380D01*
X111688761Y-51268380D01*
X112498285Y-51744571D02*
X112831619Y-51744571D01*
X112974476Y-52268380D02*
X112498285Y-52268380D01*
X112498285Y-51268380D01*
X112974476Y-51268380D01*
X113403047Y-52268380D02*
X113403047Y-51268380D01*
X113641142Y-51268380D01*
X113784000Y-51316000D01*
X113879238Y-51411238D01*
X113926857Y-51506476D01*
X113974476Y-51696952D01*
X113974476Y-51839809D01*
X113926857Y-52030285D01*
X113879238Y-52125523D01*
X113784000Y-52220761D01*
X113641142Y-52268380D01*
X113403047Y-52268380D01*
X114355428Y-52220761D02*
X114498285Y-52268380D01*
X114736380Y-52268380D01*
X114831619Y-52220761D01*
X114879238Y-52173142D01*
X114926857Y-52077904D01*
X114926857Y-51982666D01*
X114879238Y-51887428D01*
X114831619Y-51839809D01*
X114736380Y-51792190D01*
X114545904Y-51744571D01*
X114450666Y-51696952D01*
X114403047Y-51649333D01*
X114355428Y-51554095D01*
X114355428Y-51458857D01*
X114403047Y-51363619D01*
X114450666Y-51316000D01*
X114545904Y-51268380D01*
X114784000Y-51268380D01*
X114926857Y-51316000D01*
X115379523Y-43648380D02*
X114903333Y-43648380D01*
X114855714Y-44124571D01*
X114903333Y-44076952D01*
X114998571Y-44029333D01*
X115236666Y-44029333D01*
X115331904Y-44076952D01*
X115379523Y-44124571D01*
X115427142Y-44219809D01*
X115427142Y-44457904D01*
X115379523Y-44553142D01*
X115331904Y-44600761D01*
X115236666Y-44648380D01*
X114998571Y-44648380D01*
X114903333Y-44600761D01*
X114855714Y-44553142D01*
X115712857Y-43648380D02*
X116046190Y-44648380D01*
X116379523Y-43648380D01*
X115316095Y-49284000D02*
X115220857Y-49236380D01*
X115078000Y-49236380D01*
X114935142Y-49284000D01*
X114839904Y-49379238D01*
X114792285Y-49474476D01*
X114744666Y-49664952D01*
X114744666Y-49807809D01*
X114792285Y-49998285D01*
X114839904Y-50093523D01*
X114935142Y-50188761D01*
X115078000Y-50236380D01*
X115173238Y-50236380D01*
X115316095Y-50188761D01*
X115363714Y-50141142D01*
X115363714Y-49807809D01*
X115173238Y-49807809D01*
X115792285Y-50236380D02*
X115792285Y-49236380D01*
X116363714Y-50236380D01*
X116363714Y-49236380D01*
X116839904Y-50236380D02*
X116839904Y-49236380D01*
X117078000Y-49236380D01*
X117220857Y-49284000D01*
X117316095Y-49379238D01*
X117363714Y-49474476D01*
X117411333Y-49664952D01*
X117411333Y-49807809D01*
X117363714Y-49998285D01*
X117316095Y-50093523D01*
X117220857Y-50188761D01*
X117078000Y-50236380D01*
X116839904Y-50236380D01*
X115403333Y-47442380D02*
X115070000Y-46966190D01*
X114831904Y-47442380D02*
X114831904Y-46442380D01*
X115212857Y-46442380D01*
X115308095Y-46490000D01*
X115355714Y-46537619D01*
X115403333Y-46632857D01*
X115403333Y-46775714D01*
X115355714Y-46870952D01*
X115308095Y-46918571D01*
X115212857Y-46966190D01*
X114831904Y-46966190D01*
X115736666Y-46442380D02*
X116403333Y-47442380D01*
X116403333Y-46442380D02*
X115736666Y-47442380D01*
M02*
