G04 #@! TF.GenerationSoftware,KiCad,Pcbnew,(5.1.4)-1*
G04 #@! TF.CreationDate,2020-01-16T18:32:51+01:00*
G04 #@! TF.ProjectId,lumos-cache,6c756d6f-732d-4636-9163-68652e6b6963,rev?*
G04 #@! TF.SameCoordinates,Original*
G04 #@! TF.FileFunction,Copper,L1,Top*
G04 #@! TF.FilePolarity,Positive*
%FSLAX46Y46*%
G04 Gerber Fmt 4.6, Leading zero omitted, Abs format (unit mm)*
G04 Created by KiCad (PCBNEW (5.1.4)-1) date 2020-01-16 18:32:51*
%MOMM*%
%LPD*%
G04 APERTURE LIST*
%ADD10O,1.700000X1.700000*%
%ADD11R,1.700000X1.700000*%
%ADD12O,1.600000X1.600000*%
%ADD13C,1.600000*%
%ADD14O,2.000000X1.600000*%
%ADD15R,2.000000X2.000000*%
%ADD16R,2.500000X1.500000*%
%ADD17C,0.800000*%
%ADD18C,0.250000*%
%ADD19C,0.500000*%
%ADD20C,0.254000*%
G04 APERTURE END LIST*
D10*
X148082000Y-52324000D03*
X148082000Y-49784000D03*
X148082000Y-47244000D03*
D11*
X148082000Y-44704000D03*
D12*
X117602000Y-64770000D03*
D13*
X117602000Y-52070000D03*
D14*
X121412000Y-57658000D03*
X121412000Y-55118000D03*
X121412000Y-52578000D03*
X121412000Y-50038000D03*
X121412000Y-47498000D03*
X121412000Y-44958000D03*
X121412000Y-42418000D03*
X121412000Y-39878000D03*
X144272000Y-39878000D03*
X144272000Y-42418000D03*
X144272000Y-44958000D03*
X144272000Y-47498000D03*
X144272000Y-50038000D03*
X144272000Y-52578000D03*
D15*
X144272000Y-57658000D03*
D14*
X144272000Y-55118000D03*
D10*
X148336000Y-61722000D03*
D11*
X148336000Y-64262000D03*
D10*
X152400000Y-61722000D03*
D11*
X152400000Y-64262000D03*
D10*
X156464000Y-61722000D03*
D11*
X156464000Y-64262000D03*
D10*
X148336000Y-33274000D03*
X150876000Y-33274000D03*
D11*
X153416000Y-33274000D03*
D10*
X117602000Y-33274000D03*
X117602000Y-35814000D03*
X117602000Y-38354000D03*
D11*
X117602000Y-40894000D03*
D10*
X148336000Y-38354000D03*
X150876000Y-38354000D03*
D11*
X153416000Y-38354000D03*
D16*
X113030000Y-46990000D03*
X113030000Y-49784000D03*
X113030000Y-44196000D03*
D17*
X113030000Y-42418000D03*
X119634000Y-42926000D03*
D18*
X117602000Y-50938630D02*
X117602000Y-52070000D01*
X117602000Y-50062000D02*
X117602000Y-50938630D01*
X114530000Y-46990000D02*
X117602000Y-50062000D01*
X113030000Y-46990000D02*
X114530000Y-46990000D01*
D19*
X113030000Y-42418000D02*
X113030000Y-44196000D01*
D18*
X150876000Y-35814000D02*
X150876000Y-33274000D01*
X148336000Y-38354000D02*
X150876000Y-35814000D01*
X150876000Y-38354000D02*
X150876000Y-54102000D01*
X149860000Y-55118000D02*
X144272000Y-55118000D01*
X150876000Y-54102000D02*
X149860000Y-55118000D01*
X121212000Y-50038000D02*
X121412000Y-50038000D01*
X119634000Y-48460000D02*
X121212000Y-50038000D01*
X119634000Y-42926000D02*
X119634000Y-48460000D01*
X148336000Y-33274000D02*
X146050000Y-35560000D01*
X144472000Y-44958000D02*
X144272000Y-44958000D01*
X146050000Y-43380000D02*
X144472000Y-44958000D01*
X146050000Y-35560000D02*
X146050000Y-43380000D01*
X121612000Y-47498000D02*
X140662000Y-66548000D01*
X121412000Y-47498000D02*
X121612000Y-47498000D01*
X153924000Y-64262000D02*
X156464000Y-61722000D01*
X153924000Y-66548000D02*
X153924000Y-64262000D01*
X140662000Y-66548000D02*
X153924000Y-66548000D01*
X152400000Y-61722000D02*
X151130000Y-61722000D01*
X122662000Y-44958000D02*
X143490000Y-65786000D01*
X121412000Y-44958000D02*
X122662000Y-44958000D01*
X150622000Y-64261002D02*
X150622000Y-62230000D01*
X149097002Y-65786000D02*
X150622000Y-64261002D01*
X143490000Y-65786000D02*
X149097002Y-65786000D01*
X151130000Y-61722000D02*
X150622000Y-62230000D01*
X144072000Y-50038000D02*
X144272000Y-50038000D01*
X148336000Y-61722000D02*
X147133919Y-61722000D01*
X147133919Y-61722000D02*
X145355919Y-59944000D01*
X145355919Y-59944000D02*
X143256000Y-59944000D01*
X143256000Y-59944000D02*
X141224000Y-57912000D01*
X141224000Y-57912000D02*
X141224000Y-52886000D01*
X141224000Y-52886000D02*
X144072000Y-50038000D01*
X121612000Y-55118000D02*
X121412000Y-55118000D01*
X123190000Y-56696000D02*
X121612000Y-55118000D01*
X117602000Y-64770000D02*
X123190000Y-59182000D01*
X123190000Y-59182000D02*
X123190000Y-56696000D01*
D20*
G36*
X160490540Y-31672397D02*
G01*
X160698833Y-31735285D01*
X160890937Y-31837428D01*
X161059553Y-31974947D01*
X161198241Y-32142593D01*
X161301726Y-32333985D01*
X161366066Y-32541835D01*
X161392000Y-32788581D01*
X161392001Y-66515713D01*
X161372441Y-66715204D01*
X161323881Y-66876040D01*
X161245008Y-67024378D01*
X161138822Y-67154575D01*
X161009372Y-67261665D01*
X160861586Y-67341572D01*
X160701094Y-67391253D01*
X160503695Y-67412000D01*
X113062279Y-67412000D01*
X112813460Y-67387603D01*
X112605170Y-67324717D01*
X112413062Y-67222572D01*
X112244446Y-67085052D01*
X112105760Y-66917409D01*
X112002275Y-66726017D01*
X111937934Y-66518166D01*
X111912000Y-66271419D01*
X111912000Y-64770000D01*
X116160057Y-64770000D01*
X116187764Y-65051309D01*
X116269818Y-65321808D01*
X116403068Y-65571101D01*
X116582392Y-65789608D01*
X116800899Y-65968932D01*
X117050192Y-66102182D01*
X117320691Y-66184236D01*
X117531508Y-66205000D01*
X117672492Y-66205000D01*
X117883309Y-66184236D01*
X118153808Y-66102182D01*
X118403101Y-65968932D01*
X118621608Y-65789608D01*
X118800932Y-65571101D01*
X118934182Y-65321808D01*
X119016236Y-65051309D01*
X119043943Y-64770000D01*
X119016236Y-64488691D01*
X119002708Y-64444094D01*
X123701009Y-59745794D01*
X123730001Y-59722001D01*
X123753795Y-59693008D01*
X123753799Y-59693004D01*
X123824973Y-59606277D01*
X123824974Y-59606276D01*
X123895546Y-59474247D01*
X123939003Y-59330986D01*
X123950000Y-59219333D01*
X123950000Y-59219324D01*
X123953676Y-59182001D01*
X123950000Y-59144678D01*
X123950000Y-56733322D01*
X123953676Y-56695999D01*
X123950000Y-56658677D01*
X123950000Y-56658667D01*
X123939003Y-56547014D01*
X123895546Y-56403753D01*
X123824974Y-56271723D01*
X123753799Y-56184997D01*
X123730001Y-56155999D01*
X123701003Y-56132201D01*
X123012708Y-55443906D01*
X123026236Y-55399309D01*
X123053943Y-55118000D01*
X123026236Y-54836691D01*
X122944182Y-54566192D01*
X122810932Y-54316899D01*
X122631608Y-54098392D01*
X122413101Y-53919068D01*
X122280142Y-53848000D01*
X122413101Y-53776932D01*
X122631608Y-53597608D01*
X122810932Y-53379101D01*
X122944182Y-53129808D01*
X123026236Y-52859309D01*
X123053943Y-52578000D01*
X123026236Y-52296691D01*
X122944182Y-52026192D01*
X122810932Y-51776899D01*
X122631608Y-51558392D01*
X122413101Y-51379068D01*
X122280142Y-51308000D01*
X122413101Y-51236932D01*
X122631608Y-51057608D01*
X122810932Y-50839101D01*
X122944182Y-50589808D01*
X123026236Y-50319309D01*
X123053943Y-50038000D01*
X123051402Y-50012203D01*
X140098201Y-67059003D01*
X140121999Y-67088001D01*
X140237724Y-67182974D01*
X140369753Y-67253546D01*
X140513014Y-67297003D01*
X140624667Y-67308000D01*
X140624676Y-67308000D01*
X140661999Y-67311676D01*
X140699322Y-67308000D01*
X153886667Y-67308000D01*
X153924000Y-67311677D01*
X153961333Y-67308000D01*
X154072986Y-67297003D01*
X154216247Y-67253546D01*
X154348276Y-67182974D01*
X154464001Y-67088001D01*
X154558974Y-66972276D01*
X154629546Y-66840247D01*
X154673003Y-66696986D01*
X154687677Y-66548000D01*
X154684000Y-66510667D01*
X154684000Y-64576801D01*
X154979000Y-64281802D01*
X154979000Y-64389002D01*
X155137748Y-64389002D01*
X154979000Y-64547750D01*
X154975928Y-65112000D01*
X154988188Y-65236482D01*
X155024498Y-65356180D01*
X155083463Y-65466494D01*
X155162815Y-65563185D01*
X155259506Y-65642537D01*
X155369820Y-65701502D01*
X155489518Y-65737812D01*
X155614000Y-65750072D01*
X156178250Y-65747000D01*
X156337000Y-65588250D01*
X156337000Y-64389000D01*
X156591000Y-64389000D01*
X156591000Y-65588250D01*
X156749750Y-65747000D01*
X157314000Y-65750072D01*
X157438482Y-65737812D01*
X157558180Y-65701502D01*
X157668494Y-65642537D01*
X157765185Y-65563185D01*
X157844537Y-65466494D01*
X157903502Y-65356180D01*
X157939812Y-65236482D01*
X157952072Y-65112000D01*
X157949000Y-64547750D01*
X157790250Y-64389000D01*
X156591000Y-64389000D01*
X156337000Y-64389000D01*
X156317000Y-64389000D01*
X156317000Y-64135000D01*
X156337000Y-64135000D01*
X156337000Y-64115000D01*
X156591000Y-64115000D01*
X156591000Y-64135000D01*
X157790250Y-64135000D01*
X157949000Y-63976250D01*
X157952072Y-63412000D01*
X157939812Y-63287518D01*
X157903502Y-63167820D01*
X157844537Y-63057506D01*
X157765185Y-62960815D01*
X157668494Y-62881463D01*
X157558180Y-62822498D01*
X157489313Y-62801607D01*
X157519134Y-62777134D01*
X157704706Y-62551014D01*
X157842599Y-62293034D01*
X157927513Y-62013111D01*
X157956185Y-61722000D01*
X157927513Y-61430889D01*
X157842599Y-61150966D01*
X157704706Y-60892986D01*
X157519134Y-60666866D01*
X157293014Y-60481294D01*
X157035034Y-60343401D01*
X156755111Y-60258487D01*
X156536950Y-60237000D01*
X156391050Y-60237000D01*
X156172889Y-60258487D01*
X155892966Y-60343401D01*
X155634986Y-60481294D01*
X155408866Y-60666866D01*
X155223294Y-60892986D01*
X155085401Y-61150966D01*
X155000487Y-61430889D01*
X154971815Y-61722000D01*
X155000487Y-62013111D01*
X155023203Y-62087995D01*
X153863679Y-63247520D01*
X153839502Y-63167820D01*
X153780537Y-63057506D01*
X153701185Y-62960815D01*
X153604494Y-62881463D01*
X153494180Y-62822498D01*
X153425313Y-62801607D01*
X153455134Y-62777134D01*
X153640706Y-62551014D01*
X153778599Y-62293034D01*
X153863513Y-62013111D01*
X153892185Y-61722000D01*
X153863513Y-61430889D01*
X153778599Y-61150966D01*
X153640706Y-60892986D01*
X153455134Y-60666866D01*
X153229014Y-60481294D01*
X152971034Y-60343401D01*
X152691111Y-60258487D01*
X152472950Y-60237000D01*
X152327050Y-60237000D01*
X152108889Y-60258487D01*
X151828966Y-60343401D01*
X151570986Y-60481294D01*
X151344866Y-60666866D01*
X151159294Y-60892986D01*
X151124057Y-60958909D01*
X151092676Y-60962000D01*
X151092667Y-60962000D01*
X150981014Y-60972997D01*
X150837753Y-61016454D01*
X150705724Y-61087026D01*
X150589999Y-61181999D01*
X150566201Y-61210997D01*
X150110998Y-61666201D01*
X150082000Y-61689999D01*
X150058202Y-61718997D01*
X150058201Y-61718998D01*
X149987026Y-61805724D01*
X149916454Y-61937754D01*
X149872998Y-62081015D01*
X149858324Y-62230000D01*
X149862001Y-62267332D01*
X149862000Y-63946200D01*
X149673202Y-64134998D01*
X149662252Y-64134998D01*
X149821000Y-63976250D01*
X149824072Y-63412000D01*
X149811812Y-63287518D01*
X149775502Y-63167820D01*
X149716537Y-63057506D01*
X149637185Y-62960815D01*
X149540494Y-62881463D01*
X149430180Y-62822498D01*
X149361313Y-62801607D01*
X149391134Y-62777134D01*
X149576706Y-62551014D01*
X149714599Y-62293034D01*
X149799513Y-62013111D01*
X149828185Y-61722000D01*
X149799513Y-61430889D01*
X149714599Y-61150966D01*
X149576706Y-60892986D01*
X149391134Y-60666866D01*
X149165014Y-60481294D01*
X148907034Y-60343401D01*
X148627111Y-60258487D01*
X148408950Y-60237000D01*
X148263050Y-60237000D01*
X148044889Y-60258487D01*
X147764966Y-60343401D01*
X147506986Y-60481294D01*
X147280866Y-60666866D01*
X147223494Y-60736774D01*
X145919723Y-59433003D01*
X145895920Y-59403999D01*
X145780195Y-59309026D01*
X145648166Y-59238454D01*
X145574763Y-59216188D01*
X145626494Y-59188537D01*
X145723185Y-59109185D01*
X145802537Y-59012494D01*
X145861502Y-58902180D01*
X145897812Y-58782482D01*
X145910072Y-58658000D01*
X145910072Y-56658000D01*
X145897812Y-56533518D01*
X145861502Y-56413820D01*
X145802537Y-56303506D01*
X145723185Y-56206815D01*
X145626494Y-56127463D01*
X145538524Y-56080441D01*
X145670932Y-55919101D01*
X145692901Y-55878000D01*
X149822678Y-55878000D01*
X149860000Y-55881676D01*
X149897322Y-55878000D01*
X149897333Y-55878000D01*
X150008986Y-55867003D01*
X150152247Y-55823546D01*
X150284276Y-55752974D01*
X150400001Y-55658001D01*
X150423804Y-55628998D01*
X151387003Y-54665799D01*
X151416001Y-54642001D01*
X151488057Y-54554201D01*
X151510974Y-54526277D01*
X151581546Y-54394247D01*
X151593656Y-54354324D01*
X151625003Y-54250986D01*
X151636000Y-54139333D01*
X151636000Y-54139323D01*
X151639676Y-54102000D01*
X151636000Y-54064678D01*
X151636000Y-39631595D01*
X151705014Y-39594706D01*
X151931134Y-39409134D01*
X151955607Y-39379313D01*
X151976498Y-39448180D01*
X152035463Y-39558494D01*
X152114815Y-39655185D01*
X152211506Y-39734537D01*
X152321820Y-39793502D01*
X152441518Y-39829812D01*
X152566000Y-39842072D01*
X153130250Y-39839000D01*
X153289000Y-39680250D01*
X153289000Y-38481000D01*
X153543000Y-38481000D01*
X153543000Y-39680250D01*
X153701750Y-39839000D01*
X154266000Y-39842072D01*
X154390482Y-39829812D01*
X154510180Y-39793502D01*
X154620494Y-39734537D01*
X154717185Y-39655185D01*
X154796537Y-39558494D01*
X154855502Y-39448180D01*
X154891812Y-39328482D01*
X154904072Y-39204000D01*
X154901000Y-38639750D01*
X154742250Y-38481000D01*
X153543000Y-38481000D01*
X153289000Y-38481000D01*
X153269000Y-38481000D01*
X153269000Y-38227000D01*
X153289000Y-38227000D01*
X153289000Y-37027750D01*
X153543000Y-37027750D01*
X153543000Y-38227000D01*
X154742250Y-38227000D01*
X154901000Y-38068250D01*
X154904072Y-37504000D01*
X154891812Y-37379518D01*
X154855502Y-37259820D01*
X154796537Y-37149506D01*
X154717185Y-37052815D01*
X154620494Y-36973463D01*
X154510180Y-36914498D01*
X154390482Y-36878188D01*
X154266000Y-36865928D01*
X153701750Y-36869000D01*
X153543000Y-37027750D01*
X153289000Y-37027750D01*
X153130250Y-36869000D01*
X152566000Y-36865928D01*
X152441518Y-36878188D01*
X152321820Y-36914498D01*
X152211506Y-36973463D01*
X152114815Y-37052815D01*
X152035463Y-37149506D01*
X151976498Y-37259820D01*
X151955607Y-37328687D01*
X151931134Y-37298866D01*
X151705014Y-37113294D01*
X151447034Y-36975401D01*
X151167111Y-36890487D01*
X150948950Y-36869000D01*
X150895803Y-36869000D01*
X151387009Y-36377794D01*
X151416001Y-36354001D01*
X151439795Y-36325008D01*
X151439799Y-36325004D01*
X151510973Y-36238277D01*
X151510974Y-36238276D01*
X151581546Y-36106247D01*
X151625003Y-35962986D01*
X151636000Y-35851333D01*
X151636000Y-35851324D01*
X151639676Y-35814001D01*
X151636000Y-35776678D01*
X151636000Y-34551595D01*
X151705014Y-34514706D01*
X151931134Y-34329134D01*
X151955607Y-34299313D01*
X151976498Y-34368180D01*
X152035463Y-34478494D01*
X152114815Y-34575185D01*
X152211506Y-34654537D01*
X152321820Y-34713502D01*
X152441518Y-34749812D01*
X152566000Y-34762072D01*
X153130250Y-34759000D01*
X153289000Y-34600250D01*
X153289000Y-33401000D01*
X153543000Y-33401000D01*
X153543000Y-34600250D01*
X153701750Y-34759000D01*
X154266000Y-34762072D01*
X154390482Y-34749812D01*
X154510180Y-34713502D01*
X154620494Y-34654537D01*
X154717185Y-34575185D01*
X154796537Y-34478494D01*
X154855502Y-34368180D01*
X154891812Y-34248482D01*
X154904072Y-34124000D01*
X154901000Y-33559750D01*
X154742250Y-33401000D01*
X153543000Y-33401000D01*
X153289000Y-33401000D01*
X153269000Y-33401000D01*
X153269000Y-33147000D01*
X153289000Y-33147000D01*
X153289000Y-31947750D01*
X153543000Y-31947750D01*
X153543000Y-33147000D01*
X154742250Y-33147000D01*
X154901000Y-32988250D01*
X154904072Y-32424000D01*
X154891812Y-32299518D01*
X154855502Y-32179820D01*
X154796537Y-32069506D01*
X154717185Y-31972815D01*
X154620494Y-31893463D01*
X154510180Y-31834498D01*
X154390482Y-31798188D01*
X154266000Y-31785928D01*
X153701750Y-31789000D01*
X153543000Y-31947750D01*
X153289000Y-31947750D01*
X153130250Y-31789000D01*
X152566000Y-31785928D01*
X152441518Y-31798188D01*
X152321820Y-31834498D01*
X152211506Y-31893463D01*
X152114815Y-31972815D01*
X152035463Y-32069506D01*
X151976498Y-32179820D01*
X151955607Y-32248687D01*
X151931134Y-32218866D01*
X151705014Y-32033294D01*
X151447034Y-31895401D01*
X151167111Y-31810487D01*
X150948950Y-31789000D01*
X150803050Y-31789000D01*
X150584889Y-31810487D01*
X150304966Y-31895401D01*
X150046986Y-32033294D01*
X149820866Y-32218866D01*
X149635294Y-32444986D01*
X149606000Y-32499791D01*
X149576706Y-32444986D01*
X149391134Y-32218866D01*
X149165014Y-32033294D01*
X148907034Y-31895401D01*
X148627111Y-31810487D01*
X148408950Y-31789000D01*
X148263050Y-31789000D01*
X148044889Y-31810487D01*
X147764966Y-31895401D01*
X147506986Y-32033294D01*
X147280866Y-32218866D01*
X147095294Y-32444986D01*
X146957401Y-32702966D01*
X146872487Y-32982889D01*
X146843815Y-33274000D01*
X146872487Y-33565111D01*
X146895203Y-33639995D01*
X145539003Y-34996196D01*
X145509999Y-35019999D01*
X145473070Y-35064998D01*
X145415026Y-35135724D01*
X145391880Y-35179027D01*
X145344454Y-35267754D01*
X145300997Y-35411015D01*
X145290000Y-35522668D01*
X145290000Y-35522678D01*
X145286324Y-35560000D01*
X145290000Y-35597322D01*
X145290000Y-38692937D01*
X145273101Y-38679068D01*
X145023808Y-38545818D01*
X144753309Y-38463764D01*
X144542492Y-38443000D01*
X144001508Y-38443000D01*
X143790691Y-38463764D01*
X143520192Y-38545818D01*
X143270899Y-38679068D01*
X143052392Y-38858392D01*
X142873068Y-39076899D01*
X142739818Y-39326192D01*
X142657764Y-39596691D01*
X142630057Y-39878000D01*
X142657764Y-40159309D01*
X142739818Y-40429808D01*
X142873068Y-40679101D01*
X143052392Y-40897608D01*
X143270899Y-41076932D01*
X143403858Y-41148000D01*
X143270899Y-41219068D01*
X143052392Y-41398392D01*
X142873068Y-41616899D01*
X142739818Y-41866192D01*
X142657764Y-42136691D01*
X142630057Y-42418000D01*
X142657764Y-42699309D01*
X142739818Y-42969808D01*
X142873068Y-43219101D01*
X143052392Y-43437608D01*
X143270899Y-43616932D01*
X143403858Y-43688000D01*
X143270899Y-43759068D01*
X143052392Y-43938392D01*
X142873068Y-44156899D01*
X142739818Y-44406192D01*
X142657764Y-44676691D01*
X142630057Y-44958000D01*
X142657764Y-45239309D01*
X142739818Y-45509808D01*
X142873068Y-45759101D01*
X143052392Y-45977608D01*
X143270899Y-46156932D01*
X143403858Y-46228000D01*
X143270899Y-46299068D01*
X143052392Y-46478392D01*
X142873068Y-46696899D01*
X142739818Y-46946192D01*
X142657764Y-47216691D01*
X142630057Y-47498000D01*
X142657764Y-47779309D01*
X142739818Y-48049808D01*
X142873068Y-48299101D01*
X143052392Y-48517608D01*
X143270899Y-48696932D01*
X143403858Y-48768000D01*
X143270899Y-48839068D01*
X143052392Y-49018392D01*
X142873068Y-49236899D01*
X142739818Y-49486192D01*
X142657764Y-49756691D01*
X142630057Y-50038000D01*
X142657764Y-50319309D01*
X142671292Y-50363906D01*
X140712998Y-52322201D01*
X140684000Y-52345999D01*
X140660202Y-52374997D01*
X140660201Y-52374998D01*
X140589026Y-52461724D01*
X140518454Y-52593754D01*
X140474998Y-52737015D01*
X140460324Y-52886000D01*
X140464001Y-52923332D01*
X140464000Y-57874677D01*
X140460324Y-57912000D01*
X140464000Y-57949322D01*
X140464000Y-57949332D01*
X140474997Y-58060985D01*
X140518454Y-58204246D01*
X140589026Y-58336276D01*
X140628871Y-58384826D01*
X140683999Y-58452001D01*
X140713003Y-58475804D01*
X142692200Y-60455002D01*
X142715999Y-60484001D01*
X142744997Y-60507799D01*
X142831723Y-60578974D01*
X142963753Y-60649546D01*
X143107014Y-60693003D01*
X143218667Y-60704000D01*
X143218677Y-60704000D01*
X143256000Y-60707676D01*
X143293323Y-60704000D01*
X145041118Y-60704000D01*
X146570120Y-62233003D01*
X146593918Y-62262001D01*
X146709643Y-62356974D01*
X146841672Y-62427546D01*
X146984933Y-62471003D01*
X147056284Y-62478031D01*
X147095294Y-62551014D01*
X147280866Y-62777134D01*
X147310687Y-62801607D01*
X147241820Y-62822498D01*
X147131506Y-62881463D01*
X147034815Y-62960815D01*
X146955463Y-63057506D01*
X146896498Y-63167820D01*
X146860188Y-63287518D01*
X146847928Y-63412000D01*
X146851000Y-63976250D01*
X147009750Y-64135000D01*
X148209000Y-64135000D01*
X148209000Y-64115000D01*
X148463000Y-64115000D01*
X148463000Y-64135000D01*
X148483000Y-64135000D01*
X148483000Y-64389000D01*
X148463000Y-64389000D01*
X148463000Y-64409000D01*
X148209000Y-64409000D01*
X148209000Y-64389000D01*
X147009750Y-64389000D01*
X146851000Y-64547750D01*
X146848396Y-65026000D01*
X143804802Y-65026000D01*
X123225804Y-44447003D01*
X123202001Y-44417999D01*
X123086276Y-44323026D01*
X122954247Y-44252454D01*
X122844157Y-44219059D01*
X122810932Y-44156899D01*
X122631608Y-43938392D01*
X122413101Y-43759068D01*
X122283655Y-43689878D01*
X122301227Y-43682430D01*
X122534662Y-43523673D01*
X122732639Y-43322425D01*
X122887551Y-43086421D01*
X122993444Y-42824730D01*
X123003904Y-42767039D01*
X122881915Y-42545000D01*
X121539000Y-42545000D01*
X121539000Y-42565000D01*
X121285000Y-42565000D01*
X121285000Y-42545000D01*
X121265000Y-42545000D01*
X121265000Y-42291000D01*
X121285000Y-42291000D01*
X121285000Y-42271000D01*
X121539000Y-42271000D01*
X121539000Y-42291000D01*
X122881915Y-42291000D01*
X123003904Y-42068961D01*
X122993444Y-42011270D01*
X122887551Y-41749579D01*
X122732639Y-41513575D01*
X122534662Y-41312327D01*
X122301227Y-41153570D01*
X122283655Y-41146122D01*
X122413101Y-41076932D01*
X122631608Y-40897608D01*
X122810932Y-40679101D01*
X122944182Y-40429808D01*
X123026236Y-40159309D01*
X123053943Y-39878000D01*
X123026236Y-39596691D01*
X122944182Y-39326192D01*
X122810932Y-39076899D01*
X122631608Y-38858392D01*
X122413101Y-38679068D01*
X122163808Y-38545818D01*
X121893309Y-38463764D01*
X121682492Y-38443000D01*
X121141508Y-38443000D01*
X120930691Y-38463764D01*
X120660192Y-38545818D01*
X120410899Y-38679068D01*
X120192392Y-38858392D01*
X120013068Y-39076899D01*
X119879818Y-39326192D01*
X119797764Y-39596691D01*
X119770057Y-39878000D01*
X119797764Y-40159309D01*
X119879818Y-40429808D01*
X120013068Y-40679101D01*
X120192392Y-40897608D01*
X120410899Y-41076932D01*
X120540345Y-41146122D01*
X120522773Y-41153570D01*
X120289338Y-41312327D01*
X120091361Y-41513575D01*
X119936449Y-41749579D01*
X119868549Y-41917378D01*
X119735939Y-41891000D01*
X119532061Y-41891000D01*
X119332102Y-41930774D01*
X119143744Y-42008795D01*
X118974226Y-42122063D01*
X118912709Y-42183580D01*
X118982537Y-42098494D01*
X119041502Y-41988180D01*
X119077812Y-41868482D01*
X119090072Y-41744000D01*
X119087000Y-41179750D01*
X118928250Y-41021000D01*
X117729000Y-41021000D01*
X117729000Y-42220250D01*
X117887750Y-42379000D01*
X118452000Y-42382072D01*
X118576482Y-42369812D01*
X118696180Y-42333502D01*
X118806494Y-42274537D01*
X118891580Y-42204709D01*
X118830063Y-42266226D01*
X118716795Y-42435744D01*
X118638774Y-42624102D01*
X118599000Y-42824061D01*
X118599000Y-43027939D01*
X118638774Y-43227898D01*
X118716795Y-43416256D01*
X118830063Y-43585774D01*
X118874000Y-43629711D01*
X118874001Y-48422668D01*
X118870324Y-48460000D01*
X118874001Y-48497333D01*
X118884998Y-48608986D01*
X118889481Y-48623764D01*
X118928454Y-48752246D01*
X118999026Y-48884276D01*
X119057057Y-48954986D01*
X119094000Y-49000001D01*
X119122998Y-49023799D01*
X119811292Y-49712094D01*
X119797764Y-49756691D01*
X119770057Y-50038000D01*
X119797764Y-50319309D01*
X119879818Y-50589808D01*
X120013068Y-50839101D01*
X120192392Y-51057608D01*
X120410899Y-51236932D01*
X120543858Y-51308000D01*
X120410899Y-51379068D01*
X120192392Y-51558392D01*
X120013068Y-51776899D01*
X119879818Y-52026192D01*
X119797764Y-52296691D01*
X119770057Y-52578000D01*
X119797764Y-52859309D01*
X119879818Y-53129808D01*
X120013068Y-53379101D01*
X120192392Y-53597608D01*
X120410899Y-53776932D01*
X120543858Y-53848000D01*
X120410899Y-53919068D01*
X120192392Y-54098392D01*
X120013068Y-54316899D01*
X119879818Y-54566192D01*
X119797764Y-54836691D01*
X119770057Y-55118000D01*
X119797764Y-55399309D01*
X119879818Y-55669808D01*
X120013068Y-55919101D01*
X120192392Y-56137608D01*
X120410899Y-56316932D01*
X120543858Y-56388000D01*
X120410899Y-56459068D01*
X120192392Y-56638392D01*
X120013068Y-56856899D01*
X119879818Y-57106192D01*
X119797764Y-57376691D01*
X119770057Y-57658000D01*
X119797764Y-57939309D01*
X119879818Y-58209808D01*
X120013068Y-58459101D01*
X120192392Y-58677608D01*
X120410899Y-58856932D01*
X120660192Y-58990182D01*
X120930691Y-59072236D01*
X121141508Y-59093000D01*
X121682492Y-59093000D01*
X121893309Y-59072236D01*
X122163808Y-58990182D01*
X122413101Y-58856932D01*
X122430000Y-58843063D01*
X122430000Y-58867197D01*
X117927906Y-63369292D01*
X117883309Y-63355764D01*
X117672492Y-63335000D01*
X117531508Y-63335000D01*
X117320691Y-63355764D01*
X117050192Y-63437818D01*
X116800899Y-63571068D01*
X116582392Y-63750392D01*
X116403068Y-63968899D01*
X116269818Y-64218192D01*
X116187764Y-64488691D01*
X116160057Y-64770000D01*
X111912000Y-64770000D01*
X111912000Y-51171651D01*
X112744250Y-51169000D01*
X112903000Y-51010250D01*
X112903000Y-49911000D01*
X113157000Y-49911000D01*
X113157000Y-51010250D01*
X113315750Y-51169000D01*
X114280000Y-51172072D01*
X114404482Y-51159812D01*
X114524180Y-51123502D01*
X114634494Y-51064537D01*
X114731185Y-50985185D01*
X114810537Y-50888494D01*
X114869502Y-50778180D01*
X114905812Y-50658482D01*
X114918072Y-50534000D01*
X114915000Y-50069750D01*
X114756250Y-49911000D01*
X113157000Y-49911000D01*
X112903000Y-49911000D01*
X112883000Y-49911000D01*
X112883000Y-49657000D01*
X112903000Y-49657000D01*
X112903000Y-48557750D01*
X113157000Y-48557750D01*
X113157000Y-49657000D01*
X114756250Y-49657000D01*
X114915000Y-49498250D01*
X114918072Y-49034000D01*
X114905812Y-48909518D01*
X114869502Y-48789820D01*
X114810537Y-48679506D01*
X114731185Y-48582815D01*
X114634494Y-48503463D01*
X114524180Y-48444498D01*
X114404482Y-48408188D01*
X114280000Y-48395928D01*
X113315750Y-48399000D01*
X113157000Y-48557750D01*
X112903000Y-48557750D01*
X112744250Y-48399000D01*
X111912000Y-48396349D01*
X111912000Y-48378072D01*
X114280000Y-48378072D01*
X114404482Y-48365812D01*
X114524180Y-48329502D01*
X114634494Y-48270537D01*
X114690101Y-48224902D01*
X116842000Y-50376802D01*
X116842000Y-50851957D01*
X116687241Y-50955363D01*
X116487363Y-51155241D01*
X116330320Y-51390273D01*
X116222147Y-51651426D01*
X116167000Y-51928665D01*
X116167000Y-52211335D01*
X116222147Y-52488574D01*
X116330320Y-52749727D01*
X116487363Y-52984759D01*
X116687241Y-53184637D01*
X116922273Y-53341680D01*
X117183426Y-53449853D01*
X117460665Y-53505000D01*
X117743335Y-53505000D01*
X118020574Y-53449853D01*
X118281727Y-53341680D01*
X118516759Y-53184637D01*
X118716637Y-52984759D01*
X118873680Y-52749727D01*
X118981853Y-52488574D01*
X119037000Y-52211335D01*
X119037000Y-51928665D01*
X118981853Y-51651426D01*
X118873680Y-51390273D01*
X118716637Y-51155241D01*
X118516759Y-50955363D01*
X118362000Y-50851957D01*
X118362000Y-50099322D01*
X118365676Y-50061999D01*
X118362000Y-50024676D01*
X118362000Y-50024667D01*
X118351003Y-49913014D01*
X118307546Y-49769753D01*
X118294718Y-49745753D01*
X118236974Y-49637723D01*
X118165799Y-49550997D01*
X118142001Y-49521999D01*
X118113004Y-49498202D01*
X115093804Y-46479003D01*
X115070001Y-46449999D01*
X114954276Y-46355026D01*
X114918072Y-46335674D01*
X114918072Y-46240000D01*
X114905812Y-46115518D01*
X114869502Y-45995820D01*
X114810537Y-45885506D01*
X114731185Y-45788815D01*
X114634494Y-45709463D01*
X114524180Y-45650498D01*
X114404482Y-45614188D01*
X114280000Y-45601928D01*
X111912000Y-45601928D01*
X111912000Y-45584072D01*
X114280000Y-45584072D01*
X114404482Y-45571812D01*
X114524180Y-45535502D01*
X114634494Y-45476537D01*
X114731185Y-45397185D01*
X114810537Y-45300494D01*
X114869502Y-45190180D01*
X114905812Y-45070482D01*
X114918072Y-44946000D01*
X114918072Y-43446000D01*
X114905812Y-43321518D01*
X114869502Y-43201820D01*
X114810537Y-43091506D01*
X114731185Y-42994815D01*
X114634494Y-42915463D01*
X114524180Y-42856498D01*
X114404482Y-42820188D01*
X114280000Y-42807928D01*
X113988763Y-42807928D01*
X114025226Y-42719898D01*
X114065000Y-42519939D01*
X114065000Y-42316061D01*
X114025226Y-42116102D01*
X113947205Y-41927744D01*
X113833937Y-41758226D01*
X113819711Y-41744000D01*
X116113928Y-41744000D01*
X116126188Y-41868482D01*
X116162498Y-41988180D01*
X116221463Y-42098494D01*
X116300815Y-42195185D01*
X116397506Y-42274537D01*
X116507820Y-42333502D01*
X116627518Y-42369812D01*
X116752000Y-42382072D01*
X117316250Y-42379000D01*
X117475000Y-42220250D01*
X117475000Y-41021000D01*
X116275750Y-41021000D01*
X116117000Y-41179750D01*
X116113928Y-41744000D01*
X113819711Y-41744000D01*
X113689774Y-41614063D01*
X113520256Y-41500795D01*
X113331898Y-41422774D01*
X113131939Y-41383000D01*
X112928061Y-41383000D01*
X112728102Y-41422774D01*
X112539744Y-41500795D01*
X112370226Y-41614063D01*
X112226063Y-41758226D01*
X112112795Y-41927744D01*
X112034774Y-42116102D01*
X111995000Y-42316061D01*
X111995000Y-42519939D01*
X112034774Y-42719898D01*
X112071237Y-42807928D01*
X111912000Y-42807928D01*
X111912000Y-33274000D01*
X116109815Y-33274000D01*
X116138487Y-33565111D01*
X116223401Y-33845034D01*
X116361294Y-34103014D01*
X116546866Y-34329134D01*
X116772986Y-34514706D01*
X116827791Y-34544000D01*
X116772986Y-34573294D01*
X116546866Y-34758866D01*
X116361294Y-34984986D01*
X116223401Y-35242966D01*
X116138487Y-35522889D01*
X116109815Y-35814000D01*
X116138487Y-36105111D01*
X116223401Y-36385034D01*
X116361294Y-36643014D01*
X116546866Y-36869134D01*
X116772986Y-37054706D01*
X116827791Y-37084000D01*
X116772986Y-37113294D01*
X116546866Y-37298866D01*
X116361294Y-37524986D01*
X116223401Y-37782966D01*
X116138487Y-38062889D01*
X116109815Y-38354000D01*
X116138487Y-38645111D01*
X116223401Y-38925034D01*
X116361294Y-39183014D01*
X116546866Y-39409134D01*
X116576687Y-39433607D01*
X116507820Y-39454498D01*
X116397506Y-39513463D01*
X116300815Y-39592815D01*
X116221463Y-39689506D01*
X116162498Y-39799820D01*
X116126188Y-39919518D01*
X116113928Y-40044000D01*
X116117000Y-40608250D01*
X116275750Y-40767000D01*
X117475000Y-40767000D01*
X117475000Y-40747000D01*
X117729000Y-40747000D01*
X117729000Y-40767000D01*
X118928250Y-40767000D01*
X119087000Y-40608250D01*
X119090072Y-40044000D01*
X119077812Y-39919518D01*
X119041502Y-39799820D01*
X118982537Y-39689506D01*
X118903185Y-39592815D01*
X118806494Y-39513463D01*
X118696180Y-39454498D01*
X118627313Y-39433607D01*
X118657134Y-39409134D01*
X118842706Y-39183014D01*
X118980599Y-38925034D01*
X119065513Y-38645111D01*
X119094185Y-38354000D01*
X119065513Y-38062889D01*
X118980599Y-37782966D01*
X118842706Y-37524986D01*
X118657134Y-37298866D01*
X118431014Y-37113294D01*
X118376209Y-37084000D01*
X118431014Y-37054706D01*
X118657134Y-36869134D01*
X118842706Y-36643014D01*
X118980599Y-36385034D01*
X119065513Y-36105111D01*
X119094185Y-35814000D01*
X119065513Y-35522889D01*
X118980599Y-35242966D01*
X118842706Y-34984986D01*
X118657134Y-34758866D01*
X118431014Y-34573294D01*
X118376209Y-34544000D01*
X118431014Y-34514706D01*
X118657134Y-34329134D01*
X118842706Y-34103014D01*
X118980599Y-33845034D01*
X119065513Y-33565111D01*
X119094185Y-33274000D01*
X119065513Y-32982889D01*
X118980599Y-32702966D01*
X118842706Y-32444986D01*
X118657134Y-32218866D01*
X118431014Y-32033294D01*
X118173034Y-31895401D01*
X117893111Y-31810487D01*
X117674950Y-31789000D01*
X117529050Y-31789000D01*
X117310889Y-31810487D01*
X117030966Y-31895401D01*
X116772986Y-32033294D01*
X116546866Y-32218866D01*
X116361294Y-32444986D01*
X116223401Y-32702966D01*
X116138487Y-32982889D01*
X116109815Y-33274000D01*
X111912000Y-33274000D01*
X111912000Y-33052279D01*
X111941234Y-32754125D01*
X112018448Y-32498378D01*
X112143869Y-32262496D01*
X112312716Y-32055470D01*
X112518554Y-31885187D01*
X112753556Y-31758121D01*
X113008756Y-31679124D01*
X113304882Y-31648000D01*
X160241721Y-31648000D01*
X160490540Y-31672397D01*
X160490540Y-31672397D01*
G37*
X160490540Y-31672397D02*
X160698833Y-31735285D01*
X160890937Y-31837428D01*
X161059553Y-31974947D01*
X161198241Y-32142593D01*
X161301726Y-32333985D01*
X161366066Y-32541835D01*
X161392000Y-32788581D01*
X161392001Y-66515713D01*
X161372441Y-66715204D01*
X161323881Y-66876040D01*
X161245008Y-67024378D01*
X161138822Y-67154575D01*
X161009372Y-67261665D01*
X160861586Y-67341572D01*
X160701094Y-67391253D01*
X160503695Y-67412000D01*
X113062279Y-67412000D01*
X112813460Y-67387603D01*
X112605170Y-67324717D01*
X112413062Y-67222572D01*
X112244446Y-67085052D01*
X112105760Y-66917409D01*
X112002275Y-66726017D01*
X111937934Y-66518166D01*
X111912000Y-66271419D01*
X111912000Y-64770000D01*
X116160057Y-64770000D01*
X116187764Y-65051309D01*
X116269818Y-65321808D01*
X116403068Y-65571101D01*
X116582392Y-65789608D01*
X116800899Y-65968932D01*
X117050192Y-66102182D01*
X117320691Y-66184236D01*
X117531508Y-66205000D01*
X117672492Y-66205000D01*
X117883309Y-66184236D01*
X118153808Y-66102182D01*
X118403101Y-65968932D01*
X118621608Y-65789608D01*
X118800932Y-65571101D01*
X118934182Y-65321808D01*
X119016236Y-65051309D01*
X119043943Y-64770000D01*
X119016236Y-64488691D01*
X119002708Y-64444094D01*
X123701009Y-59745794D01*
X123730001Y-59722001D01*
X123753795Y-59693008D01*
X123753799Y-59693004D01*
X123824973Y-59606277D01*
X123824974Y-59606276D01*
X123895546Y-59474247D01*
X123939003Y-59330986D01*
X123950000Y-59219333D01*
X123950000Y-59219324D01*
X123953676Y-59182001D01*
X123950000Y-59144678D01*
X123950000Y-56733322D01*
X123953676Y-56695999D01*
X123950000Y-56658677D01*
X123950000Y-56658667D01*
X123939003Y-56547014D01*
X123895546Y-56403753D01*
X123824974Y-56271723D01*
X123753799Y-56184997D01*
X123730001Y-56155999D01*
X123701003Y-56132201D01*
X123012708Y-55443906D01*
X123026236Y-55399309D01*
X123053943Y-55118000D01*
X123026236Y-54836691D01*
X122944182Y-54566192D01*
X122810932Y-54316899D01*
X122631608Y-54098392D01*
X122413101Y-53919068D01*
X122280142Y-53848000D01*
X122413101Y-53776932D01*
X122631608Y-53597608D01*
X122810932Y-53379101D01*
X122944182Y-53129808D01*
X123026236Y-52859309D01*
X123053943Y-52578000D01*
X123026236Y-52296691D01*
X122944182Y-52026192D01*
X122810932Y-51776899D01*
X122631608Y-51558392D01*
X122413101Y-51379068D01*
X122280142Y-51308000D01*
X122413101Y-51236932D01*
X122631608Y-51057608D01*
X122810932Y-50839101D01*
X122944182Y-50589808D01*
X123026236Y-50319309D01*
X123053943Y-50038000D01*
X123051402Y-50012203D01*
X140098201Y-67059003D01*
X140121999Y-67088001D01*
X140237724Y-67182974D01*
X140369753Y-67253546D01*
X140513014Y-67297003D01*
X140624667Y-67308000D01*
X140624676Y-67308000D01*
X140661999Y-67311676D01*
X140699322Y-67308000D01*
X153886667Y-67308000D01*
X153924000Y-67311677D01*
X153961333Y-67308000D01*
X154072986Y-67297003D01*
X154216247Y-67253546D01*
X154348276Y-67182974D01*
X154464001Y-67088001D01*
X154558974Y-66972276D01*
X154629546Y-66840247D01*
X154673003Y-66696986D01*
X154687677Y-66548000D01*
X154684000Y-66510667D01*
X154684000Y-64576801D01*
X154979000Y-64281802D01*
X154979000Y-64389002D01*
X155137748Y-64389002D01*
X154979000Y-64547750D01*
X154975928Y-65112000D01*
X154988188Y-65236482D01*
X155024498Y-65356180D01*
X155083463Y-65466494D01*
X155162815Y-65563185D01*
X155259506Y-65642537D01*
X155369820Y-65701502D01*
X155489518Y-65737812D01*
X155614000Y-65750072D01*
X156178250Y-65747000D01*
X156337000Y-65588250D01*
X156337000Y-64389000D01*
X156591000Y-64389000D01*
X156591000Y-65588250D01*
X156749750Y-65747000D01*
X157314000Y-65750072D01*
X157438482Y-65737812D01*
X157558180Y-65701502D01*
X157668494Y-65642537D01*
X157765185Y-65563185D01*
X157844537Y-65466494D01*
X157903502Y-65356180D01*
X157939812Y-65236482D01*
X157952072Y-65112000D01*
X157949000Y-64547750D01*
X157790250Y-64389000D01*
X156591000Y-64389000D01*
X156337000Y-64389000D01*
X156317000Y-64389000D01*
X156317000Y-64135000D01*
X156337000Y-64135000D01*
X156337000Y-64115000D01*
X156591000Y-64115000D01*
X156591000Y-64135000D01*
X157790250Y-64135000D01*
X157949000Y-63976250D01*
X157952072Y-63412000D01*
X157939812Y-63287518D01*
X157903502Y-63167820D01*
X157844537Y-63057506D01*
X157765185Y-62960815D01*
X157668494Y-62881463D01*
X157558180Y-62822498D01*
X157489313Y-62801607D01*
X157519134Y-62777134D01*
X157704706Y-62551014D01*
X157842599Y-62293034D01*
X157927513Y-62013111D01*
X157956185Y-61722000D01*
X157927513Y-61430889D01*
X157842599Y-61150966D01*
X157704706Y-60892986D01*
X157519134Y-60666866D01*
X157293014Y-60481294D01*
X157035034Y-60343401D01*
X156755111Y-60258487D01*
X156536950Y-60237000D01*
X156391050Y-60237000D01*
X156172889Y-60258487D01*
X155892966Y-60343401D01*
X155634986Y-60481294D01*
X155408866Y-60666866D01*
X155223294Y-60892986D01*
X155085401Y-61150966D01*
X155000487Y-61430889D01*
X154971815Y-61722000D01*
X155000487Y-62013111D01*
X155023203Y-62087995D01*
X153863679Y-63247520D01*
X153839502Y-63167820D01*
X153780537Y-63057506D01*
X153701185Y-62960815D01*
X153604494Y-62881463D01*
X153494180Y-62822498D01*
X153425313Y-62801607D01*
X153455134Y-62777134D01*
X153640706Y-62551014D01*
X153778599Y-62293034D01*
X153863513Y-62013111D01*
X153892185Y-61722000D01*
X153863513Y-61430889D01*
X153778599Y-61150966D01*
X153640706Y-60892986D01*
X153455134Y-60666866D01*
X153229014Y-60481294D01*
X152971034Y-60343401D01*
X152691111Y-60258487D01*
X152472950Y-60237000D01*
X152327050Y-60237000D01*
X152108889Y-60258487D01*
X151828966Y-60343401D01*
X151570986Y-60481294D01*
X151344866Y-60666866D01*
X151159294Y-60892986D01*
X151124057Y-60958909D01*
X151092676Y-60962000D01*
X151092667Y-60962000D01*
X150981014Y-60972997D01*
X150837753Y-61016454D01*
X150705724Y-61087026D01*
X150589999Y-61181999D01*
X150566201Y-61210997D01*
X150110998Y-61666201D01*
X150082000Y-61689999D01*
X150058202Y-61718997D01*
X150058201Y-61718998D01*
X149987026Y-61805724D01*
X149916454Y-61937754D01*
X149872998Y-62081015D01*
X149858324Y-62230000D01*
X149862001Y-62267332D01*
X149862000Y-63946200D01*
X149673202Y-64134998D01*
X149662252Y-64134998D01*
X149821000Y-63976250D01*
X149824072Y-63412000D01*
X149811812Y-63287518D01*
X149775502Y-63167820D01*
X149716537Y-63057506D01*
X149637185Y-62960815D01*
X149540494Y-62881463D01*
X149430180Y-62822498D01*
X149361313Y-62801607D01*
X149391134Y-62777134D01*
X149576706Y-62551014D01*
X149714599Y-62293034D01*
X149799513Y-62013111D01*
X149828185Y-61722000D01*
X149799513Y-61430889D01*
X149714599Y-61150966D01*
X149576706Y-60892986D01*
X149391134Y-60666866D01*
X149165014Y-60481294D01*
X148907034Y-60343401D01*
X148627111Y-60258487D01*
X148408950Y-60237000D01*
X148263050Y-60237000D01*
X148044889Y-60258487D01*
X147764966Y-60343401D01*
X147506986Y-60481294D01*
X147280866Y-60666866D01*
X147223494Y-60736774D01*
X145919723Y-59433003D01*
X145895920Y-59403999D01*
X145780195Y-59309026D01*
X145648166Y-59238454D01*
X145574763Y-59216188D01*
X145626494Y-59188537D01*
X145723185Y-59109185D01*
X145802537Y-59012494D01*
X145861502Y-58902180D01*
X145897812Y-58782482D01*
X145910072Y-58658000D01*
X145910072Y-56658000D01*
X145897812Y-56533518D01*
X145861502Y-56413820D01*
X145802537Y-56303506D01*
X145723185Y-56206815D01*
X145626494Y-56127463D01*
X145538524Y-56080441D01*
X145670932Y-55919101D01*
X145692901Y-55878000D01*
X149822678Y-55878000D01*
X149860000Y-55881676D01*
X149897322Y-55878000D01*
X149897333Y-55878000D01*
X150008986Y-55867003D01*
X150152247Y-55823546D01*
X150284276Y-55752974D01*
X150400001Y-55658001D01*
X150423804Y-55628998D01*
X151387003Y-54665799D01*
X151416001Y-54642001D01*
X151488057Y-54554201D01*
X151510974Y-54526277D01*
X151581546Y-54394247D01*
X151593656Y-54354324D01*
X151625003Y-54250986D01*
X151636000Y-54139333D01*
X151636000Y-54139323D01*
X151639676Y-54102000D01*
X151636000Y-54064678D01*
X151636000Y-39631595D01*
X151705014Y-39594706D01*
X151931134Y-39409134D01*
X151955607Y-39379313D01*
X151976498Y-39448180D01*
X152035463Y-39558494D01*
X152114815Y-39655185D01*
X152211506Y-39734537D01*
X152321820Y-39793502D01*
X152441518Y-39829812D01*
X152566000Y-39842072D01*
X153130250Y-39839000D01*
X153289000Y-39680250D01*
X153289000Y-38481000D01*
X153543000Y-38481000D01*
X153543000Y-39680250D01*
X153701750Y-39839000D01*
X154266000Y-39842072D01*
X154390482Y-39829812D01*
X154510180Y-39793502D01*
X154620494Y-39734537D01*
X154717185Y-39655185D01*
X154796537Y-39558494D01*
X154855502Y-39448180D01*
X154891812Y-39328482D01*
X154904072Y-39204000D01*
X154901000Y-38639750D01*
X154742250Y-38481000D01*
X153543000Y-38481000D01*
X153289000Y-38481000D01*
X153269000Y-38481000D01*
X153269000Y-38227000D01*
X153289000Y-38227000D01*
X153289000Y-37027750D01*
X153543000Y-37027750D01*
X153543000Y-38227000D01*
X154742250Y-38227000D01*
X154901000Y-38068250D01*
X154904072Y-37504000D01*
X154891812Y-37379518D01*
X154855502Y-37259820D01*
X154796537Y-37149506D01*
X154717185Y-37052815D01*
X154620494Y-36973463D01*
X154510180Y-36914498D01*
X154390482Y-36878188D01*
X154266000Y-36865928D01*
X153701750Y-36869000D01*
X153543000Y-37027750D01*
X153289000Y-37027750D01*
X153130250Y-36869000D01*
X152566000Y-36865928D01*
X152441518Y-36878188D01*
X152321820Y-36914498D01*
X152211506Y-36973463D01*
X152114815Y-37052815D01*
X152035463Y-37149506D01*
X151976498Y-37259820D01*
X151955607Y-37328687D01*
X151931134Y-37298866D01*
X151705014Y-37113294D01*
X151447034Y-36975401D01*
X151167111Y-36890487D01*
X150948950Y-36869000D01*
X150895803Y-36869000D01*
X151387009Y-36377794D01*
X151416001Y-36354001D01*
X151439795Y-36325008D01*
X151439799Y-36325004D01*
X151510973Y-36238277D01*
X151510974Y-36238276D01*
X151581546Y-36106247D01*
X151625003Y-35962986D01*
X151636000Y-35851333D01*
X151636000Y-35851324D01*
X151639676Y-35814001D01*
X151636000Y-35776678D01*
X151636000Y-34551595D01*
X151705014Y-34514706D01*
X151931134Y-34329134D01*
X151955607Y-34299313D01*
X151976498Y-34368180D01*
X152035463Y-34478494D01*
X152114815Y-34575185D01*
X152211506Y-34654537D01*
X152321820Y-34713502D01*
X152441518Y-34749812D01*
X152566000Y-34762072D01*
X153130250Y-34759000D01*
X153289000Y-34600250D01*
X153289000Y-33401000D01*
X153543000Y-33401000D01*
X153543000Y-34600250D01*
X153701750Y-34759000D01*
X154266000Y-34762072D01*
X154390482Y-34749812D01*
X154510180Y-34713502D01*
X154620494Y-34654537D01*
X154717185Y-34575185D01*
X154796537Y-34478494D01*
X154855502Y-34368180D01*
X154891812Y-34248482D01*
X154904072Y-34124000D01*
X154901000Y-33559750D01*
X154742250Y-33401000D01*
X153543000Y-33401000D01*
X153289000Y-33401000D01*
X153269000Y-33401000D01*
X153269000Y-33147000D01*
X153289000Y-33147000D01*
X153289000Y-31947750D01*
X153543000Y-31947750D01*
X153543000Y-33147000D01*
X154742250Y-33147000D01*
X154901000Y-32988250D01*
X154904072Y-32424000D01*
X154891812Y-32299518D01*
X154855502Y-32179820D01*
X154796537Y-32069506D01*
X154717185Y-31972815D01*
X154620494Y-31893463D01*
X154510180Y-31834498D01*
X154390482Y-31798188D01*
X154266000Y-31785928D01*
X153701750Y-31789000D01*
X153543000Y-31947750D01*
X153289000Y-31947750D01*
X153130250Y-31789000D01*
X152566000Y-31785928D01*
X152441518Y-31798188D01*
X152321820Y-31834498D01*
X152211506Y-31893463D01*
X152114815Y-31972815D01*
X152035463Y-32069506D01*
X151976498Y-32179820D01*
X151955607Y-32248687D01*
X151931134Y-32218866D01*
X151705014Y-32033294D01*
X151447034Y-31895401D01*
X151167111Y-31810487D01*
X150948950Y-31789000D01*
X150803050Y-31789000D01*
X150584889Y-31810487D01*
X150304966Y-31895401D01*
X150046986Y-32033294D01*
X149820866Y-32218866D01*
X149635294Y-32444986D01*
X149606000Y-32499791D01*
X149576706Y-32444986D01*
X149391134Y-32218866D01*
X149165014Y-32033294D01*
X148907034Y-31895401D01*
X148627111Y-31810487D01*
X148408950Y-31789000D01*
X148263050Y-31789000D01*
X148044889Y-31810487D01*
X147764966Y-31895401D01*
X147506986Y-32033294D01*
X147280866Y-32218866D01*
X147095294Y-32444986D01*
X146957401Y-32702966D01*
X146872487Y-32982889D01*
X146843815Y-33274000D01*
X146872487Y-33565111D01*
X146895203Y-33639995D01*
X145539003Y-34996196D01*
X145509999Y-35019999D01*
X145473070Y-35064998D01*
X145415026Y-35135724D01*
X145391880Y-35179027D01*
X145344454Y-35267754D01*
X145300997Y-35411015D01*
X145290000Y-35522668D01*
X145290000Y-35522678D01*
X145286324Y-35560000D01*
X145290000Y-35597322D01*
X145290000Y-38692937D01*
X145273101Y-38679068D01*
X145023808Y-38545818D01*
X144753309Y-38463764D01*
X144542492Y-38443000D01*
X144001508Y-38443000D01*
X143790691Y-38463764D01*
X143520192Y-38545818D01*
X143270899Y-38679068D01*
X143052392Y-38858392D01*
X142873068Y-39076899D01*
X142739818Y-39326192D01*
X142657764Y-39596691D01*
X142630057Y-39878000D01*
X142657764Y-40159309D01*
X142739818Y-40429808D01*
X142873068Y-40679101D01*
X143052392Y-40897608D01*
X143270899Y-41076932D01*
X143403858Y-41148000D01*
X143270899Y-41219068D01*
X143052392Y-41398392D01*
X142873068Y-41616899D01*
X142739818Y-41866192D01*
X142657764Y-42136691D01*
X142630057Y-42418000D01*
X142657764Y-42699309D01*
X142739818Y-42969808D01*
X142873068Y-43219101D01*
X143052392Y-43437608D01*
X143270899Y-43616932D01*
X143403858Y-43688000D01*
X143270899Y-43759068D01*
X143052392Y-43938392D01*
X142873068Y-44156899D01*
X142739818Y-44406192D01*
X142657764Y-44676691D01*
X142630057Y-44958000D01*
X142657764Y-45239309D01*
X142739818Y-45509808D01*
X142873068Y-45759101D01*
X143052392Y-45977608D01*
X143270899Y-46156932D01*
X143403858Y-46228000D01*
X143270899Y-46299068D01*
X143052392Y-46478392D01*
X142873068Y-46696899D01*
X142739818Y-46946192D01*
X142657764Y-47216691D01*
X142630057Y-47498000D01*
X142657764Y-47779309D01*
X142739818Y-48049808D01*
X142873068Y-48299101D01*
X143052392Y-48517608D01*
X143270899Y-48696932D01*
X143403858Y-48768000D01*
X143270899Y-48839068D01*
X143052392Y-49018392D01*
X142873068Y-49236899D01*
X142739818Y-49486192D01*
X142657764Y-49756691D01*
X142630057Y-50038000D01*
X142657764Y-50319309D01*
X142671292Y-50363906D01*
X140712998Y-52322201D01*
X140684000Y-52345999D01*
X140660202Y-52374997D01*
X140660201Y-52374998D01*
X140589026Y-52461724D01*
X140518454Y-52593754D01*
X140474998Y-52737015D01*
X140460324Y-52886000D01*
X140464001Y-52923332D01*
X140464000Y-57874677D01*
X140460324Y-57912000D01*
X140464000Y-57949322D01*
X140464000Y-57949332D01*
X140474997Y-58060985D01*
X140518454Y-58204246D01*
X140589026Y-58336276D01*
X140628871Y-58384826D01*
X140683999Y-58452001D01*
X140713003Y-58475804D01*
X142692200Y-60455002D01*
X142715999Y-60484001D01*
X142744997Y-60507799D01*
X142831723Y-60578974D01*
X142963753Y-60649546D01*
X143107014Y-60693003D01*
X143218667Y-60704000D01*
X143218677Y-60704000D01*
X143256000Y-60707676D01*
X143293323Y-60704000D01*
X145041118Y-60704000D01*
X146570120Y-62233003D01*
X146593918Y-62262001D01*
X146709643Y-62356974D01*
X146841672Y-62427546D01*
X146984933Y-62471003D01*
X147056284Y-62478031D01*
X147095294Y-62551014D01*
X147280866Y-62777134D01*
X147310687Y-62801607D01*
X147241820Y-62822498D01*
X147131506Y-62881463D01*
X147034815Y-62960815D01*
X146955463Y-63057506D01*
X146896498Y-63167820D01*
X146860188Y-63287518D01*
X146847928Y-63412000D01*
X146851000Y-63976250D01*
X147009750Y-64135000D01*
X148209000Y-64135000D01*
X148209000Y-64115000D01*
X148463000Y-64115000D01*
X148463000Y-64135000D01*
X148483000Y-64135000D01*
X148483000Y-64389000D01*
X148463000Y-64389000D01*
X148463000Y-64409000D01*
X148209000Y-64409000D01*
X148209000Y-64389000D01*
X147009750Y-64389000D01*
X146851000Y-64547750D01*
X146848396Y-65026000D01*
X143804802Y-65026000D01*
X123225804Y-44447003D01*
X123202001Y-44417999D01*
X123086276Y-44323026D01*
X122954247Y-44252454D01*
X122844157Y-44219059D01*
X122810932Y-44156899D01*
X122631608Y-43938392D01*
X122413101Y-43759068D01*
X122283655Y-43689878D01*
X122301227Y-43682430D01*
X122534662Y-43523673D01*
X122732639Y-43322425D01*
X122887551Y-43086421D01*
X122993444Y-42824730D01*
X123003904Y-42767039D01*
X122881915Y-42545000D01*
X121539000Y-42545000D01*
X121539000Y-42565000D01*
X121285000Y-42565000D01*
X121285000Y-42545000D01*
X121265000Y-42545000D01*
X121265000Y-42291000D01*
X121285000Y-42291000D01*
X121285000Y-42271000D01*
X121539000Y-42271000D01*
X121539000Y-42291000D01*
X122881915Y-42291000D01*
X123003904Y-42068961D01*
X122993444Y-42011270D01*
X122887551Y-41749579D01*
X122732639Y-41513575D01*
X122534662Y-41312327D01*
X122301227Y-41153570D01*
X122283655Y-41146122D01*
X122413101Y-41076932D01*
X122631608Y-40897608D01*
X122810932Y-40679101D01*
X122944182Y-40429808D01*
X123026236Y-40159309D01*
X123053943Y-39878000D01*
X123026236Y-39596691D01*
X122944182Y-39326192D01*
X122810932Y-39076899D01*
X122631608Y-38858392D01*
X122413101Y-38679068D01*
X122163808Y-38545818D01*
X121893309Y-38463764D01*
X121682492Y-38443000D01*
X121141508Y-38443000D01*
X120930691Y-38463764D01*
X120660192Y-38545818D01*
X120410899Y-38679068D01*
X120192392Y-38858392D01*
X120013068Y-39076899D01*
X119879818Y-39326192D01*
X119797764Y-39596691D01*
X119770057Y-39878000D01*
X119797764Y-40159309D01*
X119879818Y-40429808D01*
X120013068Y-40679101D01*
X120192392Y-40897608D01*
X120410899Y-41076932D01*
X120540345Y-41146122D01*
X120522773Y-41153570D01*
X120289338Y-41312327D01*
X120091361Y-41513575D01*
X119936449Y-41749579D01*
X119868549Y-41917378D01*
X119735939Y-41891000D01*
X119532061Y-41891000D01*
X119332102Y-41930774D01*
X119143744Y-42008795D01*
X118974226Y-42122063D01*
X118912709Y-42183580D01*
X118982537Y-42098494D01*
X119041502Y-41988180D01*
X119077812Y-41868482D01*
X119090072Y-41744000D01*
X119087000Y-41179750D01*
X118928250Y-41021000D01*
X117729000Y-41021000D01*
X117729000Y-42220250D01*
X117887750Y-42379000D01*
X118452000Y-42382072D01*
X118576482Y-42369812D01*
X118696180Y-42333502D01*
X118806494Y-42274537D01*
X118891580Y-42204709D01*
X118830063Y-42266226D01*
X118716795Y-42435744D01*
X118638774Y-42624102D01*
X118599000Y-42824061D01*
X118599000Y-43027939D01*
X118638774Y-43227898D01*
X118716795Y-43416256D01*
X118830063Y-43585774D01*
X118874000Y-43629711D01*
X118874001Y-48422668D01*
X118870324Y-48460000D01*
X118874001Y-48497333D01*
X118884998Y-48608986D01*
X118889481Y-48623764D01*
X118928454Y-48752246D01*
X118999026Y-48884276D01*
X119057057Y-48954986D01*
X119094000Y-49000001D01*
X119122998Y-49023799D01*
X119811292Y-49712094D01*
X119797764Y-49756691D01*
X119770057Y-50038000D01*
X119797764Y-50319309D01*
X119879818Y-50589808D01*
X120013068Y-50839101D01*
X120192392Y-51057608D01*
X120410899Y-51236932D01*
X120543858Y-51308000D01*
X120410899Y-51379068D01*
X120192392Y-51558392D01*
X120013068Y-51776899D01*
X119879818Y-52026192D01*
X119797764Y-52296691D01*
X119770057Y-52578000D01*
X119797764Y-52859309D01*
X119879818Y-53129808D01*
X120013068Y-53379101D01*
X120192392Y-53597608D01*
X120410899Y-53776932D01*
X120543858Y-53848000D01*
X120410899Y-53919068D01*
X120192392Y-54098392D01*
X120013068Y-54316899D01*
X119879818Y-54566192D01*
X119797764Y-54836691D01*
X119770057Y-55118000D01*
X119797764Y-55399309D01*
X119879818Y-55669808D01*
X120013068Y-55919101D01*
X120192392Y-56137608D01*
X120410899Y-56316932D01*
X120543858Y-56388000D01*
X120410899Y-56459068D01*
X120192392Y-56638392D01*
X120013068Y-56856899D01*
X119879818Y-57106192D01*
X119797764Y-57376691D01*
X119770057Y-57658000D01*
X119797764Y-57939309D01*
X119879818Y-58209808D01*
X120013068Y-58459101D01*
X120192392Y-58677608D01*
X120410899Y-58856932D01*
X120660192Y-58990182D01*
X120930691Y-59072236D01*
X121141508Y-59093000D01*
X121682492Y-59093000D01*
X121893309Y-59072236D01*
X122163808Y-58990182D01*
X122413101Y-58856932D01*
X122430000Y-58843063D01*
X122430000Y-58867197D01*
X117927906Y-63369292D01*
X117883309Y-63355764D01*
X117672492Y-63335000D01*
X117531508Y-63335000D01*
X117320691Y-63355764D01*
X117050192Y-63437818D01*
X116800899Y-63571068D01*
X116582392Y-63750392D01*
X116403068Y-63968899D01*
X116269818Y-64218192D01*
X116187764Y-64488691D01*
X116160057Y-64770000D01*
X111912000Y-64770000D01*
X111912000Y-51171651D01*
X112744250Y-51169000D01*
X112903000Y-51010250D01*
X112903000Y-49911000D01*
X113157000Y-49911000D01*
X113157000Y-51010250D01*
X113315750Y-51169000D01*
X114280000Y-51172072D01*
X114404482Y-51159812D01*
X114524180Y-51123502D01*
X114634494Y-51064537D01*
X114731185Y-50985185D01*
X114810537Y-50888494D01*
X114869502Y-50778180D01*
X114905812Y-50658482D01*
X114918072Y-50534000D01*
X114915000Y-50069750D01*
X114756250Y-49911000D01*
X113157000Y-49911000D01*
X112903000Y-49911000D01*
X112883000Y-49911000D01*
X112883000Y-49657000D01*
X112903000Y-49657000D01*
X112903000Y-48557750D01*
X113157000Y-48557750D01*
X113157000Y-49657000D01*
X114756250Y-49657000D01*
X114915000Y-49498250D01*
X114918072Y-49034000D01*
X114905812Y-48909518D01*
X114869502Y-48789820D01*
X114810537Y-48679506D01*
X114731185Y-48582815D01*
X114634494Y-48503463D01*
X114524180Y-48444498D01*
X114404482Y-48408188D01*
X114280000Y-48395928D01*
X113315750Y-48399000D01*
X113157000Y-48557750D01*
X112903000Y-48557750D01*
X112744250Y-48399000D01*
X111912000Y-48396349D01*
X111912000Y-48378072D01*
X114280000Y-48378072D01*
X114404482Y-48365812D01*
X114524180Y-48329502D01*
X114634494Y-48270537D01*
X114690101Y-48224902D01*
X116842000Y-50376802D01*
X116842000Y-50851957D01*
X116687241Y-50955363D01*
X116487363Y-51155241D01*
X116330320Y-51390273D01*
X116222147Y-51651426D01*
X116167000Y-51928665D01*
X116167000Y-52211335D01*
X116222147Y-52488574D01*
X116330320Y-52749727D01*
X116487363Y-52984759D01*
X116687241Y-53184637D01*
X116922273Y-53341680D01*
X117183426Y-53449853D01*
X117460665Y-53505000D01*
X117743335Y-53505000D01*
X118020574Y-53449853D01*
X118281727Y-53341680D01*
X118516759Y-53184637D01*
X118716637Y-52984759D01*
X118873680Y-52749727D01*
X118981853Y-52488574D01*
X119037000Y-52211335D01*
X119037000Y-51928665D01*
X118981853Y-51651426D01*
X118873680Y-51390273D01*
X118716637Y-51155241D01*
X118516759Y-50955363D01*
X118362000Y-50851957D01*
X118362000Y-50099322D01*
X118365676Y-50061999D01*
X118362000Y-50024676D01*
X118362000Y-50024667D01*
X118351003Y-49913014D01*
X118307546Y-49769753D01*
X118294718Y-49745753D01*
X118236974Y-49637723D01*
X118165799Y-49550997D01*
X118142001Y-49521999D01*
X118113004Y-49498202D01*
X115093804Y-46479003D01*
X115070001Y-46449999D01*
X114954276Y-46355026D01*
X114918072Y-46335674D01*
X114918072Y-46240000D01*
X114905812Y-46115518D01*
X114869502Y-45995820D01*
X114810537Y-45885506D01*
X114731185Y-45788815D01*
X114634494Y-45709463D01*
X114524180Y-45650498D01*
X114404482Y-45614188D01*
X114280000Y-45601928D01*
X111912000Y-45601928D01*
X111912000Y-45584072D01*
X114280000Y-45584072D01*
X114404482Y-45571812D01*
X114524180Y-45535502D01*
X114634494Y-45476537D01*
X114731185Y-45397185D01*
X114810537Y-45300494D01*
X114869502Y-45190180D01*
X114905812Y-45070482D01*
X114918072Y-44946000D01*
X114918072Y-43446000D01*
X114905812Y-43321518D01*
X114869502Y-43201820D01*
X114810537Y-43091506D01*
X114731185Y-42994815D01*
X114634494Y-42915463D01*
X114524180Y-42856498D01*
X114404482Y-42820188D01*
X114280000Y-42807928D01*
X113988763Y-42807928D01*
X114025226Y-42719898D01*
X114065000Y-42519939D01*
X114065000Y-42316061D01*
X114025226Y-42116102D01*
X113947205Y-41927744D01*
X113833937Y-41758226D01*
X113819711Y-41744000D01*
X116113928Y-41744000D01*
X116126188Y-41868482D01*
X116162498Y-41988180D01*
X116221463Y-42098494D01*
X116300815Y-42195185D01*
X116397506Y-42274537D01*
X116507820Y-42333502D01*
X116627518Y-42369812D01*
X116752000Y-42382072D01*
X117316250Y-42379000D01*
X117475000Y-42220250D01*
X117475000Y-41021000D01*
X116275750Y-41021000D01*
X116117000Y-41179750D01*
X116113928Y-41744000D01*
X113819711Y-41744000D01*
X113689774Y-41614063D01*
X113520256Y-41500795D01*
X113331898Y-41422774D01*
X113131939Y-41383000D01*
X112928061Y-41383000D01*
X112728102Y-41422774D01*
X112539744Y-41500795D01*
X112370226Y-41614063D01*
X112226063Y-41758226D01*
X112112795Y-41927744D01*
X112034774Y-42116102D01*
X111995000Y-42316061D01*
X111995000Y-42519939D01*
X112034774Y-42719898D01*
X112071237Y-42807928D01*
X111912000Y-42807928D01*
X111912000Y-33274000D01*
X116109815Y-33274000D01*
X116138487Y-33565111D01*
X116223401Y-33845034D01*
X116361294Y-34103014D01*
X116546866Y-34329134D01*
X116772986Y-34514706D01*
X116827791Y-34544000D01*
X116772986Y-34573294D01*
X116546866Y-34758866D01*
X116361294Y-34984986D01*
X116223401Y-35242966D01*
X116138487Y-35522889D01*
X116109815Y-35814000D01*
X116138487Y-36105111D01*
X116223401Y-36385034D01*
X116361294Y-36643014D01*
X116546866Y-36869134D01*
X116772986Y-37054706D01*
X116827791Y-37084000D01*
X116772986Y-37113294D01*
X116546866Y-37298866D01*
X116361294Y-37524986D01*
X116223401Y-37782966D01*
X116138487Y-38062889D01*
X116109815Y-38354000D01*
X116138487Y-38645111D01*
X116223401Y-38925034D01*
X116361294Y-39183014D01*
X116546866Y-39409134D01*
X116576687Y-39433607D01*
X116507820Y-39454498D01*
X116397506Y-39513463D01*
X116300815Y-39592815D01*
X116221463Y-39689506D01*
X116162498Y-39799820D01*
X116126188Y-39919518D01*
X116113928Y-40044000D01*
X116117000Y-40608250D01*
X116275750Y-40767000D01*
X117475000Y-40767000D01*
X117475000Y-40747000D01*
X117729000Y-40747000D01*
X117729000Y-40767000D01*
X118928250Y-40767000D01*
X119087000Y-40608250D01*
X119090072Y-40044000D01*
X119077812Y-39919518D01*
X119041502Y-39799820D01*
X118982537Y-39689506D01*
X118903185Y-39592815D01*
X118806494Y-39513463D01*
X118696180Y-39454498D01*
X118627313Y-39433607D01*
X118657134Y-39409134D01*
X118842706Y-39183014D01*
X118980599Y-38925034D01*
X119065513Y-38645111D01*
X119094185Y-38354000D01*
X119065513Y-38062889D01*
X118980599Y-37782966D01*
X118842706Y-37524986D01*
X118657134Y-37298866D01*
X118431014Y-37113294D01*
X118376209Y-37084000D01*
X118431014Y-37054706D01*
X118657134Y-36869134D01*
X118842706Y-36643014D01*
X118980599Y-36385034D01*
X119065513Y-36105111D01*
X119094185Y-35814000D01*
X119065513Y-35522889D01*
X118980599Y-35242966D01*
X118842706Y-34984986D01*
X118657134Y-34758866D01*
X118431014Y-34573294D01*
X118376209Y-34544000D01*
X118431014Y-34514706D01*
X118657134Y-34329134D01*
X118842706Y-34103014D01*
X118980599Y-33845034D01*
X119065513Y-33565111D01*
X119094185Y-33274000D01*
X119065513Y-32982889D01*
X118980599Y-32702966D01*
X118842706Y-32444986D01*
X118657134Y-32218866D01*
X118431014Y-32033294D01*
X118173034Y-31895401D01*
X117893111Y-31810487D01*
X117674950Y-31789000D01*
X117529050Y-31789000D01*
X117310889Y-31810487D01*
X117030966Y-31895401D01*
X116772986Y-32033294D01*
X116546866Y-32218866D01*
X116361294Y-32444986D01*
X116223401Y-32702966D01*
X116138487Y-32982889D01*
X116109815Y-33274000D01*
X111912000Y-33274000D01*
X111912000Y-33052279D01*
X111941234Y-32754125D01*
X112018448Y-32498378D01*
X112143869Y-32262496D01*
X112312716Y-32055470D01*
X112518554Y-31885187D01*
X112753556Y-31758121D01*
X113008756Y-31679124D01*
X113304882Y-31648000D01*
X160241721Y-31648000D01*
X160490540Y-31672397D01*
G36*
X152527000Y-64135000D02*
G01*
X152547000Y-64135000D01*
X152547000Y-64389000D01*
X152527000Y-64389000D01*
X152527000Y-65588250D01*
X152685750Y-65747000D01*
X153164000Y-65749604D01*
X153164000Y-65788000D01*
X150169803Y-65788000D01*
X150912290Y-65045514D01*
X150911928Y-65112000D01*
X150924188Y-65236482D01*
X150960498Y-65356180D01*
X151019463Y-65466494D01*
X151098815Y-65563185D01*
X151195506Y-65642537D01*
X151305820Y-65701502D01*
X151425518Y-65737812D01*
X151550000Y-65750072D01*
X152114250Y-65747000D01*
X152273000Y-65588250D01*
X152273000Y-64389000D01*
X152253000Y-64389000D01*
X152253000Y-64135000D01*
X152273000Y-64135000D01*
X152273000Y-64115000D01*
X152527000Y-64115000D01*
X152527000Y-64135000D01*
X152527000Y-64135000D01*
G37*
X152527000Y-64135000D02*
X152547000Y-64135000D01*
X152547000Y-64389000D01*
X152527000Y-64389000D01*
X152527000Y-65588250D01*
X152685750Y-65747000D01*
X153164000Y-65749604D01*
X153164000Y-65788000D01*
X150169803Y-65788000D01*
X150912290Y-65045514D01*
X150911928Y-65112000D01*
X150924188Y-65236482D01*
X150960498Y-65356180D01*
X151019463Y-65466494D01*
X151098815Y-65563185D01*
X151195506Y-65642537D01*
X151305820Y-65701502D01*
X151425518Y-65737812D01*
X151550000Y-65750072D01*
X152114250Y-65747000D01*
X152273000Y-65588250D01*
X152273000Y-64389000D01*
X152253000Y-64389000D01*
X152253000Y-64135000D01*
X152273000Y-64135000D01*
X152273000Y-64115000D01*
X152527000Y-64115000D01*
X152527000Y-64135000D01*
G36*
X149635294Y-34103014D02*
G01*
X149820866Y-34329134D01*
X150046986Y-34514706D01*
X150116000Y-34551595D01*
X150116000Y-35499197D01*
X148701995Y-36913203D01*
X148627111Y-36890487D01*
X148408950Y-36869000D01*
X148263050Y-36869000D01*
X148044889Y-36890487D01*
X147764966Y-36975401D01*
X147506986Y-37113294D01*
X147280866Y-37298866D01*
X147095294Y-37524986D01*
X146957401Y-37782966D01*
X146872487Y-38062889D01*
X146843815Y-38354000D01*
X146872487Y-38645111D01*
X146957401Y-38925034D01*
X147095294Y-39183014D01*
X147280866Y-39409134D01*
X147506986Y-39594706D01*
X147764966Y-39732599D01*
X148044889Y-39817513D01*
X148263050Y-39839000D01*
X148408950Y-39839000D01*
X148627111Y-39817513D01*
X148907034Y-39732599D01*
X149165014Y-39594706D01*
X149391134Y-39409134D01*
X149576706Y-39183014D01*
X149606000Y-39128209D01*
X149635294Y-39183014D01*
X149820866Y-39409134D01*
X150046986Y-39594706D01*
X150116000Y-39631595D01*
X150116001Y-53787197D01*
X149545199Y-54358000D01*
X145692901Y-54358000D01*
X145670932Y-54316899D01*
X145491608Y-54098392D01*
X145273101Y-53919068D01*
X145140142Y-53848000D01*
X145273101Y-53776932D01*
X145491608Y-53597608D01*
X145670932Y-53379101D01*
X145804182Y-53129808D01*
X145886236Y-52859309D01*
X145913943Y-52578000D01*
X145886236Y-52296691D01*
X145804182Y-52026192D01*
X145670932Y-51776899D01*
X145491608Y-51558392D01*
X145273101Y-51379068D01*
X145140142Y-51308000D01*
X145273101Y-51236932D01*
X145491608Y-51057608D01*
X145670932Y-50839101D01*
X145804182Y-50589808D01*
X145886236Y-50319309D01*
X145913943Y-50038000D01*
X145886236Y-49756691D01*
X145804182Y-49486192D01*
X145670932Y-49236899D01*
X145491608Y-49018392D01*
X145273101Y-48839068D01*
X145140142Y-48768000D01*
X145273101Y-48696932D01*
X145491608Y-48517608D01*
X145670932Y-48299101D01*
X145804182Y-48049808D01*
X145886236Y-47779309D01*
X145913943Y-47498000D01*
X145888926Y-47244000D01*
X146589815Y-47244000D01*
X146618487Y-47535111D01*
X146703401Y-47815034D01*
X146841294Y-48073014D01*
X147026866Y-48299134D01*
X147252986Y-48484706D01*
X147307791Y-48514000D01*
X147252986Y-48543294D01*
X147026866Y-48728866D01*
X146841294Y-48954986D01*
X146703401Y-49212966D01*
X146618487Y-49492889D01*
X146589815Y-49784000D01*
X146618487Y-50075111D01*
X146703401Y-50355034D01*
X146841294Y-50613014D01*
X147026866Y-50839134D01*
X147252986Y-51024706D01*
X147307791Y-51054000D01*
X147252986Y-51083294D01*
X147026866Y-51268866D01*
X146841294Y-51494986D01*
X146703401Y-51752966D01*
X146618487Y-52032889D01*
X146589815Y-52324000D01*
X146618487Y-52615111D01*
X146703401Y-52895034D01*
X146841294Y-53153014D01*
X147026866Y-53379134D01*
X147252986Y-53564706D01*
X147510966Y-53702599D01*
X147790889Y-53787513D01*
X148009050Y-53809000D01*
X148154950Y-53809000D01*
X148373111Y-53787513D01*
X148653034Y-53702599D01*
X148911014Y-53564706D01*
X149137134Y-53379134D01*
X149322706Y-53153014D01*
X149460599Y-52895034D01*
X149545513Y-52615111D01*
X149574185Y-52324000D01*
X149545513Y-52032889D01*
X149460599Y-51752966D01*
X149322706Y-51494986D01*
X149137134Y-51268866D01*
X148911014Y-51083294D01*
X148856209Y-51054000D01*
X148911014Y-51024706D01*
X149137134Y-50839134D01*
X149322706Y-50613014D01*
X149460599Y-50355034D01*
X149545513Y-50075111D01*
X149574185Y-49784000D01*
X149545513Y-49492889D01*
X149460599Y-49212966D01*
X149322706Y-48954986D01*
X149137134Y-48728866D01*
X148911014Y-48543294D01*
X148856209Y-48514000D01*
X148911014Y-48484706D01*
X149137134Y-48299134D01*
X149322706Y-48073014D01*
X149460599Y-47815034D01*
X149545513Y-47535111D01*
X149574185Y-47244000D01*
X149545513Y-46952889D01*
X149460599Y-46672966D01*
X149322706Y-46414986D01*
X149137134Y-46188866D01*
X149107313Y-46164393D01*
X149176180Y-46143502D01*
X149286494Y-46084537D01*
X149383185Y-46005185D01*
X149462537Y-45908494D01*
X149521502Y-45798180D01*
X149557812Y-45678482D01*
X149570072Y-45554000D01*
X149567000Y-44989750D01*
X149408250Y-44831000D01*
X148209000Y-44831000D01*
X148209000Y-44851000D01*
X147955000Y-44851000D01*
X147955000Y-44831000D01*
X146755750Y-44831000D01*
X146597000Y-44989750D01*
X146593928Y-45554000D01*
X146606188Y-45678482D01*
X146642498Y-45798180D01*
X146701463Y-45908494D01*
X146780815Y-46005185D01*
X146877506Y-46084537D01*
X146987820Y-46143502D01*
X147056687Y-46164393D01*
X147026866Y-46188866D01*
X146841294Y-46414986D01*
X146703401Y-46672966D01*
X146618487Y-46952889D01*
X146589815Y-47244000D01*
X145888926Y-47244000D01*
X145886236Y-47216691D01*
X145804182Y-46946192D01*
X145670932Y-46696899D01*
X145491608Y-46478392D01*
X145273101Y-46299068D01*
X145140142Y-46228000D01*
X145273101Y-46156932D01*
X145491608Y-45977608D01*
X145670932Y-45759101D01*
X145804182Y-45509808D01*
X145886236Y-45239309D01*
X145913943Y-44958000D01*
X145886236Y-44676691D01*
X145872708Y-44632094D01*
X146561003Y-43943799D01*
X146590001Y-43920001D01*
X146594259Y-43914813D01*
X146597000Y-44418250D01*
X146755750Y-44577000D01*
X147955000Y-44577000D01*
X147955000Y-43377750D01*
X148209000Y-43377750D01*
X148209000Y-44577000D01*
X149408250Y-44577000D01*
X149567000Y-44418250D01*
X149570072Y-43854000D01*
X149557812Y-43729518D01*
X149521502Y-43609820D01*
X149462537Y-43499506D01*
X149383185Y-43402815D01*
X149286494Y-43323463D01*
X149176180Y-43264498D01*
X149056482Y-43228188D01*
X148932000Y-43215928D01*
X148367750Y-43219000D01*
X148209000Y-43377750D01*
X147955000Y-43377750D01*
X147796250Y-43219000D01*
X147232000Y-43215928D01*
X147107518Y-43228188D01*
X146987820Y-43264498D01*
X146877506Y-43323463D01*
X146813297Y-43376157D01*
X146810000Y-43342678D01*
X146810000Y-35874801D01*
X147970005Y-34714797D01*
X148044889Y-34737513D01*
X148263050Y-34759000D01*
X148408950Y-34759000D01*
X148627111Y-34737513D01*
X148907034Y-34652599D01*
X149165014Y-34514706D01*
X149391134Y-34329134D01*
X149576706Y-34103014D01*
X149606000Y-34048209D01*
X149635294Y-34103014D01*
X149635294Y-34103014D01*
G37*
X149635294Y-34103014D02*
X149820866Y-34329134D01*
X150046986Y-34514706D01*
X150116000Y-34551595D01*
X150116000Y-35499197D01*
X148701995Y-36913203D01*
X148627111Y-36890487D01*
X148408950Y-36869000D01*
X148263050Y-36869000D01*
X148044889Y-36890487D01*
X147764966Y-36975401D01*
X147506986Y-37113294D01*
X147280866Y-37298866D01*
X147095294Y-37524986D01*
X146957401Y-37782966D01*
X146872487Y-38062889D01*
X146843815Y-38354000D01*
X146872487Y-38645111D01*
X146957401Y-38925034D01*
X147095294Y-39183014D01*
X147280866Y-39409134D01*
X147506986Y-39594706D01*
X147764966Y-39732599D01*
X148044889Y-39817513D01*
X148263050Y-39839000D01*
X148408950Y-39839000D01*
X148627111Y-39817513D01*
X148907034Y-39732599D01*
X149165014Y-39594706D01*
X149391134Y-39409134D01*
X149576706Y-39183014D01*
X149606000Y-39128209D01*
X149635294Y-39183014D01*
X149820866Y-39409134D01*
X150046986Y-39594706D01*
X150116000Y-39631595D01*
X150116001Y-53787197D01*
X149545199Y-54358000D01*
X145692901Y-54358000D01*
X145670932Y-54316899D01*
X145491608Y-54098392D01*
X145273101Y-53919068D01*
X145140142Y-53848000D01*
X145273101Y-53776932D01*
X145491608Y-53597608D01*
X145670932Y-53379101D01*
X145804182Y-53129808D01*
X145886236Y-52859309D01*
X145913943Y-52578000D01*
X145886236Y-52296691D01*
X145804182Y-52026192D01*
X145670932Y-51776899D01*
X145491608Y-51558392D01*
X145273101Y-51379068D01*
X145140142Y-51308000D01*
X145273101Y-51236932D01*
X145491608Y-51057608D01*
X145670932Y-50839101D01*
X145804182Y-50589808D01*
X145886236Y-50319309D01*
X145913943Y-50038000D01*
X145886236Y-49756691D01*
X145804182Y-49486192D01*
X145670932Y-49236899D01*
X145491608Y-49018392D01*
X145273101Y-48839068D01*
X145140142Y-48768000D01*
X145273101Y-48696932D01*
X145491608Y-48517608D01*
X145670932Y-48299101D01*
X145804182Y-48049808D01*
X145886236Y-47779309D01*
X145913943Y-47498000D01*
X145888926Y-47244000D01*
X146589815Y-47244000D01*
X146618487Y-47535111D01*
X146703401Y-47815034D01*
X146841294Y-48073014D01*
X147026866Y-48299134D01*
X147252986Y-48484706D01*
X147307791Y-48514000D01*
X147252986Y-48543294D01*
X147026866Y-48728866D01*
X146841294Y-48954986D01*
X146703401Y-49212966D01*
X146618487Y-49492889D01*
X146589815Y-49784000D01*
X146618487Y-50075111D01*
X146703401Y-50355034D01*
X146841294Y-50613014D01*
X147026866Y-50839134D01*
X147252986Y-51024706D01*
X147307791Y-51054000D01*
X147252986Y-51083294D01*
X147026866Y-51268866D01*
X146841294Y-51494986D01*
X146703401Y-51752966D01*
X146618487Y-52032889D01*
X146589815Y-52324000D01*
X146618487Y-52615111D01*
X146703401Y-52895034D01*
X146841294Y-53153014D01*
X147026866Y-53379134D01*
X147252986Y-53564706D01*
X147510966Y-53702599D01*
X147790889Y-53787513D01*
X148009050Y-53809000D01*
X148154950Y-53809000D01*
X148373111Y-53787513D01*
X148653034Y-53702599D01*
X148911014Y-53564706D01*
X149137134Y-53379134D01*
X149322706Y-53153014D01*
X149460599Y-52895034D01*
X149545513Y-52615111D01*
X149574185Y-52324000D01*
X149545513Y-52032889D01*
X149460599Y-51752966D01*
X149322706Y-51494986D01*
X149137134Y-51268866D01*
X148911014Y-51083294D01*
X148856209Y-51054000D01*
X148911014Y-51024706D01*
X149137134Y-50839134D01*
X149322706Y-50613014D01*
X149460599Y-50355034D01*
X149545513Y-50075111D01*
X149574185Y-49784000D01*
X149545513Y-49492889D01*
X149460599Y-49212966D01*
X149322706Y-48954986D01*
X149137134Y-48728866D01*
X148911014Y-48543294D01*
X148856209Y-48514000D01*
X148911014Y-48484706D01*
X149137134Y-48299134D01*
X149322706Y-48073014D01*
X149460599Y-47815034D01*
X149545513Y-47535111D01*
X149574185Y-47244000D01*
X149545513Y-46952889D01*
X149460599Y-46672966D01*
X149322706Y-46414986D01*
X149137134Y-46188866D01*
X149107313Y-46164393D01*
X149176180Y-46143502D01*
X149286494Y-46084537D01*
X149383185Y-46005185D01*
X149462537Y-45908494D01*
X149521502Y-45798180D01*
X149557812Y-45678482D01*
X149570072Y-45554000D01*
X149567000Y-44989750D01*
X149408250Y-44831000D01*
X148209000Y-44831000D01*
X148209000Y-44851000D01*
X147955000Y-44851000D01*
X147955000Y-44831000D01*
X146755750Y-44831000D01*
X146597000Y-44989750D01*
X146593928Y-45554000D01*
X146606188Y-45678482D01*
X146642498Y-45798180D01*
X146701463Y-45908494D01*
X146780815Y-46005185D01*
X146877506Y-46084537D01*
X146987820Y-46143502D01*
X147056687Y-46164393D01*
X147026866Y-46188866D01*
X146841294Y-46414986D01*
X146703401Y-46672966D01*
X146618487Y-46952889D01*
X146589815Y-47244000D01*
X145888926Y-47244000D01*
X145886236Y-47216691D01*
X145804182Y-46946192D01*
X145670932Y-46696899D01*
X145491608Y-46478392D01*
X145273101Y-46299068D01*
X145140142Y-46228000D01*
X145273101Y-46156932D01*
X145491608Y-45977608D01*
X145670932Y-45759101D01*
X145804182Y-45509808D01*
X145886236Y-45239309D01*
X145913943Y-44958000D01*
X145886236Y-44676691D01*
X145872708Y-44632094D01*
X146561003Y-43943799D01*
X146590001Y-43920001D01*
X146594259Y-43914813D01*
X146597000Y-44418250D01*
X146755750Y-44577000D01*
X147955000Y-44577000D01*
X147955000Y-43377750D01*
X148209000Y-43377750D01*
X148209000Y-44577000D01*
X149408250Y-44577000D01*
X149567000Y-44418250D01*
X149570072Y-43854000D01*
X149557812Y-43729518D01*
X149521502Y-43609820D01*
X149462537Y-43499506D01*
X149383185Y-43402815D01*
X149286494Y-43323463D01*
X149176180Y-43264498D01*
X149056482Y-43228188D01*
X148932000Y-43215928D01*
X148367750Y-43219000D01*
X148209000Y-43377750D01*
X147955000Y-43377750D01*
X147796250Y-43219000D01*
X147232000Y-43215928D01*
X147107518Y-43228188D01*
X146987820Y-43264498D01*
X146877506Y-43323463D01*
X146813297Y-43376157D01*
X146810000Y-43342678D01*
X146810000Y-35874801D01*
X147970005Y-34714797D01*
X148044889Y-34737513D01*
X148263050Y-34759000D01*
X148408950Y-34759000D01*
X148627111Y-34737513D01*
X148907034Y-34652599D01*
X149165014Y-34514706D01*
X149391134Y-34329134D01*
X149576706Y-34103014D01*
X149606000Y-34048209D01*
X149635294Y-34103014D01*
M02*
