G04 #@! TF.GenerationSoftware,KiCad,Pcbnew,(5.1.4)-1*
G04 #@! TF.CreationDate,2020-01-16T18:32:51+01:00*
G04 #@! TF.ProjectId,lumos-cache,6c756d6f-732d-4636-9163-68652e6b6963,rev?*
G04 #@! TF.SameCoordinates,Original*
G04 #@! TF.FileFunction,Copper,L2,Bot*
G04 #@! TF.FilePolarity,Positive*
%FSLAX46Y46*%
G04 Gerber Fmt 4.6, Leading zero omitted, Abs format (unit mm)*
G04 Created by KiCad (PCBNEW (5.1.4)-1) date 2020-01-16 18:32:51*
%MOMM*%
%LPD*%
G04 APERTURE LIST*
%ADD10O,1.700000X1.700000*%
%ADD11R,1.700000X1.700000*%
%ADD12O,1.600000X1.600000*%
%ADD13C,1.600000*%
%ADD14O,2.000000X1.600000*%
%ADD15R,2.000000X2.000000*%
%ADD16C,0.800000*%
%ADD17C,0.250000*%
%ADD18C,0.500000*%
%ADD19C,0.254000*%
G04 APERTURE END LIST*
D10*
X148082000Y-52324000D03*
X148082000Y-49784000D03*
X148082000Y-47244000D03*
D11*
X148082000Y-44704000D03*
D12*
X117602000Y-64770000D03*
D13*
X117602000Y-52070000D03*
D14*
X121412000Y-57658000D03*
X121412000Y-55118000D03*
X121412000Y-52578000D03*
X121412000Y-50038000D03*
X121412000Y-47498000D03*
X121412000Y-44958000D03*
X121412000Y-42418000D03*
X121412000Y-39878000D03*
X144272000Y-39878000D03*
X144272000Y-42418000D03*
X144272000Y-44958000D03*
X144272000Y-47498000D03*
X144272000Y-50038000D03*
X144272000Y-52578000D03*
D15*
X144272000Y-57658000D03*
D14*
X144272000Y-55118000D03*
D10*
X148336000Y-61722000D03*
D11*
X148336000Y-64262000D03*
D10*
X152400000Y-61722000D03*
D11*
X152400000Y-64262000D03*
D10*
X156464000Y-61722000D03*
D11*
X156464000Y-64262000D03*
D10*
X148336000Y-33274000D03*
X150876000Y-33274000D03*
D11*
X153416000Y-33274000D03*
D10*
X117602000Y-33274000D03*
X117602000Y-35814000D03*
X117602000Y-38354000D03*
D11*
X117602000Y-40894000D03*
D10*
X148336000Y-38354000D03*
X150876000Y-38354000D03*
D11*
X153416000Y-38354000D03*
D16*
X113030000Y-42418000D03*
X119634000Y-42926000D03*
D17*
X153416000Y-34374000D02*
X153416000Y-38354000D01*
X153416000Y-33274000D02*
X153416000Y-34374000D01*
X149436000Y-64262000D02*
X152400000Y-64262000D01*
X148336000Y-64262000D02*
X149436000Y-64262000D01*
X152400000Y-64262000D02*
X156464000Y-64262000D01*
X149182000Y-44704000D02*
X148082000Y-44704000D01*
X153416000Y-40470000D02*
X149182000Y-44704000D01*
X153416000Y-33274000D02*
X153416000Y-40470000D01*
D18*
X143002000Y-59690000D02*
X144825002Y-59690000D01*
X146349002Y-54056998D02*
X148082000Y-52324000D01*
X146349002Y-58166000D02*
X146349002Y-54056998D01*
X118618000Y-59690000D02*
X113030000Y-54102000D01*
X113030000Y-54102000D02*
X113030000Y-42418000D01*
D17*
X121612000Y-39878000D02*
X121412000Y-39878000D01*
D18*
X125730000Y-43996000D02*
X121612000Y-39878000D01*
X125730000Y-59690000D02*
X125730000Y-43996000D01*
X125730000Y-59690000D02*
X118618000Y-59690000D01*
X143002000Y-59690000D02*
X125730000Y-59690000D01*
X144825002Y-59690000D02*
X146304000Y-59690000D01*
D17*
X146304000Y-58211002D02*
X146349002Y-58166000D01*
D18*
X146304000Y-59690000D02*
X146304000Y-58211002D01*
D17*
X124206000Y-39878000D02*
X144272000Y-39878000D01*
X117602000Y-33274000D02*
X124206000Y-39878000D01*
X144272000Y-38828000D02*
X144272000Y-39878000D01*
X144746000Y-38354000D02*
X144272000Y-38828000D01*
X148336000Y-38354000D02*
X144746000Y-38354000D01*
X121212000Y-52578000D02*
X121412000Y-52578000D01*
X116426999Y-47792999D02*
X121212000Y-52578000D01*
X116426999Y-36989001D02*
X116426999Y-47792999D01*
X117602000Y-35814000D02*
X116426999Y-36989001D01*
X117602000Y-38354000D02*
X119634000Y-40386000D01*
X119634000Y-40386000D02*
X119634000Y-42926000D01*
D19*
G36*
X160490540Y-31672397D02*
G01*
X160698833Y-31735285D01*
X160890937Y-31837428D01*
X161059553Y-31974947D01*
X161198241Y-32142593D01*
X161301726Y-32333985D01*
X161366066Y-32541835D01*
X161392000Y-32788581D01*
X161392001Y-66515713D01*
X161372441Y-66715204D01*
X161323881Y-66876040D01*
X161245008Y-67024378D01*
X161138822Y-67154575D01*
X161009372Y-67261665D01*
X160861586Y-67341572D01*
X160701094Y-67391253D01*
X160503695Y-67412000D01*
X113062279Y-67412000D01*
X112813460Y-67387603D01*
X112605170Y-67324717D01*
X112413062Y-67222572D01*
X112244446Y-67085052D01*
X112105760Y-66917409D01*
X112002275Y-66726017D01*
X111937934Y-66518166D01*
X111912000Y-66271419D01*
X111912000Y-64770000D01*
X116160057Y-64770000D01*
X116187764Y-65051309D01*
X116269818Y-65321808D01*
X116403068Y-65571101D01*
X116582392Y-65789608D01*
X116800899Y-65968932D01*
X117050192Y-66102182D01*
X117320691Y-66184236D01*
X117531508Y-66205000D01*
X117672492Y-66205000D01*
X117883309Y-66184236D01*
X118153808Y-66102182D01*
X118403101Y-65968932D01*
X118621608Y-65789608D01*
X118800932Y-65571101D01*
X118934182Y-65321808D01*
X118997825Y-65112000D01*
X146847928Y-65112000D01*
X146860188Y-65236482D01*
X146896498Y-65356180D01*
X146955463Y-65466494D01*
X147034815Y-65563185D01*
X147131506Y-65642537D01*
X147241820Y-65701502D01*
X147361518Y-65737812D01*
X147486000Y-65750072D01*
X148050250Y-65747000D01*
X148209000Y-65588250D01*
X148209000Y-64389000D01*
X148463000Y-64389000D01*
X148463000Y-65588250D01*
X148621750Y-65747000D01*
X149186000Y-65750072D01*
X149310482Y-65737812D01*
X149430180Y-65701502D01*
X149540494Y-65642537D01*
X149637185Y-65563185D01*
X149716537Y-65466494D01*
X149775502Y-65356180D01*
X149811812Y-65236482D01*
X149824072Y-65112000D01*
X150911928Y-65112000D01*
X150924188Y-65236482D01*
X150960498Y-65356180D01*
X151019463Y-65466494D01*
X151098815Y-65563185D01*
X151195506Y-65642537D01*
X151305820Y-65701502D01*
X151425518Y-65737812D01*
X151550000Y-65750072D01*
X152114250Y-65747000D01*
X152273000Y-65588250D01*
X152273000Y-64389000D01*
X152527000Y-64389000D01*
X152527000Y-65588250D01*
X152685750Y-65747000D01*
X153250000Y-65750072D01*
X153374482Y-65737812D01*
X153494180Y-65701502D01*
X153604494Y-65642537D01*
X153701185Y-65563185D01*
X153780537Y-65466494D01*
X153839502Y-65356180D01*
X153875812Y-65236482D01*
X153888072Y-65112000D01*
X154975928Y-65112000D01*
X154988188Y-65236482D01*
X155024498Y-65356180D01*
X155083463Y-65466494D01*
X155162815Y-65563185D01*
X155259506Y-65642537D01*
X155369820Y-65701502D01*
X155489518Y-65737812D01*
X155614000Y-65750072D01*
X156178250Y-65747000D01*
X156337000Y-65588250D01*
X156337000Y-64389000D01*
X156591000Y-64389000D01*
X156591000Y-65588250D01*
X156749750Y-65747000D01*
X157314000Y-65750072D01*
X157438482Y-65737812D01*
X157558180Y-65701502D01*
X157668494Y-65642537D01*
X157765185Y-65563185D01*
X157844537Y-65466494D01*
X157903502Y-65356180D01*
X157939812Y-65236482D01*
X157952072Y-65112000D01*
X157949000Y-64547750D01*
X157790250Y-64389000D01*
X156591000Y-64389000D01*
X156337000Y-64389000D01*
X155137750Y-64389000D01*
X154979000Y-64547750D01*
X154975928Y-65112000D01*
X153888072Y-65112000D01*
X153885000Y-64547750D01*
X153726250Y-64389000D01*
X152527000Y-64389000D01*
X152273000Y-64389000D01*
X151073750Y-64389000D01*
X150915000Y-64547750D01*
X150911928Y-65112000D01*
X149824072Y-65112000D01*
X149821000Y-64547750D01*
X149662250Y-64389000D01*
X148463000Y-64389000D01*
X148209000Y-64389000D01*
X147009750Y-64389000D01*
X146851000Y-64547750D01*
X146847928Y-65112000D01*
X118997825Y-65112000D01*
X119016236Y-65051309D01*
X119043943Y-64770000D01*
X119016236Y-64488691D01*
X118934182Y-64218192D01*
X118800932Y-63968899D01*
X118621608Y-63750392D01*
X118403101Y-63571068D01*
X118153808Y-63437818D01*
X117883309Y-63355764D01*
X117672492Y-63335000D01*
X117531508Y-63335000D01*
X117320691Y-63355764D01*
X117050192Y-63437818D01*
X116800899Y-63571068D01*
X116582392Y-63750392D01*
X116403068Y-63968899D01*
X116269818Y-64218192D01*
X116187764Y-64488691D01*
X116160057Y-64770000D01*
X111912000Y-64770000D01*
X111912000Y-61722000D01*
X146843815Y-61722000D01*
X146872487Y-62013111D01*
X146957401Y-62293034D01*
X147095294Y-62551014D01*
X147280866Y-62777134D01*
X147310687Y-62801607D01*
X147241820Y-62822498D01*
X147131506Y-62881463D01*
X147034815Y-62960815D01*
X146955463Y-63057506D01*
X146896498Y-63167820D01*
X146860188Y-63287518D01*
X146847928Y-63412000D01*
X146851000Y-63976250D01*
X147009750Y-64135000D01*
X148209000Y-64135000D01*
X148209000Y-64115000D01*
X148463000Y-64115000D01*
X148463000Y-64135000D01*
X149662250Y-64135000D01*
X149821000Y-63976250D01*
X149824072Y-63412000D01*
X149811812Y-63287518D01*
X149775502Y-63167820D01*
X149716537Y-63057506D01*
X149637185Y-62960815D01*
X149540494Y-62881463D01*
X149430180Y-62822498D01*
X149361313Y-62801607D01*
X149391134Y-62777134D01*
X149576706Y-62551014D01*
X149714599Y-62293034D01*
X149799513Y-62013111D01*
X149828185Y-61722000D01*
X150907815Y-61722000D01*
X150936487Y-62013111D01*
X151021401Y-62293034D01*
X151159294Y-62551014D01*
X151344866Y-62777134D01*
X151374687Y-62801607D01*
X151305820Y-62822498D01*
X151195506Y-62881463D01*
X151098815Y-62960815D01*
X151019463Y-63057506D01*
X150960498Y-63167820D01*
X150924188Y-63287518D01*
X150911928Y-63412000D01*
X150915000Y-63976250D01*
X151073750Y-64135000D01*
X152273000Y-64135000D01*
X152273000Y-64115000D01*
X152527000Y-64115000D01*
X152527000Y-64135000D01*
X153726250Y-64135000D01*
X153885000Y-63976250D01*
X153888072Y-63412000D01*
X153875812Y-63287518D01*
X153839502Y-63167820D01*
X153780537Y-63057506D01*
X153701185Y-62960815D01*
X153604494Y-62881463D01*
X153494180Y-62822498D01*
X153425313Y-62801607D01*
X153455134Y-62777134D01*
X153640706Y-62551014D01*
X153778599Y-62293034D01*
X153863513Y-62013111D01*
X153892185Y-61722000D01*
X154971815Y-61722000D01*
X155000487Y-62013111D01*
X155085401Y-62293034D01*
X155223294Y-62551014D01*
X155408866Y-62777134D01*
X155438687Y-62801607D01*
X155369820Y-62822498D01*
X155259506Y-62881463D01*
X155162815Y-62960815D01*
X155083463Y-63057506D01*
X155024498Y-63167820D01*
X154988188Y-63287518D01*
X154975928Y-63412000D01*
X154979000Y-63976250D01*
X155137750Y-64135000D01*
X156337000Y-64135000D01*
X156337000Y-64115000D01*
X156591000Y-64115000D01*
X156591000Y-64135000D01*
X157790250Y-64135000D01*
X157949000Y-63976250D01*
X157952072Y-63412000D01*
X157939812Y-63287518D01*
X157903502Y-63167820D01*
X157844537Y-63057506D01*
X157765185Y-62960815D01*
X157668494Y-62881463D01*
X157558180Y-62822498D01*
X157489313Y-62801607D01*
X157519134Y-62777134D01*
X157704706Y-62551014D01*
X157842599Y-62293034D01*
X157927513Y-62013111D01*
X157956185Y-61722000D01*
X157927513Y-61430889D01*
X157842599Y-61150966D01*
X157704706Y-60892986D01*
X157519134Y-60666866D01*
X157293014Y-60481294D01*
X157035034Y-60343401D01*
X156755111Y-60258487D01*
X156536950Y-60237000D01*
X156391050Y-60237000D01*
X156172889Y-60258487D01*
X155892966Y-60343401D01*
X155634986Y-60481294D01*
X155408866Y-60666866D01*
X155223294Y-60892986D01*
X155085401Y-61150966D01*
X155000487Y-61430889D01*
X154971815Y-61722000D01*
X153892185Y-61722000D01*
X153863513Y-61430889D01*
X153778599Y-61150966D01*
X153640706Y-60892986D01*
X153455134Y-60666866D01*
X153229014Y-60481294D01*
X152971034Y-60343401D01*
X152691111Y-60258487D01*
X152472950Y-60237000D01*
X152327050Y-60237000D01*
X152108889Y-60258487D01*
X151828966Y-60343401D01*
X151570986Y-60481294D01*
X151344866Y-60666866D01*
X151159294Y-60892986D01*
X151021401Y-61150966D01*
X150936487Y-61430889D01*
X150907815Y-61722000D01*
X149828185Y-61722000D01*
X149799513Y-61430889D01*
X149714599Y-61150966D01*
X149576706Y-60892986D01*
X149391134Y-60666866D01*
X149165014Y-60481294D01*
X148907034Y-60343401D01*
X148627111Y-60258487D01*
X148408950Y-60237000D01*
X148263050Y-60237000D01*
X148044889Y-60258487D01*
X147764966Y-60343401D01*
X147506986Y-60481294D01*
X147280866Y-60666866D01*
X147095294Y-60892986D01*
X146957401Y-61150966D01*
X146872487Y-61430889D01*
X146843815Y-61722000D01*
X111912000Y-61722000D01*
X111912000Y-42316061D01*
X111995000Y-42316061D01*
X111995000Y-42519939D01*
X112034774Y-42719898D01*
X112112795Y-42908256D01*
X112145001Y-42956456D01*
X112145000Y-54058531D01*
X112140719Y-54102000D01*
X112145000Y-54145469D01*
X112145000Y-54145476D01*
X112157805Y-54275489D01*
X112208411Y-54442312D01*
X112290589Y-54596058D01*
X112401183Y-54730817D01*
X112434956Y-54758534D01*
X117961470Y-60285049D01*
X117989183Y-60318817D01*
X118022951Y-60346530D01*
X118022953Y-60346532D01*
X118094452Y-60405210D01*
X118123941Y-60429411D01*
X118277687Y-60511589D01*
X118444510Y-60562195D01*
X118574523Y-60575000D01*
X118574533Y-60575000D01*
X118617999Y-60579281D01*
X118661465Y-60575000D01*
X125686523Y-60575000D01*
X125730000Y-60579282D01*
X125773476Y-60575000D01*
X146260523Y-60575000D01*
X146304000Y-60579282D01*
X146347476Y-60575000D01*
X146347477Y-60575000D01*
X146477490Y-60562195D01*
X146644313Y-60511589D01*
X146798059Y-60429411D01*
X146932817Y-60318817D01*
X147043411Y-60184059D01*
X147125589Y-60030313D01*
X147176195Y-59863490D01*
X147193282Y-59690000D01*
X147189000Y-59646523D01*
X147189000Y-58445628D01*
X147221197Y-58339490D01*
X147234002Y-58209477D01*
X147234002Y-54423576D01*
X147862966Y-53794612D01*
X148009050Y-53809000D01*
X148154950Y-53809000D01*
X148373111Y-53787513D01*
X148653034Y-53702599D01*
X148911014Y-53564706D01*
X149137134Y-53379134D01*
X149322706Y-53153014D01*
X149460599Y-52895034D01*
X149545513Y-52615111D01*
X149574185Y-52324000D01*
X149545513Y-52032889D01*
X149460599Y-51752966D01*
X149322706Y-51494986D01*
X149137134Y-51268866D01*
X148911014Y-51083294D01*
X148856209Y-51054000D01*
X148911014Y-51024706D01*
X149137134Y-50839134D01*
X149322706Y-50613014D01*
X149460599Y-50355034D01*
X149545513Y-50075111D01*
X149574185Y-49784000D01*
X149545513Y-49492889D01*
X149460599Y-49212966D01*
X149322706Y-48954986D01*
X149137134Y-48728866D01*
X148911014Y-48543294D01*
X148856209Y-48514000D01*
X148911014Y-48484706D01*
X149137134Y-48299134D01*
X149322706Y-48073014D01*
X149460599Y-47815034D01*
X149545513Y-47535111D01*
X149574185Y-47244000D01*
X149545513Y-46952889D01*
X149460599Y-46672966D01*
X149322706Y-46414986D01*
X149137134Y-46188866D01*
X149107313Y-46164393D01*
X149176180Y-46143502D01*
X149286494Y-46084537D01*
X149383185Y-46005185D01*
X149462537Y-45908494D01*
X149521502Y-45798180D01*
X149557812Y-45678482D01*
X149570072Y-45554000D01*
X149567000Y-44989750D01*
X149408250Y-44831000D01*
X148209000Y-44831000D01*
X148209000Y-44851000D01*
X147955000Y-44851000D01*
X147955000Y-44831000D01*
X146755750Y-44831000D01*
X146597000Y-44989750D01*
X146593928Y-45554000D01*
X146606188Y-45678482D01*
X146642498Y-45798180D01*
X146701463Y-45908494D01*
X146780815Y-46005185D01*
X146877506Y-46084537D01*
X146987820Y-46143502D01*
X147056687Y-46164393D01*
X147026866Y-46188866D01*
X146841294Y-46414986D01*
X146703401Y-46672966D01*
X146618487Y-46952889D01*
X146589815Y-47244000D01*
X146618487Y-47535111D01*
X146703401Y-47815034D01*
X146841294Y-48073014D01*
X147026866Y-48299134D01*
X147252986Y-48484706D01*
X147307791Y-48514000D01*
X147252986Y-48543294D01*
X147026866Y-48728866D01*
X146841294Y-48954986D01*
X146703401Y-49212966D01*
X146618487Y-49492889D01*
X146589815Y-49784000D01*
X146618487Y-50075111D01*
X146703401Y-50355034D01*
X146841294Y-50613014D01*
X147026866Y-50839134D01*
X147252986Y-51024706D01*
X147307791Y-51054000D01*
X147252986Y-51083294D01*
X147026866Y-51268866D01*
X146841294Y-51494986D01*
X146703401Y-51752966D01*
X146618487Y-52032889D01*
X146589815Y-52324000D01*
X146611388Y-52543034D01*
X145753953Y-53400469D01*
X145720186Y-53428181D01*
X145692473Y-53461949D01*
X145692470Y-53461952D01*
X145609592Y-53562939D01*
X145527414Y-53716685D01*
X145476807Y-53883508D01*
X145459721Y-54056998D01*
X145461352Y-54073562D01*
X145273101Y-53919068D01*
X145140142Y-53848000D01*
X145273101Y-53776932D01*
X145491608Y-53597608D01*
X145670932Y-53379101D01*
X145804182Y-53129808D01*
X145886236Y-52859309D01*
X145913943Y-52578000D01*
X145886236Y-52296691D01*
X145804182Y-52026192D01*
X145670932Y-51776899D01*
X145491608Y-51558392D01*
X145273101Y-51379068D01*
X145140142Y-51308000D01*
X145273101Y-51236932D01*
X145491608Y-51057608D01*
X145670932Y-50839101D01*
X145804182Y-50589808D01*
X145886236Y-50319309D01*
X145913943Y-50038000D01*
X145886236Y-49756691D01*
X145804182Y-49486192D01*
X145670932Y-49236899D01*
X145491608Y-49018392D01*
X145273101Y-48839068D01*
X145140142Y-48768000D01*
X145273101Y-48696932D01*
X145491608Y-48517608D01*
X145670932Y-48299101D01*
X145804182Y-48049808D01*
X145886236Y-47779309D01*
X145913943Y-47498000D01*
X145886236Y-47216691D01*
X145804182Y-46946192D01*
X145670932Y-46696899D01*
X145491608Y-46478392D01*
X145273101Y-46299068D01*
X145140142Y-46228000D01*
X145273101Y-46156932D01*
X145491608Y-45977608D01*
X145670932Y-45759101D01*
X145804182Y-45509808D01*
X145886236Y-45239309D01*
X145913943Y-44958000D01*
X145886236Y-44676691D01*
X145804182Y-44406192D01*
X145670932Y-44156899D01*
X145491608Y-43938392D01*
X145388777Y-43854000D01*
X146593928Y-43854000D01*
X146597000Y-44418250D01*
X146755750Y-44577000D01*
X147955000Y-44577000D01*
X147955000Y-43377750D01*
X148209000Y-43377750D01*
X148209000Y-44577000D01*
X149408250Y-44577000D01*
X149567000Y-44418250D01*
X149570072Y-43854000D01*
X149557812Y-43729518D01*
X149521502Y-43609820D01*
X149462537Y-43499506D01*
X149383185Y-43402815D01*
X149286494Y-43323463D01*
X149176180Y-43264498D01*
X149056482Y-43228188D01*
X148932000Y-43215928D01*
X148367750Y-43219000D01*
X148209000Y-43377750D01*
X147955000Y-43377750D01*
X147796250Y-43219000D01*
X147232000Y-43215928D01*
X147107518Y-43228188D01*
X146987820Y-43264498D01*
X146877506Y-43323463D01*
X146780815Y-43402815D01*
X146701463Y-43499506D01*
X146642498Y-43609820D01*
X146606188Y-43729518D01*
X146593928Y-43854000D01*
X145388777Y-43854000D01*
X145273101Y-43759068D01*
X145140142Y-43688000D01*
X145273101Y-43616932D01*
X145491608Y-43437608D01*
X145670932Y-43219101D01*
X145804182Y-42969808D01*
X145886236Y-42699309D01*
X145913943Y-42418000D01*
X145886236Y-42136691D01*
X145804182Y-41866192D01*
X145670932Y-41616899D01*
X145491608Y-41398392D01*
X145273101Y-41219068D01*
X145140142Y-41148000D01*
X145273101Y-41076932D01*
X145491608Y-40897608D01*
X145670932Y-40679101D01*
X145804182Y-40429808D01*
X145886236Y-40159309D01*
X145913943Y-39878000D01*
X145886236Y-39596691D01*
X145804182Y-39326192D01*
X145690763Y-39114000D01*
X147058405Y-39114000D01*
X147095294Y-39183014D01*
X147280866Y-39409134D01*
X147506986Y-39594706D01*
X147764966Y-39732599D01*
X148044889Y-39817513D01*
X148263050Y-39839000D01*
X148408950Y-39839000D01*
X148627111Y-39817513D01*
X148907034Y-39732599D01*
X149165014Y-39594706D01*
X149391134Y-39409134D01*
X149576706Y-39183014D01*
X149606000Y-39128209D01*
X149635294Y-39183014D01*
X149820866Y-39409134D01*
X150046986Y-39594706D01*
X150304966Y-39732599D01*
X150584889Y-39817513D01*
X150803050Y-39839000D01*
X150948950Y-39839000D01*
X151167111Y-39817513D01*
X151447034Y-39732599D01*
X151705014Y-39594706D01*
X151931134Y-39409134D01*
X151955607Y-39379313D01*
X151976498Y-39448180D01*
X152035463Y-39558494D01*
X152114815Y-39655185D01*
X152211506Y-39734537D01*
X152321820Y-39793502D01*
X152441518Y-39829812D01*
X152566000Y-39842072D01*
X153130250Y-39839000D01*
X153289000Y-39680250D01*
X153289000Y-38481000D01*
X153543000Y-38481000D01*
X153543000Y-39680250D01*
X153701750Y-39839000D01*
X154266000Y-39842072D01*
X154390482Y-39829812D01*
X154510180Y-39793502D01*
X154620494Y-39734537D01*
X154717185Y-39655185D01*
X154796537Y-39558494D01*
X154855502Y-39448180D01*
X154891812Y-39328482D01*
X154904072Y-39204000D01*
X154901000Y-38639750D01*
X154742250Y-38481000D01*
X153543000Y-38481000D01*
X153289000Y-38481000D01*
X153269000Y-38481000D01*
X153269000Y-38227000D01*
X153289000Y-38227000D01*
X153289000Y-37027750D01*
X153543000Y-37027750D01*
X153543000Y-38227000D01*
X154742250Y-38227000D01*
X154901000Y-38068250D01*
X154904072Y-37504000D01*
X154891812Y-37379518D01*
X154855502Y-37259820D01*
X154796537Y-37149506D01*
X154717185Y-37052815D01*
X154620494Y-36973463D01*
X154510180Y-36914498D01*
X154390482Y-36878188D01*
X154266000Y-36865928D01*
X153701750Y-36869000D01*
X153543000Y-37027750D01*
X153289000Y-37027750D01*
X153130250Y-36869000D01*
X152566000Y-36865928D01*
X152441518Y-36878188D01*
X152321820Y-36914498D01*
X152211506Y-36973463D01*
X152114815Y-37052815D01*
X152035463Y-37149506D01*
X151976498Y-37259820D01*
X151955607Y-37328687D01*
X151931134Y-37298866D01*
X151705014Y-37113294D01*
X151447034Y-36975401D01*
X151167111Y-36890487D01*
X150948950Y-36869000D01*
X150803050Y-36869000D01*
X150584889Y-36890487D01*
X150304966Y-36975401D01*
X150046986Y-37113294D01*
X149820866Y-37298866D01*
X149635294Y-37524986D01*
X149606000Y-37579791D01*
X149576706Y-37524986D01*
X149391134Y-37298866D01*
X149165014Y-37113294D01*
X148907034Y-36975401D01*
X148627111Y-36890487D01*
X148408950Y-36869000D01*
X148263050Y-36869000D01*
X148044889Y-36890487D01*
X147764966Y-36975401D01*
X147506986Y-37113294D01*
X147280866Y-37298866D01*
X147095294Y-37524986D01*
X147058405Y-37594000D01*
X144783322Y-37594000D01*
X144745999Y-37590324D01*
X144708676Y-37594000D01*
X144708667Y-37594000D01*
X144597014Y-37604997D01*
X144453753Y-37648454D01*
X144321724Y-37719026D01*
X144205999Y-37813999D01*
X144182196Y-37843003D01*
X143761003Y-38264196D01*
X143731999Y-38287999D01*
X143677834Y-38354000D01*
X143637026Y-38403724D01*
X143568986Y-38531017D01*
X143520192Y-38545818D01*
X143270899Y-38679068D01*
X143052392Y-38858392D01*
X142873068Y-39076899D01*
X142851099Y-39118000D01*
X124520802Y-39118000D01*
X119042797Y-33639996D01*
X119065513Y-33565111D01*
X119094185Y-33274000D01*
X146843815Y-33274000D01*
X146872487Y-33565111D01*
X146957401Y-33845034D01*
X147095294Y-34103014D01*
X147280866Y-34329134D01*
X147506986Y-34514706D01*
X147764966Y-34652599D01*
X148044889Y-34737513D01*
X148263050Y-34759000D01*
X148408950Y-34759000D01*
X148627111Y-34737513D01*
X148907034Y-34652599D01*
X149165014Y-34514706D01*
X149391134Y-34329134D01*
X149576706Y-34103014D01*
X149606000Y-34048209D01*
X149635294Y-34103014D01*
X149820866Y-34329134D01*
X150046986Y-34514706D01*
X150304966Y-34652599D01*
X150584889Y-34737513D01*
X150803050Y-34759000D01*
X150948950Y-34759000D01*
X151167111Y-34737513D01*
X151447034Y-34652599D01*
X151705014Y-34514706D01*
X151931134Y-34329134D01*
X151955607Y-34299313D01*
X151976498Y-34368180D01*
X152035463Y-34478494D01*
X152114815Y-34575185D01*
X152211506Y-34654537D01*
X152321820Y-34713502D01*
X152441518Y-34749812D01*
X152566000Y-34762072D01*
X153130250Y-34759000D01*
X153289000Y-34600250D01*
X153289000Y-33401000D01*
X153543000Y-33401000D01*
X153543000Y-34600250D01*
X153701750Y-34759000D01*
X154266000Y-34762072D01*
X154390482Y-34749812D01*
X154510180Y-34713502D01*
X154620494Y-34654537D01*
X154717185Y-34575185D01*
X154796537Y-34478494D01*
X154855502Y-34368180D01*
X154891812Y-34248482D01*
X154904072Y-34124000D01*
X154901000Y-33559750D01*
X154742250Y-33401000D01*
X153543000Y-33401000D01*
X153289000Y-33401000D01*
X153269000Y-33401000D01*
X153269000Y-33147000D01*
X153289000Y-33147000D01*
X153289000Y-31947750D01*
X153543000Y-31947750D01*
X153543000Y-33147000D01*
X154742250Y-33147000D01*
X154901000Y-32988250D01*
X154904072Y-32424000D01*
X154891812Y-32299518D01*
X154855502Y-32179820D01*
X154796537Y-32069506D01*
X154717185Y-31972815D01*
X154620494Y-31893463D01*
X154510180Y-31834498D01*
X154390482Y-31798188D01*
X154266000Y-31785928D01*
X153701750Y-31789000D01*
X153543000Y-31947750D01*
X153289000Y-31947750D01*
X153130250Y-31789000D01*
X152566000Y-31785928D01*
X152441518Y-31798188D01*
X152321820Y-31834498D01*
X152211506Y-31893463D01*
X152114815Y-31972815D01*
X152035463Y-32069506D01*
X151976498Y-32179820D01*
X151955607Y-32248687D01*
X151931134Y-32218866D01*
X151705014Y-32033294D01*
X151447034Y-31895401D01*
X151167111Y-31810487D01*
X150948950Y-31789000D01*
X150803050Y-31789000D01*
X150584889Y-31810487D01*
X150304966Y-31895401D01*
X150046986Y-32033294D01*
X149820866Y-32218866D01*
X149635294Y-32444986D01*
X149606000Y-32499791D01*
X149576706Y-32444986D01*
X149391134Y-32218866D01*
X149165014Y-32033294D01*
X148907034Y-31895401D01*
X148627111Y-31810487D01*
X148408950Y-31789000D01*
X148263050Y-31789000D01*
X148044889Y-31810487D01*
X147764966Y-31895401D01*
X147506986Y-32033294D01*
X147280866Y-32218866D01*
X147095294Y-32444986D01*
X146957401Y-32702966D01*
X146872487Y-32982889D01*
X146843815Y-33274000D01*
X119094185Y-33274000D01*
X119065513Y-32982889D01*
X118980599Y-32702966D01*
X118842706Y-32444986D01*
X118657134Y-32218866D01*
X118431014Y-32033294D01*
X118173034Y-31895401D01*
X117893111Y-31810487D01*
X117674950Y-31789000D01*
X117529050Y-31789000D01*
X117310889Y-31810487D01*
X117030966Y-31895401D01*
X116772986Y-32033294D01*
X116546866Y-32218866D01*
X116361294Y-32444986D01*
X116223401Y-32702966D01*
X116138487Y-32982889D01*
X116109815Y-33274000D01*
X116138487Y-33565111D01*
X116223401Y-33845034D01*
X116361294Y-34103014D01*
X116546866Y-34329134D01*
X116772986Y-34514706D01*
X116827791Y-34544000D01*
X116772986Y-34573294D01*
X116546866Y-34758866D01*
X116361294Y-34984986D01*
X116223401Y-35242966D01*
X116138487Y-35522889D01*
X116109815Y-35814000D01*
X116138487Y-36105111D01*
X116161203Y-36179996D01*
X115916002Y-36425197D01*
X115886998Y-36449000D01*
X115831870Y-36516175D01*
X115792025Y-36564725D01*
X115721454Y-36696754D01*
X115721453Y-36696755D01*
X115677996Y-36840016D01*
X115666999Y-36951669D01*
X115666999Y-36951679D01*
X115663323Y-36989001D01*
X115666999Y-37026323D01*
X115667000Y-47755667D01*
X115663323Y-47792999D01*
X115677997Y-47941984D01*
X115721453Y-48085245D01*
X115792025Y-48217275D01*
X115859096Y-48299000D01*
X115886999Y-48333000D01*
X115915997Y-48356798D01*
X118510136Y-50950938D01*
X118281727Y-50798320D01*
X118020574Y-50690147D01*
X117743335Y-50635000D01*
X117460665Y-50635000D01*
X117183426Y-50690147D01*
X116922273Y-50798320D01*
X116687241Y-50955363D01*
X116487363Y-51155241D01*
X116330320Y-51390273D01*
X116222147Y-51651426D01*
X116167000Y-51928665D01*
X116167000Y-52211335D01*
X116222147Y-52488574D01*
X116330320Y-52749727D01*
X116487363Y-52984759D01*
X116687241Y-53184637D01*
X116922273Y-53341680D01*
X117183426Y-53449853D01*
X117460665Y-53505000D01*
X117743335Y-53505000D01*
X118020574Y-53449853D01*
X118281727Y-53341680D01*
X118516759Y-53184637D01*
X118716637Y-52984759D01*
X118873680Y-52749727D01*
X118981853Y-52488574D01*
X119037000Y-52211335D01*
X119037000Y-51928665D01*
X118981853Y-51651426D01*
X118873680Y-51390273D01*
X118721062Y-51161864D01*
X119811292Y-52252094D01*
X119797764Y-52296691D01*
X119770057Y-52578000D01*
X119797764Y-52859309D01*
X119879818Y-53129808D01*
X120013068Y-53379101D01*
X120192392Y-53597608D01*
X120410899Y-53776932D01*
X120543858Y-53848000D01*
X120410899Y-53919068D01*
X120192392Y-54098392D01*
X120013068Y-54316899D01*
X119879818Y-54566192D01*
X119797764Y-54836691D01*
X119770057Y-55118000D01*
X119797764Y-55399309D01*
X119879818Y-55669808D01*
X120013068Y-55919101D01*
X120192392Y-56137608D01*
X120410899Y-56316932D01*
X120543858Y-56388000D01*
X120410899Y-56459068D01*
X120192392Y-56638392D01*
X120013068Y-56856899D01*
X119879818Y-57106192D01*
X119797764Y-57376691D01*
X119770057Y-57658000D01*
X119797764Y-57939309D01*
X119879818Y-58209808D01*
X120013068Y-58459101D01*
X120192392Y-58677608D01*
X120347620Y-58805000D01*
X118984579Y-58805000D01*
X113915000Y-53735422D01*
X113915000Y-42956454D01*
X113947205Y-42908256D01*
X114025226Y-42719898D01*
X114065000Y-42519939D01*
X114065000Y-42316061D01*
X114025226Y-42116102D01*
X113947205Y-41927744D01*
X113833937Y-41758226D01*
X113689774Y-41614063D01*
X113520256Y-41500795D01*
X113331898Y-41422774D01*
X113131939Y-41383000D01*
X112928061Y-41383000D01*
X112728102Y-41422774D01*
X112539744Y-41500795D01*
X112370226Y-41614063D01*
X112226063Y-41758226D01*
X112112795Y-41927744D01*
X112034774Y-42116102D01*
X111995000Y-42316061D01*
X111912000Y-42316061D01*
X111912000Y-33052279D01*
X111941234Y-32754125D01*
X112018448Y-32498378D01*
X112143869Y-32262496D01*
X112312716Y-32055470D01*
X112518554Y-31885187D01*
X112753556Y-31758121D01*
X113008756Y-31679124D01*
X113304882Y-31648000D01*
X160241721Y-31648000D01*
X160490540Y-31672397D01*
X160490540Y-31672397D01*
G37*
X160490540Y-31672397D02*
X160698833Y-31735285D01*
X160890937Y-31837428D01*
X161059553Y-31974947D01*
X161198241Y-32142593D01*
X161301726Y-32333985D01*
X161366066Y-32541835D01*
X161392000Y-32788581D01*
X161392001Y-66515713D01*
X161372441Y-66715204D01*
X161323881Y-66876040D01*
X161245008Y-67024378D01*
X161138822Y-67154575D01*
X161009372Y-67261665D01*
X160861586Y-67341572D01*
X160701094Y-67391253D01*
X160503695Y-67412000D01*
X113062279Y-67412000D01*
X112813460Y-67387603D01*
X112605170Y-67324717D01*
X112413062Y-67222572D01*
X112244446Y-67085052D01*
X112105760Y-66917409D01*
X112002275Y-66726017D01*
X111937934Y-66518166D01*
X111912000Y-66271419D01*
X111912000Y-64770000D01*
X116160057Y-64770000D01*
X116187764Y-65051309D01*
X116269818Y-65321808D01*
X116403068Y-65571101D01*
X116582392Y-65789608D01*
X116800899Y-65968932D01*
X117050192Y-66102182D01*
X117320691Y-66184236D01*
X117531508Y-66205000D01*
X117672492Y-66205000D01*
X117883309Y-66184236D01*
X118153808Y-66102182D01*
X118403101Y-65968932D01*
X118621608Y-65789608D01*
X118800932Y-65571101D01*
X118934182Y-65321808D01*
X118997825Y-65112000D01*
X146847928Y-65112000D01*
X146860188Y-65236482D01*
X146896498Y-65356180D01*
X146955463Y-65466494D01*
X147034815Y-65563185D01*
X147131506Y-65642537D01*
X147241820Y-65701502D01*
X147361518Y-65737812D01*
X147486000Y-65750072D01*
X148050250Y-65747000D01*
X148209000Y-65588250D01*
X148209000Y-64389000D01*
X148463000Y-64389000D01*
X148463000Y-65588250D01*
X148621750Y-65747000D01*
X149186000Y-65750072D01*
X149310482Y-65737812D01*
X149430180Y-65701502D01*
X149540494Y-65642537D01*
X149637185Y-65563185D01*
X149716537Y-65466494D01*
X149775502Y-65356180D01*
X149811812Y-65236482D01*
X149824072Y-65112000D01*
X150911928Y-65112000D01*
X150924188Y-65236482D01*
X150960498Y-65356180D01*
X151019463Y-65466494D01*
X151098815Y-65563185D01*
X151195506Y-65642537D01*
X151305820Y-65701502D01*
X151425518Y-65737812D01*
X151550000Y-65750072D01*
X152114250Y-65747000D01*
X152273000Y-65588250D01*
X152273000Y-64389000D01*
X152527000Y-64389000D01*
X152527000Y-65588250D01*
X152685750Y-65747000D01*
X153250000Y-65750072D01*
X153374482Y-65737812D01*
X153494180Y-65701502D01*
X153604494Y-65642537D01*
X153701185Y-65563185D01*
X153780537Y-65466494D01*
X153839502Y-65356180D01*
X153875812Y-65236482D01*
X153888072Y-65112000D01*
X154975928Y-65112000D01*
X154988188Y-65236482D01*
X155024498Y-65356180D01*
X155083463Y-65466494D01*
X155162815Y-65563185D01*
X155259506Y-65642537D01*
X155369820Y-65701502D01*
X155489518Y-65737812D01*
X155614000Y-65750072D01*
X156178250Y-65747000D01*
X156337000Y-65588250D01*
X156337000Y-64389000D01*
X156591000Y-64389000D01*
X156591000Y-65588250D01*
X156749750Y-65747000D01*
X157314000Y-65750072D01*
X157438482Y-65737812D01*
X157558180Y-65701502D01*
X157668494Y-65642537D01*
X157765185Y-65563185D01*
X157844537Y-65466494D01*
X157903502Y-65356180D01*
X157939812Y-65236482D01*
X157952072Y-65112000D01*
X157949000Y-64547750D01*
X157790250Y-64389000D01*
X156591000Y-64389000D01*
X156337000Y-64389000D01*
X155137750Y-64389000D01*
X154979000Y-64547750D01*
X154975928Y-65112000D01*
X153888072Y-65112000D01*
X153885000Y-64547750D01*
X153726250Y-64389000D01*
X152527000Y-64389000D01*
X152273000Y-64389000D01*
X151073750Y-64389000D01*
X150915000Y-64547750D01*
X150911928Y-65112000D01*
X149824072Y-65112000D01*
X149821000Y-64547750D01*
X149662250Y-64389000D01*
X148463000Y-64389000D01*
X148209000Y-64389000D01*
X147009750Y-64389000D01*
X146851000Y-64547750D01*
X146847928Y-65112000D01*
X118997825Y-65112000D01*
X119016236Y-65051309D01*
X119043943Y-64770000D01*
X119016236Y-64488691D01*
X118934182Y-64218192D01*
X118800932Y-63968899D01*
X118621608Y-63750392D01*
X118403101Y-63571068D01*
X118153808Y-63437818D01*
X117883309Y-63355764D01*
X117672492Y-63335000D01*
X117531508Y-63335000D01*
X117320691Y-63355764D01*
X117050192Y-63437818D01*
X116800899Y-63571068D01*
X116582392Y-63750392D01*
X116403068Y-63968899D01*
X116269818Y-64218192D01*
X116187764Y-64488691D01*
X116160057Y-64770000D01*
X111912000Y-64770000D01*
X111912000Y-61722000D01*
X146843815Y-61722000D01*
X146872487Y-62013111D01*
X146957401Y-62293034D01*
X147095294Y-62551014D01*
X147280866Y-62777134D01*
X147310687Y-62801607D01*
X147241820Y-62822498D01*
X147131506Y-62881463D01*
X147034815Y-62960815D01*
X146955463Y-63057506D01*
X146896498Y-63167820D01*
X146860188Y-63287518D01*
X146847928Y-63412000D01*
X146851000Y-63976250D01*
X147009750Y-64135000D01*
X148209000Y-64135000D01*
X148209000Y-64115000D01*
X148463000Y-64115000D01*
X148463000Y-64135000D01*
X149662250Y-64135000D01*
X149821000Y-63976250D01*
X149824072Y-63412000D01*
X149811812Y-63287518D01*
X149775502Y-63167820D01*
X149716537Y-63057506D01*
X149637185Y-62960815D01*
X149540494Y-62881463D01*
X149430180Y-62822498D01*
X149361313Y-62801607D01*
X149391134Y-62777134D01*
X149576706Y-62551014D01*
X149714599Y-62293034D01*
X149799513Y-62013111D01*
X149828185Y-61722000D01*
X150907815Y-61722000D01*
X150936487Y-62013111D01*
X151021401Y-62293034D01*
X151159294Y-62551014D01*
X151344866Y-62777134D01*
X151374687Y-62801607D01*
X151305820Y-62822498D01*
X151195506Y-62881463D01*
X151098815Y-62960815D01*
X151019463Y-63057506D01*
X150960498Y-63167820D01*
X150924188Y-63287518D01*
X150911928Y-63412000D01*
X150915000Y-63976250D01*
X151073750Y-64135000D01*
X152273000Y-64135000D01*
X152273000Y-64115000D01*
X152527000Y-64115000D01*
X152527000Y-64135000D01*
X153726250Y-64135000D01*
X153885000Y-63976250D01*
X153888072Y-63412000D01*
X153875812Y-63287518D01*
X153839502Y-63167820D01*
X153780537Y-63057506D01*
X153701185Y-62960815D01*
X153604494Y-62881463D01*
X153494180Y-62822498D01*
X153425313Y-62801607D01*
X153455134Y-62777134D01*
X153640706Y-62551014D01*
X153778599Y-62293034D01*
X153863513Y-62013111D01*
X153892185Y-61722000D01*
X154971815Y-61722000D01*
X155000487Y-62013111D01*
X155085401Y-62293034D01*
X155223294Y-62551014D01*
X155408866Y-62777134D01*
X155438687Y-62801607D01*
X155369820Y-62822498D01*
X155259506Y-62881463D01*
X155162815Y-62960815D01*
X155083463Y-63057506D01*
X155024498Y-63167820D01*
X154988188Y-63287518D01*
X154975928Y-63412000D01*
X154979000Y-63976250D01*
X155137750Y-64135000D01*
X156337000Y-64135000D01*
X156337000Y-64115000D01*
X156591000Y-64115000D01*
X156591000Y-64135000D01*
X157790250Y-64135000D01*
X157949000Y-63976250D01*
X157952072Y-63412000D01*
X157939812Y-63287518D01*
X157903502Y-63167820D01*
X157844537Y-63057506D01*
X157765185Y-62960815D01*
X157668494Y-62881463D01*
X157558180Y-62822498D01*
X157489313Y-62801607D01*
X157519134Y-62777134D01*
X157704706Y-62551014D01*
X157842599Y-62293034D01*
X157927513Y-62013111D01*
X157956185Y-61722000D01*
X157927513Y-61430889D01*
X157842599Y-61150966D01*
X157704706Y-60892986D01*
X157519134Y-60666866D01*
X157293014Y-60481294D01*
X157035034Y-60343401D01*
X156755111Y-60258487D01*
X156536950Y-60237000D01*
X156391050Y-60237000D01*
X156172889Y-60258487D01*
X155892966Y-60343401D01*
X155634986Y-60481294D01*
X155408866Y-60666866D01*
X155223294Y-60892986D01*
X155085401Y-61150966D01*
X155000487Y-61430889D01*
X154971815Y-61722000D01*
X153892185Y-61722000D01*
X153863513Y-61430889D01*
X153778599Y-61150966D01*
X153640706Y-60892986D01*
X153455134Y-60666866D01*
X153229014Y-60481294D01*
X152971034Y-60343401D01*
X152691111Y-60258487D01*
X152472950Y-60237000D01*
X152327050Y-60237000D01*
X152108889Y-60258487D01*
X151828966Y-60343401D01*
X151570986Y-60481294D01*
X151344866Y-60666866D01*
X151159294Y-60892986D01*
X151021401Y-61150966D01*
X150936487Y-61430889D01*
X150907815Y-61722000D01*
X149828185Y-61722000D01*
X149799513Y-61430889D01*
X149714599Y-61150966D01*
X149576706Y-60892986D01*
X149391134Y-60666866D01*
X149165014Y-60481294D01*
X148907034Y-60343401D01*
X148627111Y-60258487D01*
X148408950Y-60237000D01*
X148263050Y-60237000D01*
X148044889Y-60258487D01*
X147764966Y-60343401D01*
X147506986Y-60481294D01*
X147280866Y-60666866D01*
X147095294Y-60892986D01*
X146957401Y-61150966D01*
X146872487Y-61430889D01*
X146843815Y-61722000D01*
X111912000Y-61722000D01*
X111912000Y-42316061D01*
X111995000Y-42316061D01*
X111995000Y-42519939D01*
X112034774Y-42719898D01*
X112112795Y-42908256D01*
X112145001Y-42956456D01*
X112145000Y-54058531D01*
X112140719Y-54102000D01*
X112145000Y-54145469D01*
X112145000Y-54145476D01*
X112157805Y-54275489D01*
X112208411Y-54442312D01*
X112290589Y-54596058D01*
X112401183Y-54730817D01*
X112434956Y-54758534D01*
X117961470Y-60285049D01*
X117989183Y-60318817D01*
X118022951Y-60346530D01*
X118022953Y-60346532D01*
X118094452Y-60405210D01*
X118123941Y-60429411D01*
X118277687Y-60511589D01*
X118444510Y-60562195D01*
X118574523Y-60575000D01*
X118574533Y-60575000D01*
X118617999Y-60579281D01*
X118661465Y-60575000D01*
X125686523Y-60575000D01*
X125730000Y-60579282D01*
X125773476Y-60575000D01*
X146260523Y-60575000D01*
X146304000Y-60579282D01*
X146347476Y-60575000D01*
X146347477Y-60575000D01*
X146477490Y-60562195D01*
X146644313Y-60511589D01*
X146798059Y-60429411D01*
X146932817Y-60318817D01*
X147043411Y-60184059D01*
X147125589Y-60030313D01*
X147176195Y-59863490D01*
X147193282Y-59690000D01*
X147189000Y-59646523D01*
X147189000Y-58445628D01*
X147221197Y-58339490D01*
X147234002Y-58209477D01*
X147234002Y-54423576D01*
X147862966Y-53794612D01*
X148009050Y-53809000D01*
X148154950Y-53809000D01*
X148373111Y-53787513D01*
X148653034Y-53702599D01*
X148911014Y-53564706D01*
X149137134Y-53379134D01*
X149322706Y-53153014D01*
X149460599Y-52895034D01*
X149545513Y-52615111D01*
X149574185Y-52324000D01*
X149545513Y-52032889D01*
X149460599Y-51752966D01*
X149322706Y-51494986D01*
X149137134Y-51268866D01*
X148911014Y-51083294D01*
X148856209Y-51054000D01*
X148911014Y-51024706D01*
X149137134Y-50839134D01*
X149322706Y-50613014D01*
X149460599Y-50355034D01*
X149545513Y-50075111D01*
X149574185Y-49784000D01*
X149545513Y-49492889D01*
X149460599Y-49212966D01*
X149322706Y-48954986D01*
X149137134Y-48728866D01*
X148911014Y-48543294D01*
X148856209Y-48514000D01*
X148911014Y-48484706D01*
X149137134Y-48299134D01*
X149322706Y-48073014D01*
X149460599Y-47815034D01*
X149545513Y-47535111D01*
X149574185Y-47244000D01*
X149545513Y-46952889D01*
X149460599Y-46672966D01*
X149322706Y-46414986D01*
X149137134Y-46188866D01*
X149107313Y-46164393D01*
X149176180Y-46143502D01*
X149286494Y-46084537D01*
X149383185Y-46005185D01*
X149462537Y-45908494D01*
X149521502Y-45798180D01*
X149557812Y-45678482D01*
X149570072Y-45554000D01*
X149567000Y-44989750D01*
X149408250Y-44831000D01*
X148209000Y-44831000D01*
X148209000Y-44851000D01*
X147955000Y-44851000D01*
X147955000Y-44831000D01*
X146755750Y-44831000D01*
X146597000Y-44989750D01*
X146593928Y-45554000D01*
X146606188Y-45678482D01*
X146642498Y-45798180D01*
X146701463Y-45908494D01*
X146780815Y-46005185D01*
X146877506Y-46084537D01*
X146987820Y-46143502D01*
X147056687Y-46164393D01*
X147026866Y-46188866D01*
X146841294Y-46414986D01*
X146703401Y-46672966D01*
X146618487Y-46952889D01*
X146589815Y-47244000D01*
X146618487Y-47535111D01*
X146703401Y-47815034D01*
X146841294Y-48073014D01*
X147026866Y-48299134D01*
X147252986Y-48484706D01*
X147307791Y-48514000D01*
X147252986Y-48543294D01*
X147026866Y-48728866D01*
X146841294Y-48954986D01*
X146703401Y-49212966D01*
X146618487Y-49492889D01*
X146589815Y-49784000D01*
X146618487Y-50075111D01*
X146703401Y-50355034D01*
X146841294Y-50613014D01*
X147026866Y-50839134D01*
X147252986Y-51024706D01*
X147307791Y-51054000D01*
X147252986Y-51083294D01*
X147026866Y-51268866D01*
X146841294Y-51494986D01*
X146703401Y-51752966D01*
X146618487Y-52032889D01*
X146589815Y-52324000D01*
X146611388Y-52543034D01*
X145753953Y-53400469D01*
X145720186Y-53428181D01*
X145692473Y-53461949D01*
X145692470Y-53461952D01*
X145609592Y-53562939D01*
X145527414Y-53716685D01*
X145476807Y-53883508D01*
X145459721Y-54056998D01*
X145461352Y-54073562D01*
X145273101Y-53919068D01*
X145140142Y-53848000D01*
X145273101Y-53776932D01*
X145491608Y-53597608D01*
X145670932Y-53379101D01*
X145804182Y-53129808D01*
X145886236Y-52859309D01*
X145913943Y-52578000D01*
X145886236Y-52296691D01*
X145804182Y-52026192D01*
X145670932Y-51776899D01*
X145491608Y-51558392D01*
X145273101Y-51379068D01*
X145140142Y-51308000D01*
X145273101Y-51236932D01*
X145491608Y-51057608D01*
X145670932Y-50839101D01*
X145804182Y-50589808D01*
X145886236Y-50319309D01*
X145913943Y-50038000D01*
X145886236Y-49756691D01*
X145804182Y-49486192D01*
X145670932Y-49236899D01*
X145491608Y-49018392D01*
X145273101Y-48839068D01*
X145140142Y-48768000D01*
X145273101Y-48696932D01*
X145491608Y-48517608D01*
X145670932Y-48299101D01*
X145804182Y-48049808D01*
X145886236Y-47779309D01*
X145913943Y-47498000D01*
X145886236Y-47216691D01*
X145804182Y-46946192D01*
X145670932Y-46696899D01*
X145491608Y-46478392D01*
X145273101Y-46299068D01*
X145140142Y-46228000D01*
X145273101Y-46156932D01*
X145491608Y-45977608D01*
X145670932Y-45759101D01*
X145804182Y-45509808D01*
X145886236Y-45239309D01*
X145913943Y-44958000D01*
X145886236Y-44676691D01*
X145804182Y-44406192D01*
X145670932Y-44156899D01*
X145491608Y-43938392D01*
X145388777Y-43854000D01*
X146593928Y-43854000D01*
X146597000Y-44418250D01*
X146755750Y-44577000D01*
X147955000Y-44577000D01*
X147955000Y-43377750D01*
X148209000Y-43377750D01*
X148209000Y-44577000D01*
X149408250Y-44577000D01*
X149567000Y-44418250D01*
X149570072Y-43854000D01*
X149557812Y-43729518D01*
X149521502Y-43609820D01*
X149462537Y-43499506D01*
X149383185Y-43402815D01*
X149286494Y-43323463D01*
X149176180Y-43264498D01*
X149056482Y-43228188D01*
X148932000Y-43215928D01*
X148367750Y-43219000D01*
X148209000Y-43377750D01*
X147955000Y-43377750D01*
X147796250Y-43219000D01*
X147232000Y-43215928D01*
X147107518Y-43228188D01*
X146987820Y-43264498D01*
X146877506Y-43323463D01*
X146780815Y-43402815D01*
X146701463Y-43499506D01*
X146642498Y-43609820D01*
X146606188Y-43729518D01*
X146593928Y-43854000D01*
X145388777Y-43854000D01*
X145273101Y-43759068D01*
X145140142Y-43688000D01*
X145273101Y-43616932D01*
X145491608Y-43437608D01*
X145670932Y-43219101D01*
X145804182Y-42969808D01*
X145886236Y-42699309D01*
X145913943Y-42418000D01*
X145886236Y-42136691D01*
X145804182Y-41866192D01*
X145670932Y-41616899D01*
X145491608Y-41398392D01*
X145273101Y-41219068D01*
X145140142Y-41148000D01*
X145273101Y-41076932D01*
X145491608Y-40897608D01*
X145670932Y-40679101D01*
X145804182Y-40429808D01*
X145886236Y-40159309D01*
X145913943Y-39878000D01*
X145886236Y-39596691D01*
X145804182Y-39326192D01*
X145690763Y-39114000D01*
X147058405Y-39114000D01*
X147095294Y-39183014D01*
X147280866Y-39409134D01*
X147506986Y-39594706D01*
X147764966Y-39732599D01*
X148044889Y-39817513D01*
X148263050Y-39839000D01*
X148408950Y-39839000D01*
X148627111Y-39817513D01*
X148907034Y-39732599D01*
X149165014Y-39594706D01*
X149391134Y-39409134D01*
X149576706Y-39183014D01*
X149606000Y-39128209D01*
X149635294Y-39183014D01*
X149820866Y-39409134D01*
X150046986Y-39594706D01*
X150304966Y-39732599D01*
X150584889Y-39817513D01*
X150803050Y-39839000D01*
X150948950Y-39839000D01*
X151167111Y-39817513D01*
X151447034Y-39732599D01*
X151705014Y-39594706D01*
X151931134Y-39409134D01*
X151955607Y-39379313D01*
X151976498Y-39448180D01*
X152035463Y-39558494D01*
X152114815Y-39655185D01*
X152211506Y-39734537D01*
X152321820Y-39793502D01*
X152441518Y-39829812D01*
X152566000Y-39842072D01*
X153130250Y-39839000D01*
X153289000Y-39680250D01*
X153289000Y-38481000D01*
X153543000Y-38481000D01*
X153543000Y-39680250D01*
X153701750Y-39839000D01*
X154266000Y-39842072D01*
X154390482Y-39829812D01*
X154510180Y-39793502D01*
X154620494Y-39734537D01*
X154717185Y-39655185D01*
X154796537Y-39558494D01*
X154855502Y-39448180D01*
X154891812Y-39328482D01*
X154904072Y-39204000D01*
X154901000Y-38639750D01*
X154742250Y-38481000D01*
X153543000Y-38481000D01*
X153289000Y-38481000D01*
X153269000Y-38481000D01*
X153269000Y-38227000D01*
X153289000Y-38227000D01*
X153289000Y-37027750D01*
X153543000Y-37027750D01*
X153543000Y-38227000D01*
X154742250Y-38227000D01*
X154901000Y-38068250D01*
X154904072Y-37504000D01*
X154891812Y-37379518D01*
X154855502Y-37259820D01*
X154796537Y-37149506D01*
X154717185Y-37052815D01*
X154620494Y-36973463D01*
X154510180Y-36914498D01*
X154390482Y-36878188D01*
X154266000Y-36865928D01*
X153701750Y-36869000D01*
X153543000Y-37027750D01*
X153289000Y-37027750D01*
X153130250Y-36869000D01*
X152566000Y-36865928D01*
X152441518Y-36878188D01*
X152321820Y-36914498D01*
X152211506Y-36973463D01*
X152114815Y-37052815D01*
X152035463Y-37149506D01*
X151976498Y-37259820D01*
X151955607Y-37328687D01*
X151931134Y-37298866D01*
X151705014Y-37113294D01*
X151447034Y-36975401D01*
X151167111Y-36890487D01*
X150948950Y-36869000D01*
X150803050Y-36869000D01*
X150584889Y-36890487D01*
X150304966Y-36975401D01*
X150046986Y-37113294D01*
X149820866Y-37298866D01*
X149635294Y-37524986D01*
X149606000Y-37579791D01*
X149576706Y-37524986D01*
X149391134Y-37298866D01*
X149165014Y-37113294D01*
X148907034Y-36975401D01*
X148627111Y-36890487D01*
X148408950Y-36869000D01*
X148263050Y-36869000D01*
X148044889Y-36890487D01*
X147764966Y-36975401D01*
X147506986Y-37113294D01*
X147280866Y-37298866D01*
X147095294Y-37524986D01*
X147058405Y-37594000D01*
X144783322Y-37594000D01*
X144745999Y-37590324D01*
X144708676Y-37594000D01*
X144708667Y-37594000D01*
X144597014Y-37604997D01*
X144453753Y-37648454D01*
X144321724Y-37719026D01*
X144205999Y-37813999D01*
X144182196Y-37843003D01*
X143761003Y-38264196D01*
X143731999Y-38287999D01*
X143677834Y-38354000D01*
X143637026Y-38403724D01*
X143568986Y-38531017D01*
X143520192Y-38545818D01*
X143270899Y-38679068D01*
X143052392Y-38858392D01*
X142873068Y-39076899D01*
X142851099Y-39118000D01*
X124520802Y-39118000D01*
X119042797Y-33639996D01*
X119065513Y-33565111D01*
X119094185Y-33274000D01*
X146843815Y-33274000D01*
X146872487Y-33565111D01*
X146957401Y-33845034D01*
X147095294Y-34103014D01*
X147280866Y-34329134D01*
X147506986Y-34514706D01*
X147764966Y-34652599D01*
X148044889Y-34737513D01*
X148263050Y-34759000D01*
X148408950Y-34759000D01*
X148627111Y-34737513D01*
X148907034Y-34652599D01*
X149165014Y-34514706D01*
X149391134Y-34329134D01*
X149576706Y-34103014D01*
X149606000Y-34048209D01*
X149635294Y-34103014D01*
X149820866Y-34329134D01*
X150046986Y-34514706D01*
X150304966Y-34652599D01*
X150584889Y-34737513D01*
X150803050Y-34759000D01*
X150948950Y-34759000D01*
X151167111Y-34737513D01*
X151447034Y-34652599D01*
X151705014Y-34514706D01*
X151931134Y-34329134D01*
X151955607Y-34299313D01*
X151976498Y-34368180D01*
X152035463Y-34478494D01*
X152114815Y-34575185D01*
X152211506Y-34654537D01*
X152321820Y-34713502D01*
X152441518Y-34749812D01*
X152566000Y-34762072D01*
X153130250Y-34759000D01*
X153289000Y-34600250D01*
X153289000Y-33401000D01*
X153543000Y-33401000D01*
X153543000Y-34600250D01*
X153701750Y-34759000D01*
X154266000Y-34762072D01*
X154390482Y-34749812D01*
X154510180Y-34713502D01*
X154620494Y-34654537D01*
X154717185Y-34575185D01*
X154796537Y-34478494D01*
X154855502Y-34368180D01*
X154891812Y-34248482D01*
X154904072Y-34124000D01*
X154901000Y-33559750D01*
X154742250Y-33401000D01*
X153543000Y-33401000D01*
X153289000Y-33401000D01*
X153269000Y-33401000D01*
X153269000Y-33147000D01*
X153289000Y-33147000D01*
X153289000Y-31947750D01*
X153543000Y-31947750D01*
X153543000Y-33147000D01*
X154742250Y-33147000D01*
X154901000Y-32988250D01*
X154904072Y-32424000D01*
X154891812Y-32299518D01*
X154855502Y-32179820D01*
X154796537Y-32069506D01*
X154717185Y-31972815D01*
X154620494Y-31893463D01*
X154510180Y-31834498D01*
X154390482Y-31798188D01*
X154266000Y-31785928D01*
X153701750Y-31789000D01*
X153543000Y-31947750D01*
X153289000Y-31947750D01*
X153130250Y-31789000D01*
X152566000Y-31785928D01*
X152441518Y-31798188D01*
X152321820Y-31834498D01*
X152211506Y-31893463D01*
X152114815Y-31972815D01*
X152035463Y-32069506D01*
X151976498Y-32179820D01*
X151955607Y-32248687D01*
X151931134Y-32218866D01*
X151705014Y-32033294D01*
X151447034Y-31895401D01*
X151167111Y-31810487D01*
X150948950Y-31789000D01*
X150803050Y-31789000D01*
X150584889Y-31810487D01*
X150304966Y-31895401D01*
X150046986Y-32033294D01*
X149820866Y-32218866D01*
X149635294Y-32444986D01*
X149606000Y-32499791D01*
X149576706Y-32444986D01*
X149391134Y-32218866D01*
X149165014Y-32033294D01*
X148907034Y-31895401D01*
X148627111Y-31810487D01*
X148408950Y-31789000D01*
X148263050Y-31789000D01*
X148044889Y-31810487D01*
X147764966Y-31895401D01*
X147506986Y-32033294D01*
X147280866Y-32218866D01*
X147095294Y-32444986D01*
X146957401Y-32702966D01*
X146872487Y-32982889D01*
X146843815Y-33274000D01*
X119094185Y-33274000D01*
X119065513Y-32982889D01*
X118980599Y-32702966D01*
X118842706Y-32444986D01*
X118657134Y-32218866D01*
X118431014Y-32033294D01*
X118173034Y-31895401D01*
X117893111Y-31810487D01*
X117674950Y-31789000D01*
X117529050Y-31789000D01*
X117310889Y-31810487D01*
X117030966Y-31895401D01*
X116772986Y-32033294D01*
X116546866Y-32218866D01*
X116361294Y-32444986D01*
X116223401Y-32702966D01*
X116138487Y-32982889D01*
X116109815Y-33274000D01*
X116138487Y-33565111D01*
X116223401Y-33845034D01*
X116361294Y-34103014D01*
X116546866Y-34329134D01*
X116772986Y-34514706D01*
X116827791Y-34544000D01*
X116772986Y-34573294D01*
X116546866Y-34758866D01*
X116361294Y-34984986D01*
X116223401Y-35242966D01*
X116138487Y-35522889D01*
X116109815Y-35814000D01*
X116138487Y-36105111D01*
X116161203Y-36179996D01*
X115916002Y-36425197D01*
X115886998Y-36449000D01*
X115831870Y-36516175D01*
X115792025Y-36564725D01*
X115721454Y-36696754D01*
X115721453Y-36696755D01*
X115677996Y-36840016D01*
X115666999Y-36951669D01*
X115666999Y-36951679D01*
X115663323Y-36989001D01*
X115666999Y-37026323D01*
X115667000Y-47755667D01*
X115663323Y-47792999D01*
X115677997Y-47941984D01*
X115721453Y-48085245D01*
X115792025Y-48217275D01*
X115859096Y-48299000D01*
X115886999Y-48333000D01*
X115915997Y-48356798D01*
X118510136Y-50950938D01*
X118281727Y-50798320D01*
X118020574Y-50690147D01*
X117743335Y-50635000D01*
X117460665Y-50635000D01*
X117183426Y-50690147D01*
X116922273Y-50798320D01*
X116687241Y-50955363D01*
X116487363Y-51155241D01*
X116330320Y-51390273D01*
X116222147Y-51651426D01*
X116167000Y-51928665D01*
X116167000Y-52211335D01*
X116222147Y-52488574D01*
X116330320Y-52749727D01*
X116487363Y-52984759D01*
X116687241Y-53184637D01*
X116922273Y-53341680D01*
X117183426Y-53449853D01*
X117460665Y-53505000D01*
X117743335Y-53505000D01*
X118020574Y-53449853D01*
X118281727Y-53341680D01*
X118516759Y-53184637D01*
X118716637Y-52984759D01*
X118873680Y-52749727D01*
X118981853Y-52488574D01*
X119037000Y-52211335D01*
X119037000Y-51928665D01*
X118981853Y-51651426D01*
X118873680Y-51390273D01*
X118721062Y-51161864D01*
X119811292Y-52252094D01*
X119797764Y-52296691D01*
X119770057Y-52578000D01*
X119797764Y-52859309D01*
X119879818Y-53129808D01*
X120013068Y-53379101D01*
X120192392Y-53597608D01*
X120410899Y-53776932D01*
X120543858Y-53848000D01*
X120410899Y-53919068D01*
X120192392Y-54098392D01*
X120013068Y-54316899D01*
X119879818Y-54566192D01*
X119797764Y-54836691D01*
X119770057Y-55118000D01*
X119797764Y-55399309D01*
X119879818Y-55669808D01*
X120013068Y-55919101D01*
X120192392Y-56137608D01*
X120410899Y-56316932D01*
X120543858Y-56388000D01*
X120410899Y-56459068D01*
X120192392Y-56638392D01*
X120013068Y-56856899D01*
X119879818Y-57106192D01*
X119797764Y-57376691D01*
X119770057Y-57658000D01*
X119797764Y-57939309D01*
X119879818Y-58209808D01*
X120013068Y-58459101D01*
X120192392Y-58677608D01*
X120347620Y-58805000D01*
X118984579Y-58805000D01*
X113915000Y-53735422D01*
X113915000Y-42956454D01*
X113947205Y-42908256D01*
X114025226Y-42719898D01*
X114065000Y-42519939D01*
X114065000Y-42316061D01*
X114025226Y-42116102D01*
X113947205Y-41927744D01*
X113833937Y-41758226D01*
X113689774Y-41614063D01*
X113520256Y-41500795D01*
X113331898Y-41422774D01*
X113131939Y-41383000D01*
X112928061Y-41383000D01*
X112728102Y-41422774D01*
X112539744Y-41500795D01*
X112370226Y-41614063D01*
X112226063Y-41758226D01*
X112112795Y-41927744D01*
X112034774Y-42116102D01*
X111995000Y-42316061D01*
X111912000Y-42316061D01*
X111912000Y-33052279D01*
X111941234Y-32754125D01*
X112018448Y-32498378D01*
X112143869Y-32262496D01*
X112312716Y-32055470D01*
X112518554Y-31885187D01*
X112753556Y-31758121D01*
X113008756Y-31679124D01*
X113304882Y-31648000D01*
X160241721Y-31648000D01*
X160490540Y-31672397D01*
G36*
X117729000Y-40767000D02*
G01*
X117749000Y-40767000D01*
X117749000Y-41021000D01*
X117729000Y-41021000D01*
X117729000Y-42220250D01*
X117887750Y-42379000D01*
X118452000Y-42382072D01*
X118576482Y-42369812D01*
X118696180Y-42333502D01*
X118806494Y-42274537D01*
X118874001Y-42219136D01*
X118874001Y-42222288D01*
X118830063Y-42266226D01*
X118716795Y-42435744D01*
X118638774Y-42624102D01*
X118599000Y-42824061D01*
X118599000Y-43027939D01*
X118638774Y-43227898D01*
X118716795Y-43416256D01*
X118830063Y-43585774D01*
X118974226Y-43729937D01*
X119143744Y-43843205D01*
X119332102Y-43921226D01*
X119532061Y-43961000D01*
X119735939Y-43961000D01*
X119935898Y-43921226D01*
X120124256Y-43843205D01*
X120293774Y-43729937D01*
X120414748Y-43608963D01*
X120522773Y-43682430D01*
X120540345Y-43689878D01*
X120410899Y-43759068D01*
X120192392Y-43938392D01*
X120013068Y-44156899D01*
X119879818Y-44406192D01*
X119797764Y-44676691D01*
X119770057Y-44958000D01*
X119797764Y-45239309D01*
X119879818Y-45509808D01*
X120013068Y-45759101D01*
X120192392Y-45977608D01*
X120410899Y-46156932D01*
X120543858Y-46228000D01*
X120410899Y-46299068D01*
X120192392Y-46478392D01*
X120013068Y-46696899D01*
X119879818Y-46946192D01*
X119797764Y-47216691D01*
X119770057Y-47498000D01*
X119797764Y-47779309D01*
X119879818Y-48049808D01*
X120013068Y-48299101D01*
X120192392Y-48517608D01*
X120410899Y-48696932D01*
X120543858Y-48768000D01*
X120410899Y-48839068D01*
X120192392Y-49018392D01*
X120013068Y-49236899D01*
X119879818Y-49486192D01*
X119797764Y-49756691D01*
X119770057Y-50038000D01*
X119772598Y-50063796D01*
X117186999Y-47478198D01*
X117186999Y-42379704D01*
X117316250Y-42379000D01*
X117475000Y-42220250D01*
X117475000Y-41021000D01*
X117455000Y-41021000D01*
X117455000Y-40767000D01*
X117475000Y-40767000D01*
X117475000Y-40747000D01*
X117729000Y-40747000D01*
X117729000Y-40767000D01*
X117729000Y-40767000D01*
G37*
X117729000Y-40767000D02*
X117749000Y-40767000D01*
X117749000Y-41021000D01*
X117729000Y-41021000D01*
X117729000Y-42220250D01*
X117887750Y-42379000D01*
X118452000Y-42382072D01*
X118576482Y-42369812D01*
X118696180Y-42333502D01*
X118806494Y-42274537D01*
X118874001Y-42219136D01*
X118874001Y-42222288D01*
X118830063Y-42266226D01*
X118716795Y-42435744D01*
X118638774Y-42624102D01*
X118599000Y-42824061D01*
X118599000Y-43027939D01*
X118638774Y-43227898D01*
X118716795Y-43416256D01*
X118830063Y-43585774D01*
X118974226Y-43729937D01*
X119143744Y-43843205D01*
X119332102Y-43921226D01*
X119532061Y-43961000D01*
X119735939Y-43961000D01*
X119935898Y-43921226D01*
X120124256Y-43843205D01*
X120293774Y-43729937D01*
X120414748Y-43608963D01*
X120522773Y-43682430D01*
X120540345Y-43689878D01*
X120410899Y-43759068D01*
X120192392Y-43938392D01*
X120013068Y-44156899D01*
X119879818Y-44406192D01*
X119797764Y-44676691D01*
X119770057Y-44958000D01*
X119797764Y-45239309D01*
X119879818Y-45509808D01*
X120013068Y-45759101D01*
X120192392Y-45977608D01*
X120410899Y-46156932D01*
X120543858Y-46228000D01*
X120410899Y-46299068D01*
X120192392Y-46478392D01*
X120013068Y-46696899D01*
X119879818Y-46946192D01*
X119797764Y-47216691D01*
X119770057Y-47498000D01*
X119797764Y-47779309D01*
X119879818Y-48049808D01*
X120013068Y-48299101D01*
X120192392Y-48517608D01*
X120410899Y-48696932D01*
X120543858Y-48768000D01*
X120410899Y-48839068D01*
X120192392Y-49018392D01*
X120013068Y-49236899D01*
X119879818Y-49486192D01*
X119797764Y-49756691D01*
X119770057Y-50038000D01*
X119772598Y-50063796D01*
X117186999Y-47478198D01*
X117186999Y-42379704D01*
X117316250Y-42379000D01*
X117475000Y-42220250D01*
X117475000Y-41021000D01*
X117455000Y-41021000D01*
X117455000Y-40767000D01*
X117475000Y-40767000D01*
X117475000Y-40747000D01*
X117729000Y-40747000D01*
X117729000Y-40767000D01*
G36*
X121539000Y-42291000D02*
G01*
X121559000Y-42291000D01*
X121559000Y-42545000D01*
X121539000Y-42545000D01*
X121539000Y-42565000D01*
X121285000Y-42565000D01*
X121285000Y-42545000D01*
X121265000Y-42545000D01*
X121265000Y-42291000D01*
X121285000Y-42291000D01*
X121285000Y-42271000D01*
X121539000Y-42271000D01*
X121539000Y-42291000D01*
X121539000Y-42291000D01*
G37*
X121539000Y-42291000D02*
X121559000Y-42291000D01*
X121559000Y-42545000D01*
X121539000Y-42545000D01*
X121539000Y-42565000D01*
X121285000Y-42565000D01*
X121285000Y-42545000D01*
X121265000Y-42545000D01*
X121265000Y-42291000D01*
X121285000Y-42291000D01*
X121285000Y-42271000D01*
X121539000Y-42271000D01*
X121539000Y-42291000D01*
M02*
